  0
SECTION
  2
HEADER
  9
$ACADVER
  1
AC1027
  9
$ACADMAINTVER
 70
105
  9
$DWGCODEPAGE
  3
ANSI_1252
  9
$LASTSAVEDBY
  1
ezdxf
  9
$REQUIREDVERSIONS
160
0
  9
$INSBASE
 10
0.0
 20
0.0
 30
0.0
  9
$EXTMIN
 10
1e+20
 20
1e+20
 30
1e+20
  9
$EXTMAX
 10
-1e+20
 20
-1e+20
 30
-1e+20
  9
$LIMMIN
 10
0.0
 20
0.0
  9
$LIMMAX
 10
420.0
 20
297.0
  9
$ORTHOMODE
 70
0
  9
$REGENMODE
 70
1
  9
$FILLMODE
 70
1
  9
$QTEXTMODE
 70
0
  9
$MIRRTEXT
 70
1
  9
$LTSCALE
 40
1.0
  9
$ATTMODE
 70
1
  9
$TEXTSIZE
 40
2.5
  9
$TRACEWID
 40
1.0
  9
$TEXTSTYLE
  7
Standard
  9
$CLAYER
  8
0
  9
$CELTYPE
  6
ByLayer
  9
$CECOLOR
 62
256
  9
$CELTSCALE
 40
1.0
  9
$DISPSILH
 70
0
  9
$DIMSCALE
 40
1.0
  9
$DIMASZ
 40
2.5
  9
$DIMEXO
 40
0.625
  9
$DIMDLI
 40
3.75
  9
$DIMRND
 40
0.0
  9
$DIMDLE
 40
0.0
  9
$DIMEXE
 40
1.25
  9
$DIMTP
 40
0.0
  9
$DIMTM
 40
0.0
  9
$DIMTXT
 40
2.5
  9
$DIMCEN
 40
2.5
  9
$DIMTSZ
 40
0.0
  9
$DIMTOL
 70
0
  9
$DIMLIM
 70
0
  9
$DIMTIH
 70
0
  9
$DIMTOH
 70
0
  9
$DIMSE1
 70
0
  9
$DIMSE2
 70
0
  9
$DIMTAD
 70
1
  9
$DIMZIN
 70
8
  9
$DIMBLK
  1

  9
$DIMASO
 70
1
  9
$DIMSHO
 70
1
  9
$DIMPOST
  1

  9
$DIMAPOST
  1

  9
$DIMALT
 70
0
  9
$DIMALTD
 70
3
  9
$DIMALTF
 40
0.03937007874
  9
$DIMLFAC
 40
1.0
  9
$DIMTOFL
 70
1
  9
$DIMTVP
 40
0.0
  9
$DIMTIX
 70
0
  9
$DIMSOXD
 70
0
  9
$DIMSAH
 70
0
  9
$DIMBLK1
  1

  9
$DIMBLK2
  1

  9
$DIMSTYLE
  2
ISO-25
  9
$DIMCLRD
 70
0
  9
$DIMCLRE
 70
0
  9
$DIMCLRT
 70
0
  9
$DIMTFAC
 40
1.0
  9
$DIMGAP
 40
0.625
  9
$DIMJUST
 70
0
  9
$DIMSD1
 70
0
  9
$DIMSD2
 70
0
  9
$DIMTOLJ
 70
0
  9
$DIMTZIN
 70
8
  9
$DIMALTZ
 70
0
  9
$DIMALTTZ
 70
0
  9
$DIMUPT
 70
0
  9
$DIMDEC
 70
2
  9
$DIMTDEC
 70
2
  9
$DIMALTU
 70
2
  9
$DIMALTTD
 70
3
  9
$DIMTXSTY
  7
Standard
  9
$DIMAUNIT
 70
0
  9
$DIMADEC
 70
0
  9
$DIMALTRND
 40
0.0
  9
$DIMAZIN
 70
0
  9
$DIMDSEP
 70
44
  9
$DIMATFIT
 70
3
  9
$DIMFRAC
 70
0
  9
$DIMLDRBLK
  1

  9
$DIMLUNIT
 70
2
  9
$DIMLWD
 70
-2
  9
$DIMLWE
 70
-2
  9
$DIMTMOVE
 70
0
  9
$DIMFXL
 40
1.0
  9
$DIMFXLON
 70
0
  9
$DIMJOGANG
 40
0.785398163397
  9
$DIMTFILL
 70
0
  9
$DIMTFILLCLR
 70
0
  9
$DIMARCSYM
 70
0
  9
$DIMLTYPE
  6

  9
$DIMLTEX1
  6

  9
$DIMLTEX2
  6

  9
$DIMTXTDIRECTION
 70
0
  9
$LUNITS
 70
2
  9
$LUPREC
 70
4
  9
$SKETCHINC
 40
1.0
  9
$FILLETRAD
 40
10.0
  9
$AUNITS
 70
0
  9
$AUPREC
 70
2
  9
$MENU
  1
.
  9
$ELEVATION
 40
0.0
  9
$PELEVATION
 40
0.0
  9
$THICKNESS
 40
0.0
  9
$LIMCHECK
 70
0
  9
$CHAMFERA
 40
0.0
  9
$CHAMFERB
 40
0.0
  9
$CHAMFERC
 40
0.0
  9
$CHAMFERD
 40
0.0
  9
$SKPOLY
 70
0
  9
$TDCREATE
 40
2460942.0245023146
  9
$TDUCREATE
 40
2458532.153996898
  9
$TDUPDATE
 40
2460942.0245023146
  9
$TDUUPDATE
 40
2458532.1544311
  9
$TDINDWG
 40
0.0
  9
$TDUSRTIMER
 40
0.0
  9
$USRTIMER
 70
1
  9
$ANGBASE
 50
0.0
  9
$ANGDIR
 70
0
  9
$PDMODE
 70
0
  9
$PDSIZE
 40
0.0
  9
$PLINEWID
 40
0.0
  9
$SPLFRAME
 70
0
  9
$SPLINETYPE
 70
6
  9
$SPLINESEGS
 70
8
  9
$HANDSEED
  5
34
  9
$SURFTAB1
 70
6
  9
$SURFTAB2
 70
6
  9
$SURFTYPE
 70
6
  9
$SURFU
 70
6
  9
$SURFV
 70
6
  9
$UCSBASE
  2

  9
$UCSNAME
  2

  9
$UCSORG
 10
0.0
 20
0.0
 30
0.0
  9
$UCSXDIR
 10
1.0
 20
0.0
 30
0.0
  9
$UCSYDIR
 10
0.0
 20
1.0
 30
0.0
  9
$UCSORTHOREF
  2

  9
$UCSORTHOVIEW
 70
0
  9
$UCSORGTOP
 10
0.0
 20
0.0
 30
0.0
  9
$UCSORGBOTTOM
 10
0.0
 20
0.0
 30
0.0
  9
$UCSORGLEFT
 10
0.0
 20
0.0
 30
0.0
  9
$UCSORGRIGHT
 10
0.0
 20
0.0
 30
0.0
  9
$UCSORGFRONT
 10
0.0
 20
0.0
 30
0.0
  9
$UCSORGBACK
 10
0.0
 20
0.0
 30
0.0
  9
$PUCSBASE
  2

  9
$PUCSNAME
  2

  9
$PUCSORG
 10
0.0
 20
0.0
 30
0.0
  9
$PUCSXDIR
 10
1.0
 20
0.0
 30
0.0
  9
$PUCSYDIR
 10
0.0
 20
1.0
 30
0.0
  9
$PUCSORTHOREF
  2

  9
$PUCSORTHOVIEW
 70
0
  9
$PUCSORGTOP
 10
0.0
 20
0.0
 30
0.0
  9
$PUCSORGBOTTOM
 10
0.0
 20
0.0
 30
0.0
  9
$PUCSORGLEFT
 10
0.0
 20
0.0
 30
0.0
  9
$PUCSORGRIGHT
 10
0.0
 20
0.0
 30
0.0
  9
$PUCSORGFRONT
 10
0.0
 20
0.0
 30
0.0
  9
$PUCSORGBACK
 10
0.0
 20
0.0
 30
0.0
  9
$USERI1
 70
0
  9
$USERI2
 70
0
  9
$USERI3
 70
0
  9
$USERI4
 70
0
  9
$USERI5
 70
0
  9
$USERR1
 40
0.0
  9
$USERR2
 40
0.0
  9
$USERR3
 40
0.0
  9
$USERR4
 40
0.0
  9
$USERR5
 40
0.0
  9
$WORLDVIEW
 70
1
  9
$SHADEDGE
 70
3
  9
$SHADEDIF
 70
70
  9
$TILEMODE
 70
1
  9
$MAXACTVP
 70
64
  9
$PINSBASE
 10
0.0
 20
0.0
 30
0.0
  9
$PLIMCHECK
 70
0
  9
$PEXTMIN
 10
1e+20
 20
1e+20
 30
1e+20
  9
$PEXTMAX
 10
-1e+20
 20
-1e+20
 30
-1e+20
  9
$PLIMMIN
 10
0.0
 20
0.0
  9
$PLIMMAX
 10
420.0
 20
297.0
  9
$UNITMODE
 70
0
  9
$VISRETAIN
 70
1
  9
$PLINEGEN
 70
0
  9
$PSLTSCALE
 70
1
  9
$TREEDEPTH
 70
3020
  9
$CMLSTYLE
  2
Standard
  9
$CMLJUST
 70
0
  9
$CMLSCALE
 40
20.0
  9
$PROXYGRAPHICS
 70
1
  9
$MEASUREMENT
 70
1
  9
$CELWEIGHT
370
-1
  9
$ENDCAPS
280
0
  9
$JOINSTYLE
280
0
  9
$LWDISPLAY
290
0
  9
$INSUNITS
 70
6
  9
$HYPERLINKBASE
  1

  9
$STYLESHEET
  1

  9
$XEDIT
290
1
  9
$CEPSNTYPE
380
0
  9
$PSTYLEMODE
290
1
  9
$FINGERPRINTGUID
  2
{9AF1F76C-952A-47A7-BC7B-D88A5C3950B9}
  9
$VERSIONGUID
  2
{9B2E850C-00E1-4016-B34B-F5D4943CB8BD}
  9
$EXTNAMES
290
1
  9
$PSVPSCALE
 40
0.0
  9
$OLESTARTUP
290
0
  9
$SORTENTS
280
127
  9
$INDEXCTL
280
0
  9
$HIDETEXT
280
1
  9
$XCLIPFRAME
280
1
  9
$HALOGAP
280
0
  9
$OBSCOLOR
 70
257
  9
$OBSLTYPE
280
0
  9
$INTERSECTIONDISPLAY
280
0
  9
$INTERSECTIONCOLOR
 70
257
  9
$DIMASSOC
280
2
  9
$PROJECTNAME
  1

  9
$CAMERADISPLAY
290
0
  9
$LENSLENGTH
 40
50.0
  9
$CAMERAHEIGHT
 40
0.0
  9
$STEPSPERSEC
 40
24.0
  9
$STEPSIZE
 40
100.0
  9
$3DDWFPREC
 40
2.0
  9
$PSOLWIDTH
 40
0.005
  9
$PSOLHEIGHT
 40
0.08
  9
$LOFTANG1
 40
1.570796326795
  9
$LOFTANG2
 40
1.570796326795
  9
$LOFTMAG1
 40
0.0
  9
$LOFTMAG2
 40
0.0
  9
$LOFTPARAM
 70
7
  9
$LOFTNORMALS
280
1
  9
$LATITUDE
 40
37.795
  9
$LONGITUDE
 40
-122.394
  9
$NORTHDIRECTION
 40
0.0
  9
$TIMEZONE
 70
-8000
  9
$LIGHTGLYPHDISPLAY
280
1
  9
$TILEMODELIGHTSYNCH
280
1
  9
$CMATERIAL
347
20
  9
$SOLIDHIST
280
0
  9
$SHOWHIST
280
1
  9
$DWFFRAME
280
2
  9
$DGNFRAME
280
2
  9
$REALWORLDSCALE
290
1
  9
$INTERFERECOLOR
 62
256
  9
$CSHADOW
280
0
  9
$SHADOWPLANELOCATION
 40
0.0
  0
ENDSEC
  0
SECTION
  2
CLASSES
  0
CLASS
  1
ACDBDICTIONARYWDFLT
  2
AcDbDictionaryWithDefault
  3
ObjectDBX Classes
 90
0
 91
0
280
0
281
0
  0
CLASS
  1
SUN
  2
AcDbSun
  3
SCENEOE
 90
1153
 91
0
280
0
281
0
  0
CLASS
  1
VISUALSTYLE
  2
AcDbVisualStyle
  3
ObjectDBX Classes
 90
4095
 91
0
280
0
281
0
  0
CLASS
  1
MATERIAL
  2
AcDbMaterial
  3
ObjectDBX Classes
 90
1153
 91
0
280
0
281
0
  0
CLASS
  1
SCALE
  2
AcDbScale
  3
ObjectDBX Classes
 90
1153
 91
0
280
0
281
0
  0
CLASS
  1
TABLESTYLE
  2
AcDbTableStyle
  3
ObjectDBX Classes
 90
4095
 91
0
280
0
281
0
  0
CLASS
  1
MLEADERSTYLE
  2
AcDbMLeaderStyle
  3
ACDB_MLEADERSTYLE_CLASS
 90
4095
 91
0
280
0
281
0
  0
CLASS
  1
DICTIONARYVAR
  2
AcDbDictionaryVar
  3
ObjectDBX Classes
 90
0
 91
0
280
0
281
0
  0
CLASS
  1
CELLSTYLEMAP
  2
AcDbCellStyleMap
  3
ObjectDBX Classes
 90
1152
 91
0
280
0
281
0
  0
CLASS
  1
MENTALRAYRENDERSETTINGS
  2
AcDbMentalRayRenderSettings
  3
SCENEOE
 90
1024
 91
0
280
0
281
0
  0
CLASS
  1
ACDBDETAILVIEWSTYLE
  2
AcDbDetailViewStyle
  3
ObjectDBX Classes
 90
1025
 91
0
280
0
281
0
  0
CLASS
  1
ACDBSECTIONVIEWSTYLE
  2
AcDbSectionViewStyle
  3
ObjectDBX Classes
 90
1025
 91
0
280
0
281
0
  0
CLASS
  1
RASTERVARIABLES
  2
AcDbRasterVariables
  3
ISM
 90
0
 91
0
280
0
281
0
  0
CLASS
  1
ACDBPLACEHOLDER
  2
AcDbPlaceHolder
  3
ObjectDBX Classes
 90
0
 91
0
280
0
281
0
  0
CLASS
  1
LAYOUT
  2
AcDbLayout
  3
ObjectDBX Classes
 90
0
 91
0
280
0
281
0
  0
ENDSEC
  0
SECTION
  2
TABLES
  0
TABLE
  2
VPORT
  5
8
330
0
100
AcDbSymbolTable
 70
1
  0
VPORT
  5
23
330
8
100
AcDbSymbolTableRecord
100
AcDbViewportTableRecord
  2
*Active
 70
0
 10
0.0
 20
0.0
 11
1.0
 21
1.0
 12
0.0
 22
0.0
 13
0.0
 23
0.0
 14
0.5
 24
0.5
 15
0.5
 25
0.5
 16
0.0
 26
0.0
 36
1.0
 17
0.0
 27
0.0
 37
0.0
 40
1000.0
 41
1.34
 42
50.0
 43
0.0
 44
0.0
 50
0.0
 51
0.0
 71
0
 72
1000
 73
1
 74
3
 75
0
 76
0
 77
0
 78
0
281
0
 65
0
146
0.0
  0
ENDTAB
  0
TABLE
  2
LTYPE
  5
2
330
0
100
AcDbSymbolTable
 70
3
  0
LTYPE
  5
24
330
2
100
AcDbSymbolTableRecord
100
AcDbLinetypeTableRecord
  2
ByBlock
 70
0
  3

 72
65
 73
0
 40
0.0
  0
LTYPE
  5
25
330
2
100
AcDbSymbolTableRecord
100
AcDbLinetypeTableRecord
  2
ByLayer
 70
0
  3

 72
65
 73
0
 40
0.0
  0
LTYPE
  5
26
330
2
100
AcDbSymbolTableRecord
100
AcDbLinetypeTableRecord
  2
Continuous
 70
0
  3

 72
65
 73
0
 40
0.0
  0
ENDTAB
  0
TABLE
  2
LAYER
  5
1
330
0
100
AcDbSymbolTable
 70
3
  0
LAYER
  5
27
330
1
100
AcDbSymbolTableRecord
100
AcDbLayerTableRecord
  2
0
 70
0
 62
7
  6
Continuous
370
-3
390
13
347
21
  0
LAYER
  5
28
330
1
100
AcDbSymbolTableRecord
100
AcDbLayerTableRecord
  2
Defpoints
 70
0
 62
7
  6
Continuous
290
0
370
-3
390
13
347
21
  0
LAYER
  5
2F
330
1
100
AcDbSymbolTableRecord
100
AcDbLayerTableRecord
  2
alpha_boundary_shrunk
 70
0
 62
7
  6
Continuous
370
-3
390
13
347
21
  0
ENDTAB
  0
TABLE
  2
STYLE
  5
5
330
0
100
AcDbSymbolTable
 70
1
  0
STYLE
  5
29
330
5
100
AcDbSymbolTableRecord
100
AcDbTextStyleTableRecord
  2
Standard
 70
0
 40
0.0
 41
1.0
 50
0.0
 71
0
 42
2.5
  3
txt
  4

  0
ENDTAB
  0
TABLE
  2
VIEW
  5
7
330
0
100
AcDbSymbolTable
 70
0
  0
ENDTAB
  0
TABLE
  2
UCS
  5
6
330
0
100
AcDbSymbolTable
 70
0
  0
ENDTAB
  0
TABLE
  2
APPID
  5
3
330
0
100
AcDbSymbolTable
 70
3
  0
APPID
  5
2A
330
3
100
AcDbSymbolTableRecord
100
AcDbRegAppTableRecord
  2
ACAD
 70
0
  0
APPID
  5
31
330
3
100
AcDbSymbolTableRecord
100
AcDbRegAppTableRecord
  2
HATCHBACKGROUNDCOLOR
 70
0
  0
APPID
  5
32
330
3
100
AcDbSymbolTableRecord
100
AcDbRegAppTableRecord
  2
EZDXF
 70
0
  0
ENDTAB
  0
TABLE
  2
DIMSTYLE
  5
4
330
0
100
AcDbSymbolTable
 70
1
100
AcDbDimStyleTable
  0
DIMSTYLE
105
2B
330
4
100
AcDbSymbolTableRecord
100
AcDbDimStyleTableRecord
  2
Standard
 70
0
 40
1.0
 41
2.5
 42
0.625
 43
3.75
 44
1.25
 45
0.0
 46
0.0
 47
0.0
 48
0.0
 49
2.5
140
2.5
141
2.5
142
0.0
143
0.03937007874
144
1.0
145
0.0
146
1.0
147
0.625
148
0.0
 69
0
 70
0
 71
0
 72
0
 73
0
 74
0
 75
0
 76
0
 77
1
 78
8
 79
3
170
0
171
3
172
1
173
0
174
0
175
0
176
0
177
0
178
0
179
2
271
2
272
2
273
2
274
3
275
0
276
0
277
2
278
44
279
0
280
0
281
0
282
0
283
0
284
8
285
0
286
0
288
0
289
3
290
0
371
-2
372
-2
  0
ENDTAB
  0
TABLE
  2
BLOCK_RECORD
  5
9
330
0
100
AcDbSymbolTable
 70
2
  0
BLOCK_RECORD
  5
17
330
9
100
AcDbSymbolTableRecord
100
AcDbBlockTableRecord
  2
*Model_Space
340
1A
 70
0
280
1
281
0
  0
BLOCK_RECORD
  5
1B
330
9
100
AcDbSymbolTableRecord
100
AcDbBlockTableRecord
  2
*Paper_Space
340
1E
 70
0
280
1
281
0
  0
ENDTAB
  0
ENDSEC
  0
SECTION
  2
BLOCKS
  0
BLOCK
  5
18
330
17
100
AcDbEntity
  8
0
100
AcDbBlockBegin
  2
*Model_Space
 70
0
 10
0.0
 20
0.0
 30
0.0
  3
*Model_Space
  1

  0
ENDBLK
  5
19
330
17
100
AcDbEntity
  8
0
100
AcDbBlockEnd
  0
BLOCK
  5
1C
330
1B
100
AcDbEntity
  8
0
100
AcDbBlockBegin
  2
*Paper_Space
 70
0
 10
0.0
 20
0.0
 30
0.0
  3
*Paper_Space
  1

  0
ENDBLK
  5
1D
330
1B
100
AcDbEntity
  8
0
100
AcDbBlockEnd
  0
ENDSEC
  0
SECTION
  2
ENTITIES
  0
LWPOLYLINE
  5
30
330
17
100
AcDbEntity
  8
alpha_boundary_shrunk
 62
1
100
AcDbPolyline
 90
1131
 70
1
 10
-62143.78439918961
 20
23920.49320387554
 10
-62143.78439918961
 20
48778.77462617116
 10
-50591.22060195872
 20
48778.77462617116
 10
-50591.22060195872
 20
48059.38271444016
 10
-50588.81296529484
 20
48010.37414427539
 10
-50581.613242160325
 20
47961.83755343211
 10
-50569.69076982481
 20
47914.24037581295
 10
-50553.16036821439
 20
47868.040998257646
 10
-50532.181234132935
 20
47823.6843460272
 10
-50506.95540811002
 20
47781.597597930406
 10
-50477.725828640134
 20
47742.18607235838
 10
-50444.77399255204
 20
47705.829323846934
 10
-50337.18058857581
 20
47598.23591987067
 10
-50300.823840064375
 20
47565.284083782564
 10
-50261.41231449231
 20
47536.05450431265
 10
-50219.325566395506
 20
47510.828678289734
 10
-50174.968914165074
 20
47489.849544208264
 10
-50128.76953660973
 20
47473.3191425978
 10
-50081.17235899056
 20
47461.39667026228
 10
-50032.63576814727
 20
47454.1969471278
 10
-49983.62719798248
 20
47451.78931046389
 10
-48860.66975822483
 20
47451.78931046389
 10
-48830.87293290798
 20
47418.91357991014
 10
-48723.279528931685
 20
47311.32017593388
 10
-48686.92278042025
 20
47278.36833984579
 10
-48647.51125484824
 20
47249.13876037589
 10
-48605.42450675144
 20
47223.91293435299
 10
-48561.06785452101
 20
47202.93380027154
 10
-48514.86847696567
 20
47186.40339866108
 10
-48467.271299346496
 20
47174.480926325574
 10
-48418.73470850327
 20
47167.281203191094
 10
-48369.726138338476
 20
47164.873566527196
 10
-44245.31231924833
 20
47164.873566527196
 10
-44196.30374908354
 20
47167.281203191094
 10
-44147.76715824028
 20
47174.48092632558
 10
-44100.16998062111
 20
47186.40339866109
 10
-44053.9706030658
 20
47202.93380027155
 10
-44009.61395083534
 20
47223.912934353015
 10
-43967.527202738536
 20
47249.13876037592
 10
-43928.11567716653
 20
47278.36833984582
 10
-43891.758928655065
 20
47311.32017593392
 10
-43784.1655246788
 20
47418.913579910186
 10
-43751.21368859071
 20
47455.27032842163
 10
-43721.98410912079
 20
47494.68185399366
 10
-43696.75828309788
 20
47536.76860209046
 10
-43675.77914901642
 20
47581.12525432091
 10
-43659.248747405974
 20
47627.324631876225
 10
-43647.32627507046
 20
47674.9218094954
 10
-43640.12655193597
 20
47723.45840033868
 10
-43637.71891527207
 20
47772.46697050346
 10
-43637.71891527207
 20
48778.77462617116
 10
-11758.217628129496
 20
48778.77462617116
 10
-11754.017597079655
 20
48776.9126790635
 10
-11710.08913197639
 20
48762.13292744523
 10
-11664.980840819335
 20
48751.48430438331
 10
-11619.080321310292
 20
48745.058309283304
 10
-11572.781978455925
 20
48742.910158179075
 10
-9785.671888564655
 20
48742.910158179075
 10
-9781.471857514873
 20
48741.048211071444
 10
-9737.543392411608
 20
48726.26845945316
 10
-9692.435101254523
 20
48715.61983639123
 10
-9646.53458174545
 20
48709.19384129122
 10
-9600.236238891084
 20
48707.04569018699
 10
-7813.126148999872
 20
48707.04569018699
 10
-7808.92611795009
 20
48705.18374307936
 10
-7764.997652846796
 20
48690.40399146108
 10
-7719.889361689711
 20
48679.75536839914
 10
-7673.988842180639
 20
48673.32937329912
 10
-7627.690499326243
 20
48671.18122219489
 10
-5804.715941442846
 20
48671.18122219489
 10
-5800.5159103930055
 20
48669.31927508723
 10
-5756.587445289741
 20
48654.539523468964
 10
-5711.479154132685
 20
48643.890900407045
 10
-5665.578634623642
 20
48637.46490530704
 10
-5619.280291769275
 20
48635.31675420281
 10
-3832.170201878005
 20
48635.31675420281
 10
-3827.9701708282228
 20
48633.45480709518
 10
-3784.041705724958
 20
48618.675055476895
 10
-3738.933414567873
 20
48608.02643241497
 10
-3693.032895058801
 20
48601.600437314955
 10
-3646.7345522044343
 20
48599.452286210726
 10
-1859.6244623132225
 20
48599.452286210726
 10
-1855.42443126344
 20
48597.590339103095
 10
-1811.495966160146
 20
48582.81058748481
 10
-1766.3876750030613
 20
48572.16196442288
 10
-1720.4871554939891
 20
48565.73596932286
 10
-1674.1888126395934
 20
48563.58781821863
 10
112.92127725170576
 20
48563.58781821863
 10
117.12130830154638
 20
48561.72587111097
 10
161.04977340481128
 20
48546.9461194927
 10
206.15806456186692
 20
48536.29749643078
 10
252.05858407091
 20
48529.871501330774
 10
298.35692692527664
 20
48527.723350226544
 10
2193.060420792812
 20
48527.723350226544
 10
2197.260451842594
 20
48525.86140311891
 10
2241.188916945859
 20
48511.08165150063
 10
2286.297208102944
 20
48500.4330284387
 10
2332.197727612016
 20
48494.00703333869
 10
2378.4960704663827
 20
48491.85888223446
 10
4093.8772243734275
 20
48491.85888223446
 10
4098.07725542321
 20
48489.99693512683
 10
4142.005720526504
 20
48475.21718350855
 10
4187.114011683589
 20
48464.56856044661
 10
4233.014531192661
 20
48458.14256534659
 10
4279.3128740470565
 20
48455.99441424236
 10
6245.745303898788
 20
48455.99441424236
 10
6249.94533494857
 20
48454.13246713473
 10
6293.873800051835
 20
48439.35271551645
 10
6338.98209120892
 20
48428.70409245452
 10
6384.882610717992
 20
48422.27809735451
 10
6431.180953572359
 20
48420.12994625028
 10
8182.42657547156
 20
48420.12994625028
 10
8186.6266065214
 20
48418.26799914262
 10
8230.555071624665
 20
48403.48824752435
 10
8275.663362781721
 20
48392.83962446243
 10
8321.563882290764
 20
48386.413629362425
 10
8367.86222514513
 20
48384.265478258196
 10
10154.97231503643
 20
48384.265478258196
 10
10159.17234608627
 20
48382.403531150536
 10
10203.100811189535
 20
48367.62377953227
 10
10248.209102346591
 20
48356.97515647035
 10
10294.109621855634
 20
48350.54916137034
 10
10340.40796471
 20
48348.40101026611
 10
12091.653586609114
 20
48348.40101026611
 10
12095.853617658897
 20
48346.53906315848
 10
12139.78208276219
 20
48331.7593115402
 10
12184.890373919276
 20
48321.110688478264
 10
12230.790893428348
 20
48314.68469337824
 10
12277.089236282744
 20
48312.536542274014
 10
14064.199326173984
 20
48312.536542274014
 10
14068.399357223738
 20
48310.6745951664
 10
14112.327822327032
 20
48295.894843548114
 10
14157.436113484117
 20
48285.24622048618
 10
14203.336632993189
 20
48278.82022538616
 10
14249.634975847584
 20
48276.67207428193
 10
16000.880597746785
 20
48276.67207428193
 10
16005.080628796568
 20
48274.8101271743
 10
16049.009093899833
 20
48260.030375556016
 10
16094.117385056918
 20
48249.38175249409
 10
16140.01790456599
 20
48242.95575739408
 10
16186.316247420356
 20
48240.80760628985
 10
16654.65688320677
 20
48240.80760628985
 10
16654.65688320677
 20
47880.060374479726
 10
16656.805034310994
 20
47833.76203162538
 10
16663.231029410992
 20
47787.86151211634
 10
16673.87965247291
 20
47742.753220959275
 10
16688.659404091188
 20
47698.824755856025
 10
16690.52135119884
 20
47694.62472480619
 10
16690.52135119884
 20
46553.07505877246
 10
16692.669502303062
 20
46506.77671591812
 10
16699.09549740306
 20
46460.87619640907
 10
16709.74412046498
 20
46415.76790525201
 10
16724.523872083257
 20
46371.83944014876
 10
16726.38581919091
 20
46367.63940909893
 10
16726.38581919091
 20
45261.95421105728
 10
16728.53397029513
 20
45215.655868202906
 10
16734.95996539516
 20
45169.755348693834
 10
16745.60858845708
 20
45124.64705753674
 10
16760.388340075355
 20
45080.71859243346
 10
16762.250287183007
 20
45076.51856138364
 10
16762.250287183007
 20
43934.968895350015
 10
16764.39843828723
 20
43888.67055249564
 10
16770.824433387257
 20
43842.77003298657
 10
16781.473056449177
 20
43797.66174182948
 10
16796.252808067453
 20
43753.7332767262
 10
16798.114755175106
 20
43749.53324567637
 10
16798.114755175106
 20
42607.98357964275
 10
16800.262906279328
 20
42561.68523678838
 10
16806.688901379355
 20
42515.784717279304
 10
16817.337524441275
 20
42470.67642612221
 10
16832.11727605955
 20
42426.74796101893
 10
16833.979223167204
 20
42422.54792996911
 10
16833.979223167204
 20
41316.86273192757
 10
16836.127374271426
 20
41270.56438907318
 10
16842.553369371453
 20
41224.6638695641
 10
16853.201992433373
 20
41179.555578407
 10
16867.981744051678
 20
41135.627113303715
 10
16869.8436911593
 20
41131.427082253955
 10
16869.8436911593
 20
39989.877416220304
 10
16871.991842263524
 20
39943.57907336595
 10
16878.41783736355
 20
39897.6785538569
 10
16889.06646042547
 20
39852.570262699825
 10
16903.846212043718
 20
39808.64179759657
 10
16905.70815915137
 20
39804.44176654674
 10
16905.70815915137
 20
39416.045928346895
 10
16908.115795815276
 20
39367.03735818211
 10
16915.315518949763
 20
39318.50076733883
 10
16927.237991285278
 20
39270.90358971966
 10
16943.768392895727
 20
39224.704212164346
 10
16964.747526977182
 20
39180.34755993389
 10
16989.973353000096
 20
39138.26081183709
 10
17019.202932470012
 20
39098.84928626507
 10
17052.154768558103
 20
39062.49253775362
 10
17159.748172534368
 20
38954.899133777355
 10
17196.10492104583
 20
38921.94729768926
 10
17235.51644661784
 20
38892.717718219355
 10
17277.60319471464
 20
38867.49189219645
 10
17321.9598469451
 20
38846.512758114986
 10
17368.159224500414
 20
38829.98235650452
 10
17415.756402119587
 20
38818.059884169015
 10
17464.292992962844
 20
38810.86016103453
 10
17513.301563127636
 20
38808.45252437063
 10
19378.25389871621
 20
38808.45252437063
 10
19424.55224157058
 20
38810.60067547486
 10
19470.45276107965
 20
38817.02667057487
 10
19515.561052236735
 20
38827.6752936368
 10
19559.48951734
 20
38842.45504525508
 10
19563.68954838981
 20
38844.31699236273
 10
21924.631126154476
 20
38844.31699236273
 10
21970.929469008843
 20
38846.46514346696
 10
22016.829988517886
 20
38852.89113856696
 10
22061.93827967494
 20
38863.53976162888
 10
22105.866744778206
 20
38878.31951324715
 10
22110.066775828047
 20
38880.18146035481
 10
24435.14388560067
 20
38880.18146035481
 10
24481.44222845504
 20
38882.32961145904
 10
24527.34274796411
 20
38888.755606559054
 10
24572.451039121195
 20
38899.40422962098
 10
24616.37950422446
 20
38914.183981239265
 10
24620.579535274243
 20
38916.045928346895
 10
27019.48813292026
 20
38916.045928346895
 10
27019.48813292026
 20
31310.676162134958
 10
27021.895769584167
 20
31261.667591970174
 10
27029.095492718654
 20
31213.131001126894
 10
27041.01796505417
 20
31165.53382350772
 10
27057.548366664618
 20
31119.33444595241
 10
27078.527500746073
 20
31074.977793721955
 10
27103.753326768987
 20
31032.891045625154
 10
27132.982906238904
 20
30993.47952005313
 10
27165.934742326994
 20
30957.122771541683
 10
27273.52814630326
 20
30849.529367565417
 10
27309.88489481472
 20
30816.57753147732
 10
27349.29642038673
 20
30787.347952007418
 10
27391.38316848353
 20
30762.12212598451
 10
27435.739820713992
 20
30741.14299190305
 10
27481.939198269305
 20
30724.612590292585
 10
27529.536375888478
 20
30712.690117957078
 10
27578.072966731736
 20
30705.49039482259
 10
27627.081536896527
 20
30703.082758158693
 10
32648.10705578889
 20
30703.082758158693
 10
32697.11562595368
 20
30705.4903948226
 10
32745.652216796967
 20
30712.690117957078
 10
32793.24939441614
 20
30724.6125902926
 10
32839.44877197145
 20
30741.142991903063
 10
32883.80542420191
 20
30762.122125984533
 10
32925.89217229874
 20
30787.347952007447
 10
32965.30369787075
 20
30816.577531477364
 10
33001.660446382215
 20
30849.52936756547
 10
33109.25385035845
 20
30957.122771541734
 10
33142.20568644654
 20
30993.47952005318
 10
33171.43526591643
 20
31032.891045625205
 10
33196.66109193931
 20
31074.977793722
 10
33217.64022602077
 20
31119.334445952445
 10
33234.17062763125
 20
31165.53382350775
 10
33246.09309996673
 20
31213.13100112691
 10
33253.29282310122
 20
31261.66759197019
 10
33255.700459765125
 20
31310.676162134958
 10
33255.700459765125
 20
39525.7418842124
 10
38344.44415681771
 20
39525.7418842124
 10
38348.644187867496
 20
39523.87993710477
 10
38392.57265297079
 20
39509.10018548649
 10
38437.680944127875
 20
39498.451562424554
 10
38483.58146363695
 20
39492.025567324534
 10
38529.87980649134
 20
39489.877416220304
 10
40323.10320609578
 20
39489.877416220304
 10
40372.11177626057
 20
39492.28505288421
 10
40420.64836710386
 20
39499.48477601869
 10
40468.24554472303
 20
39511.40724835421
 10
40514.444922278344
 20
39527.937649964675
 10
40558.801574508805
 20
39548.916784046145
 10
40600.888322605635
 20
39574.14261006906
 10
40640.299848177645
 20
39603.372189538975
 10
40676.65659668911
 20
39636.32402562708
 10
40784.25000066534
 20
39743.917429603345
 10
40817.20183675343
 20
39780.27417811479
 10
40846.43141622332
 20
39819.68570368682
 10
40871.657242246205
 20
39861.77245178361
 10
40892.63637632766
 20
39906.12910401406
 10
40909.16677793814
 20
39952.32848156936
 10
40921.089250273624
 20
39999.92565918852
 10
40928.28897340811
 20
40048.4622500318
 10
40930.69661007202
 20
40097.47082019657
 10
40930.69661007202
 20
44359.22920154189
 10
40932.55855717964
 20
44363.429232591654
 10
40947.338308797946
 20
44407.35769769494
 10
40957.986931859865
 20
44452.46598885204
 10
40964.41292695989
 20
44498.36650836112
 10
40966.561078064115
 20
44544.66485121551
 10
40966.561078064115
 20
48455.99441424236
 10
80601.00331310011
 20
48455.99441424236
 10
80601.00331310011
 20
30806.47105835649
 10
62630.80229717467
 20
30806.47105835649
 10
62581.79372700991
 20
30804.06342169259
 10
62533.25713616662
 20
30796.863698558103
 10
62485.65995854745
 20
30784.941226222596
 10
62439.46058099216
 20
30768.41082461214
 10
62395.1039287617
 20
30747.431690530684
 10
62353.0171806649
 20
30722.205864507785
 10
62313.60565509289
 20
30692.97628503789
 10
62277.24890658143
 20
30660.024448949807
 10
62169.655502605136
 20
30552.431044973542
 10
62136.703666517045
 20
30516.074296462088
 10
62107.47408704713
 20
30476.662770890063
 10
62082.248261024215
 20
30434.576022793255
 10
62061.26912694273
 20
30390.219370562794
 10
62044.73872533228
 20
30344.019993007474
 10
62032.81625299677
 20
30296.4228153883
 10
62025.61652986228
 20
30247.886224545007
 10
62023.208893198374
 20
30198.877654380223
 10
62023.208893198374
 20
25498.529795527425
 10
59008.49102997375
 20
25498.529795527425
 10
58959.48245980899
 20
25496.122158863524
 10
58910.945868965704
 20
25488.922435729044
 10
58863.34869134653
 20
25476.999963393537
 10
58817.14931379125
 20
25460.46956178308
 10
58772.79266156079
 20
25439.49042770162
 10
58730.705913463986
 20
25414.264601678722
 10
58691.294387891976
 20
25385.035022208827
 10
58654.937639380514
 20
25352.083186120748
 10
58547.34423540422
 20
25244.489782144483
 10
58514.39239931613
 20
25208.133033633025
 10
58485.16281984621
 20
25168.721508060997
 10
58459.9369938233
 20
25126.634759964192
 10
58438.957859741815
 20
25082.27810773373
 10
58422.427458131366
 20
25036.07873017841
 10
58410.50498579585
 20
24988.48155255924
 10
58403.305262661364
 20
24939.944961715948
 10
58400.89762599746
 20
24890.93639155116
 10
58400.89762599746
 20
18361.50066510186
 10
58219.4727341478
 20
18361.50066510186
 10
58170.46416398301
 20
18359.093028437957
 10
58121.92757313975
 20
18351.893305303474
 10
58074.33039552058
 20
18339.970832967963
 10
58028.131017965265
 20
18323.440431357503
 10
57983.774365734804
 20
18302.461297276037
 10
57941.687617638
 20
18277.235471253134
 10
57902.27609206599
 20
18248.005891783232
 10
57865.91934355453
 20
18215.054055695135
 10
57758.325939578266
 20
18107.46065171887
 10
57725.374103490176
 20
18071.10390320742
 10
57696.14452402026
 20
18031.692377635398
 10
57670.918697997346
 20
17989.605629538597
 10
57660.2230194179
 20
17966.99151718889
 10
41865.27532975556
 20
17966.99151718889
 10
41816.26675959077
 20
17964.583880524988
 10
41767.73016874751
 20
17957.384157390505
 10
41720.13299112834
 20
17945.461685054994
 10
41673.93361357303
 20
17928.931283444534
 10
41629.576961342565
 20
17907.952149363067
 10
41587.490213245765
 20
17882.726323340165
 10
41548.078687673755
 20
17853.496743870262
 10
41511.72193916229
 20
17820.544907782165
 10
41404.12853518603
 20
17712.9515038059
 10
41371.17669909794
 20
17676.59475529445
 10
41341.94711962802
 20
17637.18322972243
 10
41316.72129360511
 20
17595.096481625627
 10
41295.74215952365
 20
17550.73982939517
 10
41279.2117579132
 20
17504.540451839857
 10
41267.28928557769
 20
17456.94327422069
 10
41260.0895624432
 20
17408.406683377405
 10
41257.681925779296
 20
17359.398113212625
 10
41257.681925779296
 20
15817.22598955283
 10
41259.83007688352
 20
15770.927646698445
 10
41266.256071983546
 20
15725.027127189369
 10
41276.904695045465
 20
15679.91883603227
 10
41291.68444666377
 20
15635.990370928987
 10
41293.546393771394
 20
15631.790339879226
 10
41293.546393771394
 20
13521.900038059179
 10
41295.694544875616
 20
13475.60169520483
 10
41302.12053997564
 20
13429.701175695784
 10
41312.769163037534
 20
13384.592884538717
 10
41327.54891465581
 20
13340.664419435463
 10
41329.41086176346
 20
13336.464388385633
 10
41329.41086176346
 20
12661.152806249065
 10
41331.81849842737
 20
12612.144236084285
 10
41339.018221561855
 20
12563.607645241002
 10
41350.94069389737
 20
12516.010467621833
 10
41367.47109550782
 20
12469.81109006652
 10
41388.450229589274
 20
12425.454437836062
 10
41413.67605561219
 20
12383.367689739262
 10
41442.905635082105
 20
12343.956164167237
 10
41475.857471170195
 20
12307.59941565579
 10
41583.45087514646
 20
12200.006011679525
 10
41619.80762365792
 20
12167.054175591427
 10
41659.21914922993
 20
12137.824596121525
 10
41701.30589732673
 20
12112.598770098622
 10
41745.66254955719
 20
12091.619636017156
 10
41791.861927112506
 20
12075.089234406696
 10
41839.45910473168
 20
12063.166762071185
 10
41887.99569557494
 20
12055.967038936702
 10
41937.00426573973
 20
12053.5594022728
 10
52734.311683247535
 20
12053.5594022728
 10
52734.311683247535
 20
-14846.894143682624
 10
52736.71931991144
 20
-14895.902713847405
 10
52743.91904304593
 20
-14944.43930469069
 10
52755.84151538144
 20
-14992.036482309857
 10
52772.37191699189
 20
-15038.235859865172
 10
52793.35105107335
 20
-15082.592512095625
 10
52818.57687709626
 20
-15124.679260192428
 10
52847.80645656618
 20
-15164.090785764449
 10
52880.75829265427
 20
-15200.447534275898
 10
52988.35169663053
 20
-15308.040938252163
 10
53024.708445141994
 20
-15340.99277434026
 10
53064.119970714004
 20
-15370.222353810164
 10
53106.206718810805
 20
-15395.448179833069
 10
53150.563371041266
 20
-15416.427313914533
 10
53196.76274859658
 20
-15432.957715524994
 10
53244.35992621575
 20
-15444.880187860505
 10
53292.89651705901
 20
-15452.079910994988
 10
53341.9050872238
 20
-15454.48754765889
 10
53559.19444706556
 20
-15454.48754765889
 10
53559.19444706556
 20
-23241.282205720512
 10
42758.21799185313
 20
-23241.282205720512
 10
42757.6363265643
 20
-23228.745778969016
 10
42751.2103314643
 20
-23182.845259459973
 10
42740.56170840238
 20
-23137.73696830291
 10
42725.78195678411
 20
-23093.808503199656
 10
42723.920009676454
 20
-23089.608472149826
 10
42723.920009676454
 20
-21051.44710631389
 10
42721.77185857223
 20
-21005.14876345951
 10
42715.345863472205
 20
-20959.24824395043
 10
42704.697240410285
 20
-20914.139952793335
 10
42689.91748879198
 20
-20870.211487690052
 10
42688.055541684356
 20
-20866.01145664029
 10
42688.055541684356
 20
-20011.37753454333
 10
42685.64790502045
 20
-19962.368964378555
 10
42678.448181885964
 20
-19913.832373535268
 10
42666.52570955045
 20
-19866.235195916102
 10
42649.99530794
 20
-19820.035818360786
 10
42629.016173858545
 20
-19775.679166130332
 10
42603.79034783563
 20
-19733.592418033528
 10
42574.560768365714
 20
-19694.180892461507
 10
42541.608932277624
 20
-19657.82414395006
 10
42434.01552830136
 20
-19550.230739973795
 10
42397.6587797899
 20
-19517.278903885697
 10
42358.24725421789
 20
-19488.04932441579
 10
42316.16050612109
 20
-19462.82349839289
 10
42271.803853890626
 20
-19441.844364311422
 10
42225.60447633531
 20
-19425.313962700966
 10
42178.00729871614
 20
-19413.39149036545
 10
42129.47070787288
 20
-19406.191767230972
 10
42080.46213770809
 20
-19403.784130567066
 10
-21760.39344009824
 20
-19403.784130567066
 10
-21760.39344009824
 20
-15456.590099548124
 10
-21762.541591202462
 20
-15410.291756693741
 10
-21768.96758630249
 20
-15364.391237184665
 10
-21779.61620936441
 20
-15319.282946027568
 10
-21794.395960982714
 20
-15275.354480924285
 10
-21796.257908090338
 20
-15271.154449874524
 10
-21796.257908090338
 20
-14022.011379864594
 10
-21798.40605919456
 20
-13975.713037010246
 10
-21804.832054294588
 20
-13929.812517501203
 10
-21815.480677356478
 20
-13884.704226344136
 10
-21830.260428974754
 20
-13840.77576124088
 10
-21832.122376082407
 20
-13836.575730191049
 10
-21832.122376082407
 20
-13017.806276086125
 10
-21834.530012746312
 20
-12968.797705921344
 10
-21841.7297358808
 20
-12920.26111507806
 10
-21853.652208216314
 20
-12872.663937458892
 10
-21870.182609826763
 20
-12826.46455990358
 10
-21891.16174390822
 20
-12782.107907673124
 10
-21916.387569931132
 20
-12740.021159576321
 10
-21945.61714940105
 20
-12700.6096340043
 10
-21978.56898548914
 20
-12664.252885492851
 10
-22086.162389465404
 20
-12556.659481516586
 10
-22122.519137976866
 20
-12523.707645428489
 10
-22161.930663548876
 20
-12494.478065958585
 10
-22204.017411645676
 20
-12469.252239935682
 10
-22248.374063876137
 20
-12448.273105854216
 10
-22294.57344143145
 20
-12431.742704243756
 10
-22342.170619050623
 20
-12419.820231908245
 10
-22390.70720989388
 20
-12412.620508773762
 10
-22439.715780058672
 20
-12410.21287210986
 10
-25275.11130332289
 20
-12410.21287210986
 10
-25275.11130332289
 20
-10182.410752821917
 10
-25057.821943481133
 20
-10182.410752821917
 10
-25008.81337331637
 20
-10180.003116158015
 10
-24960.276782473084
 20
-10172.803393023536
 10
-24912.67960485391
 20
-10160.880920688029
 10
-24866.480227298627
 20
-10144.350519077572
 10
-24822.123575068166
 20
-10123.371384996113
 10
-24780.036826971365
 20
-10098.145558973214
 10
-24740.625301399356
 20
-10068.91597950332
 10
-24704.268552887894
 20
-10035.96414341524
 10
-24596.6751489116
 20
-9928.370739438975
 10
-24563.72331282351
 20
-9892.013990927515
 10
-24534.493733353593
 20
-9852.602465355489
 10
-24509.26790733068
 20
-9810.515717258684
 10
-24488.288773249194
 20
-9766.159065028223
 10
-24471.758371638745
 20
-9719.959687472903
 10
-24459.83589930323
 20
-9672.36250985373
 10
-24452.636176168744
 20
-9623.82591901044
 10
-24450.22853950484
 20
-9574.817348845652
 10
-24450.22853950484
 20
-9538.952880853563
 10
-24452.37669060906
 20
-9492.65453799918
 10
-24458.802685709088
 20
-9446.754018490104
 10
-24469.451308771007
 20
-9401.645727333007
 10
-24484.231060389313
 20
-9357.717262229726
 10
-24486.093007496936
 20
-9353.517231179965
 10
-24486.093007496936
 20
-9180.30820093268
 10
-24488.24115860116
 20
-9134.009858078298
 10
-24494.667153701186
 20
-9088.109338569222
 10
-24505.315776763106
 20
-9043.001047412125
 10
-24520.09552838141
 20
-8999.072582308843
 10
-24521.957475489035
 20
-8994.872551259083
 10
-24521.957475489035
 20
-8821.663521011798
 10
-24524.105626593257
 20
-8775.365178157415
 10
-24530.531621693284
 20
-8729.46465864834
 10
-24541.180244755204
 20
-8684.356367491242
 10
-24555.95999637351
 20
-8640.42790238796
 10
-24557.821943481133
 20
-8636.2278713382
 10
-24557.821943481133
 20
-8463.018841090916
 10
-24559.970094585355
 20
-8416.720498236567
 10
-24566.396089685382
 20
-8370.819978727523
 10
-24577.044712747273
 20
-8325.711687570458
 10
-24591.82446436555
 20
-8281.783222467202
 10
-24593.6864114732
 20
-8277.583191417372
 10
-24593.6864114732
 20
-8104.374161170033
 10
-24595.834562577424
 20
-8058.07581831565
 10
-24602.26055767745
 20
-8012.175298806575
 10
-24612.90918073937
 20
-7967.067007649477
 10
-24627.688932357676
 20
-7923.138542546195
 10
-24629.5508794653
 20
-7918.938511496434
 10
-24629.5508794653
 20
-7745.729481249151
 10
-24631.69903056952
 20
-7699.4311383948025
 10
-24638.12502566955
 20
-7653.5306188857585
 10
-24648.77364873144
 20
-7608.422327728693
 10
-24663.553400349716
 20
-7564.493862625438
 10
-24665.41534745737
 20
-7560.293831575607
 10
-24665.41534745737
 20
-7387.08480132827
 10
-24667.56349856159
 20
-7340.786458473889
 10
-24673.98949366162
 20
-7294.885938964813
 10
-24684.638116723538
 20
-7249.777647807717
 10
-24699.417868341843
 20
-7205.8491827044345
 10
-24701.279815449467
 20
-7201.649151654674
 10
-24701.279815449467
 20
-7028.440121407388
 10
-24703.42796655369
 20
-6982.141778553007
 10
-24709.853961653716
 20
-6936.241259043931
 10
-24720.502584715636
 20
-6891.132967886834
 10
-24735.28233633394
 20
-6847.204502783552
 10
-24737.144283441565
 20
-6843.004471733791
 10
-24737.144283441565
 20
-6669.795441486505
 10
-24739.292434545787
 20
-6623.497098632124
 10
-24745.718429645814
 20
-6577.596579123048
 10
-24756.367052707734
 20
-6532.488287965952
 10
-24771.14680432604
 20
-6488.5598228626695
 10
-24773.008751433663
 20
-6484.359791812909
 10
-24773.008751433663
 20
-6311.150761565623
 10
-24775.156902537885
 20
-6264.852418711274
 10
-24781.582897637883
 20
-6218.951899202232
 10
-24792.231520699803
 20
-6173.843608045167
 10
-24807.01127231808
 20
-6129.915142941913
 10
-24808.87321942573
 20
-6125.715111892083
 10
-24808.87321942573
 20
-5952.50608164474
 10
-24811.021370529954
 20
-5906.207738790359
 10
-24817.44736562998
 20
-5860.307219281283
 10
-24828.0959886919
 20
-5815.198928124187
 10
-24842.875740310206
 20
-5771.270463020905
 10
-24844.73768741783
 20
-5767.070431971144
 10
-24844.73768741783
 20
-5593.861401723858
 10
-24846.885838522052
 20
-5547.563058869509
 10
-24853.31183362205
 20
-5501.662539360467
 10
-24863.96045668397
 20
-5456.554248203402
 10
-24878.740208302246
 20
-5412.625783100148
 10
-24880.6021554099
 20
-5408.425752050318
 10
-24880.6021554099
 20
-5235.216721802972
 10
-24882.75030651412
 20
-5188.918378948589
 10
-24889.17630161415
 20
-5143.017859439512
 10
-24899.824924676068
 20
-5097.909568282414
 10
-24914.604676294373
 20
-5053.98110317913
 10
-24916.466623401997
 20
-5049.781072129369
 10
-24916.466623401997
 20
-4876.572041882089
 10
-24918.61477450622
 20
-4830.273699027706
 10
-24925.040769606247
 20
-4784.373179518629
 10
-24935.689392668166
 20
-4739.264888361531
 10
-24950.46914428647
 20
-4695.336423258248
 10
-24952.331091394095
 20
-4691.1363922084865
 10
-24952.331091394095
 20
-4517.927361961207
 10
-24954.479242498317
 20
-4471.629019106824
 10
-24960.905237598345
 20
-4425.728499597746
 10
-24971.553860660264
 20
-4380.620208440649
 10
-24986.33361227857
 20
-4336.691743337366
 10
-24988.195559386193
 20
-4332.491712287605
 10
-24988.195559386193
 20
-4159.282682040324
 10
-24990.343710490415
 20
-4112.984339185975
 10
-24996.769705590443
 20
-4067.0838196769305
 10
-25007.418328652333
 20
-4021.9755285198635
 10
-25022.19808027061
 20
-3978.0470634166086
 10
-25024.060027378262
 20
-3973.8470323667775
 10
-25024.060027378262
 20
-3800.638002119442
 10
-25026.208178482484
 20
-3754.339659265059
 10
-25032.63417358251
 20
-3708.4391397559816
 10
-25043.28279664443
 20
-3663.3308485988837
 10
-25058.062548262737
 20
-3619.4023834956
 10
-25059.92449537036
 20
-3615.2023524458396
 10
-25059.92449537036
 20
-3441.9933221985593
 10
-25062.072646474582
 20
-3395.69497934421
 10
-25068.49864157461
 20
-3349.7944598351655
 10
-25079.1472646365
 20
-3304.6861686780985
 10
-25093.927016254776
 20
-3260.7577035748436
 10
-25095.78896336243
 20
-3256.5576725250125
 10
-25095.78896336243
 20
-3083.348642277677
 10
-25097.93711446665
 20
-3037.050299423294
 10
-25104.36310956668
 20
-2991.1497799142167
 10
-25115.011732628598
 20
-2946.0414887571187
 10
-25129.791484246904
 20
-2902.113023653835
 10
-25131.653431354527
 20
-2897.9129926040746
 10
-25131.653431354527
 20
-2724.7039623567944
 10
-25133.80158245875
 20
-2678.405619502411
 10
-25140.227577558777
 20
-2632.505099993334
 10
-25150.876200620696
 20
-2587.3968088362362
 10
-25165.655952239
 20
-2543.4683437329527
 10
-25167.517899346625
 20
-2539.268312683192
 10
-25167.517899346625
 20
-2366.059282435912
 10
-25169.666050450847
 20
-2319.7609395815284
 10
-25176.092045550875
 20
-2273.8604200724517
 10
-25186.740668612794
 20
-2228.7521289153538
 10
-25201.5204202311
 20
-2184.82366381207
 10
-25203.382367338723
 20
-2180.6236327623096
 10
-25203.382367338723
 20
-2007.4146025150294
 10
-25205.530518442945
 20
-1961.1162596606796
 10
-25211.956513542973
 20
-1915.2157401516356
 10
-25222.605136604863
 20
-1870.1074489945686
 10
-25237.38488822314
 20
-1826.1789838913137
 10
-25239.246835330792
 20
-1821.9789528414826
 10
-25239.246835330792
 20
-1648.769922594147
 10
-25241.394986435014
 20
-1602.4715797397635
 10
-25247.820981535042
 20
-1556.5710602306867
 10
-25258.46960459696
 20
-1511.4627690735888
 10
-25273.249356215267
 20
-1467.5343039703052
 10
-25275.11130332289
 20
-1463.3342729205447
 10
-25275.11130332289
 20
-1290.1252426732644
 10
-25277.259454427112
 20
-1243.8268998189146
 10
-25283.68544952714
 20
-1197.9263803098706
 10
-25294.33407258903
 20
-1152.8180891528036
 10
-25309.113824207307
 20
-1108.8896240495487
 10
-25310.97577131496
 20
-1104.6895929997177
 10
-25310.97577131496
 20
-931.480562752382
 10
-25313.12392241918
 20
-885.182219897999
 10
-25319.54991751921
 20
-839.2817003889222
 10
-25330.19854058113
 20
-794.1734092318238
 10
-25344.978292199434
 20
-750.2449441285398
 10
-25346.840239307057
 20
-746.0449130787792
 10
-25346.840239307057
 20
-572.8358828314995
 10
-25348.98839041128
 20
-526.5375399771165
 10
-25355.414385511307
 20
-480.63702046803974
 10
-25366.063008573226
 20
-435.52872931094134
 10
-25380.842760191532
 20
-391.60026420765735
 10
-25382.704707299155
 20
-387.40023315789676
 10
-25382.704707299155
 20
-214.191202910617
 10
-25384.852858403377
 20
-167.89286005623399
 10
-25391.278853503405
 20
-121.99234054715726
 10
-25401.927476565324
 20
-76.88404939005886
 10
-25416.70722818363
 20
-32.955584286774865
 10
-25418.569175291253
 20
-28.755553237014283
 10
-25418.569175291253
 20
144.4534770102655
 10
-25420.717326395476
 20
190.75181986461484
 10
-25427.143321495503
 20
236.65233937365883
 10
-25437.791944557393
 20
281.7606305307263
 10
-25452.57169617567
 20
325.6890956339812
 10
-25454.433643283322
 20
329.8891266838118
 10
-25454.433643283322
 20
503.09815693114797
 10
-25456.581794387545
 20
549.396499785531
 10
-25463.007789487572
 20
595.2970192946077
 10
-25473.65641254949
 20
640.4053104517061
 10
-25488.436164167797
 20
684.3337755549901
 10
-25490.29811127542
 20
688.5338066047507
 10
-25490.29811127542
 20
861.7428368520305
 10
-25492.446262379643
 20
908.0411797063798
 10
-25498.87225747967
 20
953.9416992154238
 10
-25509.52088054156
 20
999.0499903724913
 10
-25524.300632159837
 20
1042.9784554757462
 10
-25526.16257926749
 20
1047.1784865255768
 10
-25526.16257926749
 20
1220.387516772913
 10
-25528.31073037171
 20
1266.685859627296
 10
-25534.73672547174
 20
1312.5863791363727
 10
-25545.38534853366
 20
1357.694670293471
 10
-25560.165100151964
 20
1401.623135396755
 10
-25562.027047259588
 20
1405.8231664465156
 10
-25562.027047259588
 20
1579.0321966937954
 10
-25564.17519836381
 20
1625.3305395481784
 10
-25570.601193463837
 20
1671.2310590572552
 10
-25581.249816525757
 20
1716.3393502143535
 10
-25596.029568144062
 20
1760.2678153176375
 10
-25597.891515251686
 20
1764.4678463673981
 10
-25597.891515251686
 20
1937.676876614678
 10
-25600.039666355908
 20
1983.975219469061
 10
-25606.465661455935
 20
2029.8757389781376
 10
-25617.114284517855
 20
2074.984030135236
 10
-25631.89403613616
 20
2118.91249523852
 10
-25633.755983243784
 20
2123.1125262882806
 10
-25633.755983243784
 20
2296.3215565355604
 10
-25635.904134348006
 20
2342.6198993899097
 10
-25642.330129448033
 20
2388.5204188989537
 10
-25652.978752509924
 20
2433.628710056021
 10
-25667.7585041282
 20
2477.557175159276
 10
-25669.620451235853
 20
2481.7572062091067
 10
-25669.620451235853
 20
2654.966236456443
 10
-25671.768602340075
 20
2701.264579310826
 10
-25678.194597440102
 20
2747.1650988199026
 10
-25688.84322050202
 20
2792.273389977001
 10
-25703.622972120327
 20
2836.201855080285
 10
-25705.48491922795
 20
2840.4018861300456
 10
-25705.48491922795
 20
3013.6109163773253
 10
-25707.633070332173
 20
3059.9092592316747
 10
-25714.0590654322
 20
3105.8097787407187
 10
-25724.70768849409
 20
3150.9180698977852
 10
-25739.487440112367
 20
3194.846535001041
 10
-25741.34938722002
 20
3199.0465660508726
 10
-25741.34938722002
 20
3372.255596298208
 10
-25743.49753832424
 20
3418.553939152591
 10
-25749.92353342427
 20
3464.4544586616685
 10
-25760.57215648619
 20
3509.562749818766
 10
-25775.351908104494
 20
3553.491214922049
 10
-25777.213855212118
 20
3557.6912459718096
 10
-25777.213855212118
 20
3730.9002762190903
 10
-25779.36200631634
 20
3777.1986190734733
 10
-25785.788001416367
 20
3823.099138582551
 10
-25796.436624478287
 20
3868.2074297396484
 10
-25811.216376096592
 20
3912.1358948429315
 10
-25813.078323204216
 20
3916.335925892692
 10
-25813.078323204216
 20
4089.544956139973
 10
-25815.226474308438
 20
4135.843298994356
 10
-25821.652469408466
 20
4181.743818503433
 10
-25832.301092470385
 20
4226.852109660531
 10
-25847.08084408869
 20
4270.780574763814
 10
-25848.942791196314
 20
4274.980605813575
 10
-25848.942791196314
 20
4448.189636060855
 10
-25851.090942300536
 20
4494.4879789152055
 10
-25857.516937400564
 20
4540.388498424249
 10
-25868.165560462454
 20
4585.496789581315
 10
-25882.94531208073
 20
4629.425254684571
 10
-25884.807259188383
 20
4633.6252857344025
 10
-25884.807259188383
 20
4806.834315981738
 10
-25886.955410292605
 20
4853.132658836121
 10
-25893.381405392633
 20
4899.033178345198
 10
-25904.030028454552
 20
4944.141469502296
 10
-25918.809780072857
 20
4988.069934605579
 10
-25920.67172718048
 20
4992.26996565534
 10
-25920.67172718048
 20
5165.47899590262
 10
-25922.819878284703
 20
5211.7773387569705
 10
-25929.24587338473
 20
5257.677858266014
 10
-25939.89449644662
 20
5302.78614942308
 10
-25954.674248064897
 20
5346.714614526336
 10
-25956.53619517255
 20
5350.9146455761675
 10
-25956.53619517255
 20
5524.123675823503
 10
-25958.684346276772
 20
5570.422018677886
 10
-25965.1103413768
 20
5616.322538186963
 10
-25975.75896443872
 20
5661.430829344061
 10
-25990.538716057024
 20
5705.359294447344
 10
-25992.400663164648
 20
5709.5593254971045
 10
-25992.400663164648
 20
5882.768355744385
 10
-25994.54881426887
 20
5929.066698598768
 10
-26000.974809368898
 20
5974.967218107846
 10
-26011.623432430817
 20
6020.075509264943
 10
-26026.403184049123
 20
6064.003974368226
 10
-26028.265131156746
 20
6068.204005417987
 10
-26028.265131156746
 20
6241.413035665268
 10
-26030.413282260968
 20
6287.711378519651
 10
-26036.839277360996
 20
6333.611898028728
 10
-26047.487900422915
 20
6378.720189185826
 10
-26062.26765204122
 20
6422.648654289109
 10
-26064.129599148844
 20
6426.8486853388695
 10
-26064.129599148844
 20
6600.05771558615
 10
-26066.277750253066
 20
6646.3560584405
 10
-26072.703745353094
 20
6692.2565779495435
 10
-26083.352368414984
 20
6737.36486910661
 10
-26098.13212003326
 20
6781.293334209866
 10
-26099.994067140913
 20
6785.493365259697
 10
-26099.994067140913
 20
6958.702395507033
 10
-26102.142218245135
 20
7005.000738361416
 10
-26108.568213345163
 20
7050.901257870493
 10
-26119.216836407082
 20
7096.009549027591
 10
-26133.996588025388
 20
7139.938014130874
 10
-26135.85853513301
 20
7144.138045180634
 10
-26135.85853513301
 20
7317.347075427915
 10
-26138.006686237233
 20
7363.645418282265
 10
-26144.43268133726
 20
7409.5459377913085
 10
-26155.08130439915
 20
7454.654228948375
 10
-26169.861056017427
 20
7498.582694051631
 10
-26171.72300312508
 20
7502.782725101462
 10
-26171.72300312508
 20
7675.991755348798
 10
-26173.871154229302
 20
7722.290098203181
 10
-26180.29714932933
 20
7768.190617712258
 10
-26190.94577239125
 20
7813.298908869356
 10
-26205.725524009555
 20
7857.227373972639
 10
-26207.58747111718
 20
7861.427405022399
 10
-26207.58747111718
 20
8034.63643526968
 10
-26209.7356222214
 20
8080.934778124063
 10
-26216.161617321428
 20
8126.835297633141
 10
-26226.810240383347
 20
8171.943588790238
 10
-26241.589992001653
 20
8215.872053893521
 10
-26243.451939109276
 20
8220.072084943282
 10
-26243.451939109276
 20
8393.281115190563
 10
-26245.6000902135
 20
8439.579458044946
 10
-26252.026085313526
 20
8485.479977554023
 10
-26262.674708375445
 20
8530.58826871112
 10
-26277.45445999375
 20
8574.516733814404
 10
-26279.316407101374
 20
8578.716764864164
 10
-26279.316407101374
 20
8751.925795111445
 10
-26281.464558205596
 20
8798.224137965795
 10
-26287.890553305624
 20
8844.124657474838
 10
-26298.539176367514
 20
8889.232948631905
 10
-26313.31892798579
 20
8933.16141373516
 10
-26325.921890192636
 20
8961.590165750187
 10
-26336.71070722735
 20
9004.661537714943
 10
-26353.2411088378
 20
9050.860915270257
 10
-26374.220242919255
 20
9095.217567500711
 10
-26399.44606894217
 20
9137.304315597514
 10
-26428.675648412085
 20
9176.715841169536
 10
-26461.627484500175
 20
9213.072589680984
 10
-26569.22088847644
 20
9320.665993657249
 10
-26605.577636987902
 20
9353.617829745346
 10
-26644.989162559912
 20
9382.84740921525
 10
-26687.075910656713
 20
9408.073235238155
 10
-26731.432562887174
 20
9429.05236931962
 10
-26777.631940442487
 20
9445.58277093008
 10
-26825.22911806166
 20
9457.50524326559
 10
-26873.765708904917
 20
9464.704966400073
 10
-26922.77427906971
 20
9467.112603063975
 10
-28021.395647426543
 20
9467.112603063975
 10
-28034.813391606032
 20
9506.992901608673
 10
-28036.675338713685
 20
9511.1929326585
 10
-28036.675338713685
 20
10114.7755788108
 10
-28038.823489817907
 20
10161.073921665151
 10
-28045.249484917935
 20
10206.974441174194
 10
-28055.898107979825
 20
10252.08273233126
 10
-28070.6778595981
 20
10296.011197434516
 10
-28072.539806705754
 20
10300.211228484348
 10
-28072.539806705754
 20
10903.79387463674
 10
-28074.687957809976
 20
10950.092217491123
 10
-28081.113952910004
 20
10995.9927370002
 10
-28091.762575971923
 20
11041.101028157298
 10
-28106.54232759023
 20
11085.029493260581
 10
-28108.404274697852
 20
11089.229524310342
 10
-28108.404274697852
 20
11728.67663845477
 10
-28110.552425802074
 20
11774.974981309155
 10
-28116.9784209021
 20
11820.87550081823
 10
-28127.62704396402
 20
11865.98379197533
 10
-28142.406795582327
 20
11909.912257078613
 10
-28144.26874268995
 20
11914.112288128374
 10
-28144.26874268995
 20
12517.69493428071
 10
-28146.416893794172
 20
12563.993277135094
 10
-28152.8428888942
 20
12609.89379664417
 10
-28163.49151195612
 20
12655.00208780127
 10
-28178.271263574425
 20
12698.930552904552
 10
-28180.13321068205
 20
12703.130583954313
 10
-28180.13321068205
 20
13306.713230106656
 10
-28182.28136178627
 20
13353.011572961004
 10
-28188.707356886298
 20
13398.912092470051
 10
-28199.355979948188
 20
13444.020383627118
 10
-28214.135731566465
 20
13487.948848730372
 10
-28215.997678674117
 20
13492.148879780201
 10
-28215.997678674117
 20
14131.595993924679
 10
-28218.14582977834
 20
14177.894336779056
 10
-28224.571824878367
 20
14223.794856288128
 10
-28235.220447940286
 20
14268.90314744522
 10
-28250.000199558563
 20
14312.8316125485
 10
-28251.862146666215
 20
14317.031643598326
 10
-28251.862146666215
 20
14920.614289750625
 10
-28254.010297770437
 20
14966.912632604974
 10
-28260.436292870465
 20
15012.81315211402
 10
-28271.084915932355
 20
15057.921443271087
 10
-28285.86466755063
 20
15101.84990837434
 10
-28287.726614658284
 20
15106.04993942417
 10
-28287.726614658284
 20
15745.497053568655
 10
-28289.874765762506
 20
15791.79539642304
 10
-28296.300760862534
 20
15837.695915932116
 10
-28306.949383924453
 20
15882.804207089215
 10
-28321.72913554276
 20
15926.732672192498
 10
-28323.591082650382
 20
15930.932703242259
 10
-28323.591082650382
 20
16534.515349394595
 10
-28325.739233754604
 20
16580.81369224898
 10
-28332.165228854632
 20
16626.714211758055
 10
-28342.81385191655
 20
16671.822502915154
 10
-28357.593603534857
 20
16715.750968018438
 10
-28359.45555064248
 20
16719.950999068198
 10
-28359.45555064248
 20
17323.533645220534
 10
-28361.603701746702
 20
17369.83198807491
 10
-28368.02969684673
 20
17415.732507583984
 10
-28378.67831990865
 20
17460.840798741076
 10
-28393.458071526926
 20
17504.769263844355
 10
-28395.32001863458
 20
17508.96929489418
 10
-28395.32001863458
 20
18148.416409038564
 10
-28397.4681697388
 20
18194.714751892912
 10
-28403.8941648388
 20
18240.61527140195
 10
-28414.54278790072
 20
18285.723562559015
 10
-28429.322539518995
 20
18329.65202766227
 10
-28431.184486626647
 20
18333.8520587121
 10
-28431.184486626647
 20
18937.43470486451
 10
-28433.33263773087
 20
18983.733047718895
 10
-28439.758632830897
 20
19029.63356722797
 10
-28450.407255892816
 20
19074.74185838507
 10
-28465.187007511122
 20
19118.670323488353
 10
-28467.048954618745
 20
19122.870354538114
 10
-28467.048954618745
 20
19726.45300069045
 10
-28469.197105722968
 20
19772.751343544798
 10
-28475.623100822995
 20
19818.651863053845
 10
-28486.271723884885
 20
19863.76015421091
 10
-28501.05147550316
 20
19907.688619314165
 10
-28502.913422610814
 20
19911.888650363995
 10
-28502.913422610814
 20
20156.82661659551
 10
-28505.061573715037
 20
20203.124959449895
 10
-28511.487568815064
 20
20249.02547895897
 10
-28522.136191876984
 20
20294.13377011607
 10
-28536.91594349529
 20
20338.062235219353
 10
-28555.69982711089
 20
20380.433414345545
 10
-28591.564295102988
 20
20452.16235032972
 10
-28613.979589978873
 20
20492.27207422162
 10
-28639.982281686884
 20
20530.154727494508
 10
-28669.352779014676
 20
20565.490393354597
 10
-28701.84304982808
 20
20597.980664168
 10
-28737.178715688176
 20
20627.35116149577
 10
-28775.06136896106
 20
20653.353853203793
 10
-28814.214684908715
 20
20675.234660079936
 10
-28828.682371978037
 20
20689.702347149258
 10
-28868.559829995822
 20
20725.516917902176
 10
-28912.041920257732
 20
20756.857035365756
 10
-28958.628964821255
 20
20783.36255205589
 10
-29030.357900805422
 20
20819.22702004798
 10
-29095.850815547048
 20
20846.355073573304
 10
-29203.444219523313
 20
20882.219541565388
 10
-29255.128465240094
 20
20896.419326101266
 10
-29308.035755706165
 20
20905.004997403947
 10
-29361.558102531708
 20
20907.877892540124
 10
-29935.38959040513
 20
20907.877892540124
 10
-29981.687933259498
 20
20905.729741435895
 10
-30027.58845276857
 20
20899.303746335878
 10
-30072.696743925655
 20
20888.655123273955
 10
-30116.62520902892
 20
20873.875371655675
 10
-30120.825240078702
 20
20872.01342454804
 10
-30580.950014262722
 20
20872.01342454804
 10
-30627.24835711709
 20
20869.86527344381
 10
-30673.14887662616
 20
20863.439278343794
 10
-30718.257167783275
 20
20852.790655281864
 10
-30762.18563288654
 20
20838.01090366358
 10
-30766.385663936322
 20
20836.14895655595
 10
-31262.37490611238
 20
20836.14895655595
 10
-31308.67324896675
 20
20834.00080545172
 10
-31354.57376847582
 20
20827.574810351703
 10
-31399.682059632934
 20
20816.926187289773
 10
-31443.6105247362
 20
20802.14643567149
 10
-31447.81055578598
 20
20800.28448856386
 10
-31907.935329969972
 20
20800.28448856386
 10
-31954.23367282434
 20
20798.13633745963
 10
-32000.13419233341
 20
20791.710342359613
 10
-32045.242483490496
 20
20781.06171929769
 10
-32089.17094859376
 20
20766.28196767941
 10
-32093.370979643543
 20
20764.420020571775
 10
-32589.36022181966
 20
20764.420020571775
 10
-32635.658564674028
 20
20762.271869467546
 10
-32681.5590841831
 20
20755.84587436753
 10
-32726.667375340214
 20
20745.1972513056
 10
-32770.59584044348
 20
20730.417499687315
 10
-32774.79587149326
 20
20728.555552579684
 10
-33234.92064567725
 20
20728.555552579684
 10
-33281.21898853162
 20
20726.407401475455
 10
-33327.11950804069
 20
20719.98140637544
 10
-33372.227799197804
 20
20709.332783313508
 10
-33416.15626430107
 20
20694.553031695224
 10
-33420.35629535085
 20
20692.691084587594
 10
-33880.48106953484
 20
20692.691084587594
 10
-33926.77941238921
 20
20690.542933483364
 10
-33972.67993189828
 20
20684.116938383348
 10
-34017.788223055366
 20
20673.468315321425
 10
-34061.71668815863
 20
20658.688563703145
 10
-34065.91671920841
 20
20656.82661659551
 10
-34561.9059613845
 20
20656.82661659551
 10
-34608.20430423887
 20
20654.678465491284
 10
-34654.10482374791
 20
20648.25247039127
 10
-34699.213114905
 20
20637.60384732935
 10
-34743.14158000826
 20
20622.82409571108
 10
-34747.3416110581
 20
20620.96214860342
 10
-35207.46638524209
 20
20620.96214860342
 10
-35253.76472809646
 20
20618.813997499194
 10
-35299.6652476055
 20
20612.38800239918
 10
-35344.77353876259
 20
20601.739379337258
 10
-35388.70200386585
 20
20586.95962771899
 10
-35392.90203491569
 20
20585.09768061133
 10
-35888.89127709178
 20
20585.09768061133
 10
-35935.18961994615
 20
20582.9495295071
 10
-35981.09013945522
 20
20576.523534407082
 10
-36026.198430612305
 20
20565.87491134516
 10
-36070.12689571557
 20
20551.09515972688
 10
-36074.32692676535
 20
20549.233212619245
 10
-36534.45170094937
 20
20549.233212619245
 10
-36580.75004380374
 20
20547.085061515016
 10
-36626.65056331281
 20
20540.659066415
 10
-36671.758854469925
 20
20530.01044335307
 10
-36715.68731957319
 20
20515.230691734785
 10
-36719.88735062297
 20
20513.368744627154
 10
-37215.87659279903
 20
20513.368744627154
 10
-37262.1749356534
 20
20511.220593522925
 10
-37308.07545516247
 20
20504.794598422908
 10
-37353.183746319584
 20
20494.145975360978
 10
-37397.11221142285
 20
20479.366223742694
 10
-37401.31224247263
 20
20477.504276635063
 10
-37861.43701665662
 20
20477.504276635063
 10
-37907.73535951099
 20
20475.356125530834
 10
-37953.63587902006
 20
20468.930130430817
 10
-37998.744170177146
 20
20458.281507368894
 10
-38042.67263528041
 20
20443.501755750614
 10
-38046.87266633019
 20
20441.63980864298
 10
-38506.99744051421
 20
20441.63980864298
 10
-38553.29578336858
 20
20439.49165753875
 10
-38599.19630287765
 20
20433.065662438734
 10
-38644.304594034766
 20
20422.417039376804
 10
-38688.23305913803
 20
20407.63728775852
 10
-38692.43309018781
 20
20405.77534065089
 10
-39188.4223323639
 20
20405.77534065089
 10
-39234.72067521827
 20
20403.62718954666
 10
-39280.62119472734
 20
20397.201194446643
 10
-39325.729485884425
 20
20386.55257138472
 10
-39369.65795098769
 20
20371.77281976644
 10
-39373.85798203747
 20
20369.910872658806
 10
-39833.98275622149
 20
20369.910872658806
 10
-39880.28109907586
 20
20367.762721554576
 10
-39926.18161858493
 20
20361.33672645456
 10
-39971.289909742045
 20
20350.68810339263
 10
-40015.21837484531
 20
20335.908351774346
 10
-40019.41840589509
 20
20334.046404666715
 10
-40515.40764807115
 20
20334.046404666715
 10
-40561.70599092552
 20
20331.89825356249
 10
-40607.60651043456
 20
20325.472258462476
 10
-40652.71480159165
 20
20314.823635400553
 10
-40696.64326669491
 20
20300.043883782284
 10
-40700.84329774475
 20
20298.181936674624
 10
-41160.96807192874
 20
20298.181936674624
 10
-41207.26641478311
 20
20296.033785570395
 10
-41253.16693429218
 20
20289.607790470378
 10
-41298.275225449266
 20
20278.959167408455
 10
-41342.20369055253
 20
20264.179415790175
 10
-41346.40372160231
 20
20262.31746868254
 10
-41806.52849578633
 20
20262.31746868254
 10
-41852.8268386407
 20
20260.16931757831
 10
-41898.72735814977
 20
20253.743322478294
 10
-41943.835649306886
 20
20243.094699416364
 10
-41987.76411441015
 20
20228.31494779808
 10
-41991.96414545993
 20
20226.45300069045
 10
-42487.95338763602
 20
20226.45300069045
 10
-42534.25173049039
 20
20224.30484958622
 10
-42580.15224999946
 20
20217.878854486204
 10
-42625.260541156575
 20
20207.230231424273
 10
-42669.18900625984
 20
20192.45047980599
 10
-42673.38903730962
 20
20190.58853269836
 10
-43133.51381149361
 20
20190.58853269836
 10
-43179.81215434798
 20
20188.44038159413
 10
-43225.71267385705
 20
20182.014386494113
 10
-43270.820965014136
 20
20171.36576343219
 10
-43314.7494301174
 20
20156.58601181391
 10
-43318.94946116718
 20
20154.724064706275
 10
-43994.26104330373
 20
20154.724064706275
 10
-44040.5593861581
 20
20152.575913602046
 10
-44086.45990566717
 20
20146.14991850203
 10
-44131.568196824286
 20
20135.5012954401
 10
-44175.49666192755
 20
20120.721543821815
 10
-44179.69669297733
 20
20118.859596714185
 10
-44819.143807121756
 20
20118.859596714185
 10
-44865.44214997618
 20
20116.711445609955
 10
-44911.342669485224
 20
20110.28545050993
 10
-44956.45096064234
 20
20099.636827447994
 10
-45000.37942574566
 20
20084.857075829696
 10
-45004.579456795385
 20
20082.995128722094
 10
-45464.70423097935
 20
20082.995128722094
 10
-45511.00257383371
 20
20080.846977617868
 10
-45556.90309334276
 20
20074.420982517855
 10
-45602.01138449981
 20
20063.772359455936
 10
-45645.93984960308
 20
20048.992607837663
 10
-45650.13988065292
 20
20047.13066073001
 10
-46110.26465483694
 20
20047.13066073001
 10
-46156.56299769136
 20
20044.98250962578
 10
-46202.463517200405
 20
20038.556514525757
 10
-46247.57180835752
 20
20027.90789146382
 10
-46291.50027346084
 20
20013.12813984552
 10
-46295.70030451057
 20
20011.26619273792
 10
-46755.82507869453
 20
20011.26619273792
 10
-46802.12342154895
 20
20009.11804163369
 10
-46848.023941057996
 20
20002.692046533666
 10
-46893.13223221511
 20
19992.04342347173
 10
-46937.06069731843
 20
19977.26367185343
 10
-46941.26072836816
 20
19975.40172474583
 10
-47401.38550255212
 20
19975.40172474583
 10
-47447.683845406485
 20
19973.2535736416
 10
-47493.58436491559
 20
19966.82757854158
 10
-47538.6926560727
 20
19956.17895547965
 10
-47582.621121175966
 20
19941.399203861358
 10
-47586.82115222569
 20
19939.537256753745
 10
-48046.94592640971
 20
19939.537256753745
 10
-48093.244269264134
 20
19937.389105649516
 10
-48139.14478877318
 20
19930.963110549492
 10
-48184.25307993029
 20
19920.314487487554
 10
-48228.181545033614
 20
19905.534735869256
 10
-48232.38157608334
 20
19903.672788761654
 10
-48692.5063502673
 20
19903.672788761654
 10
-48738.804693121725
 20
19901.524637657425
 10
-48784.70521263077
 20
19895.0986425574
 10
-48829.81350378788
 20
19884.450019495463
 10
-48873.741968891205
 20
19869.670267877165
 10
-48877.94199994093
 20
19867.808320769564
 10
-49338.06677412489
 20
19867.808320769564
 10
-49384.36511697926
 20
19865.660169665334
 10
-49430.26563648836
 20
19859.234174565314
 10
-49475.37392764547
 20
19848.585551503384
 10
-49519.30239274874
 20
19833.805799885093
 10
-49523.50242379846
 20
19831.94385277748
 10
-49983.62719798248
 20
19831.94385277748
 10
-50029.925540836906
 20
19829.79570167325
 10
-50075.82606034595
 20
19823.369706573227
 10
-50120.93435150306
 20
19812.72108351129
 10
-50164.862816606386
 20
19797.94133189299
 10
-50169.06284765611
 20
19796.07938478539
 10
-51635.495277507725
 20
19796.07938478539
 10
-51635.495277507725
 20
23312.899799899275
 10
-51637.9029141716
 20
23361.908370064066
 10
-51645.10263730612
 20
23410.44496090736
 10
-51657.02510964163
 20
23458.042138526533
 10
-51673.55551125211
 20
23504.241516081856
 10
-51694.534645333566
 20
23548.598168312317
 10
-51719.76047135648
 20
23590.684916409125
 10
-51748.990050826425
 20
23630.09644198115
 10
-51781.941886914516
 20
23666.453190492597
 10
-51889.53529089081
 20
23774.046594468862
 10
-51925.89203940224
 20
23806.998430556952
 10
-51965.30356497425
 20
23836.228010026847
 10
-52007.39031307105
 20
23861.45383604974
 10
-52051.746965301485
 20
23882.432970131198
 10
-52097.94634285683
 20
23898.96337174165
 10
-52145.543520476
 20
23910.88584407716
 10
-52194.08011131923
 20
23918.085567211638
 10
-52243.08868148402
 20
23920.49320387554
 10
-62143.78439918961
 20
23920.49320387554
  0
ENDSEC
  0
SECTION
  2
OBJECTS
  0
DICTIONARY
  5
A
330
0
100
AcDbDictionary
281
1
  3
ACAD_COLOR
350
B
  3
ACAD_GROUP
350
C
  3
ACAD_LAYOUT
350
D
  3
ACAD_MATERIAL
350
E
  3
ACAD_MLEADERSTYLE
350
F
  3
ACAD_MLINESTYLE
350
10
  3
ACAD_PLOTSETTINGS
350
11
  3
ACAD_PLOTSTYLENAME
350
12
  3
ACAD_SCALELIST
350
14
  3
ACAD_TABLESTYLE
350
15
  3
ACAD_VISUALSTYLE
350
16
  3
EZDXF_META
350
2D
  0
DICTIONARY
  5
B
330
A
100
AcDbDictionary
281
1
  0
DICTIONARY
  5
C
330
A
100
AcDbDictionary
281
1
  0
DICTIONARY
  5
D
330
A
100
AcDbDictionary
281
1
  3
Model
350
1A
  3
Layout1
350
1E
  0
DICTIONARY
  5
E
330
A
100
AcDbDictionary
281
1
  3
ByBlock
350
1F
  3
ByLayer
350
20
  3
Global
350
21
  0
DICTIONARY
  5
F
330
A
100
AcDbDictionary
281
1
  3
Standard
350
2C
  0
DICTIONARY
  5
10
330
A
100
AcDbDictionary
281
1
  3
Standard
350
22
  0
DICTIONARY
  5
11
330
A
100
AcDbDictionary
281
1
  0
ACDBDICTIONARYWDFLT
  5
12
330
A
100
AcDbDictionary
281
1
  3
Normal
350
13
100
AcDbDictionaryWithDefault
340
13
  0
ACDBPLACEHOLDER
  5
13
330
12
  0
DICTIONARY
  5
14
330
A
100
AcDbDictionary
281
1
  0
DICTIONARY
  5
15
330
A
100
AcDbDictionary
281
1
  0
DICTIONARY
  5
16
330
A
100
AcDbDictionary
281
1
  0
LAYOUT
  5
1A
330
D
100
AcDbPlotSettings
  1

  4
A3
  6

 40
7.5
 41
20.0
 42
7.5
 43
20.0
 44
420.0
 45
297.0
 46
0.0
 47
0.0
 48
0.0
 49
0.0
140
0.0
141
0.0
142
1.0
143
1.0
 70
1024
 72
1
 73
0
 74
5
  7

 75
16
 76
0
 77
2
 78
300
147
1.0
148
0.0
149
0.0
100
AcDbLayout
  1
Model
 70
1
 71
0
 10
0.0
 20
0.0
 11
420.0
 21
297.0
 12
0.0
 22
0.0
 32
0.0
 14
1e+20
 24
1e+20
 34
1e+20
 15
-1e+20
 25
-1e+20
 35
-1e+20
146
0.0
 13
0.0
 23
0.0
 33
0.0
 16
1.0
 26
0.0
 36
0.0
 17
0.0
 27
1.0
 37
0.0
 76
1
330
17
  0
LAYOUT
  5
1E
330
D
100
AcDbPlotSettings
  1

  4
A3
  6

 40
7.5
 41
20.0
 42
7.5
 43
20.0
 44
420.0
 45
297.0
 46
0.0
 47
0.0
 48
0.0
 49
0.0
140
0.0
141
0.0
142
1.0
143
1.0
 70
0
 72
1
 73
0
 74
5
  7

 75
16
 76
0
 77
2
 78
300
147
1.0
148
0.0
149
0.0
100
AcDbLayout
  1
Layout1
 70
1
 71
1
 10
0.0
 20
0.0
 11
420.0
 21
297.0
 12
0.0
 22
0.0
 32
0.0
 14
1e+20
 24
1e+20
 34
1e+20
 15
-1e+20
 25
-1e+20
 35
-1e+20
146
0.0
 13
0.0
 23
0.0
 33
0.0
 16
1.0
 26
0.0
 36
0.0
 17
0.0
 27
1.0
 37
0.0
 76
1
330
1B
  0
MATERIAL
  5
1F
102
{ACAD_REACTORS
330
E
102
}
330
E
100
AcDbMaterial
  1
ByBlock
  2

 70
0
 40
1.0
 71
1
 41
1.0
 91
-1023410177
 42
1.0
 72
1
  3

 73
1
 74
1
 75
1
 44
0.5
 73
0
 45
1.0
 46
1.0
 77
1
  4

 78
1
 79
1
170
1
 48
1.0
171
1
  6

172
1
173
1
174
1
140
1.0
141
1.0
175
1
  7

176
1
177
1
178
1
143
1.0
179
1
  8

270
1
271
1
272
1
145
1.0
146
1.0
273
1
  9

274
1
275
1
276
1
 42
1.0
 72
1
  3

 73
1
 74
1
 75
1
 94
63
  0
MATERIAL
  5
20
102
{ACAD_REACTORS
330
E
102
}
330
E
100
AcDbMaterial
  1
ByLayer
  2

 70
0
 40
1.0
 71
1
 41
1.0
 91
-1023410177
 42
1.0
 72
1
  3

 73
1
 74
1
 75
1
 44
0.5
 73
0
 45
1.0
 46
1.0
 77
1
  4

 78
1
 79
1
170
1
 48
1.0
171
1
  6

172
1
173
1
174
1
140
1.0
141
1.0
175
1
  7

176
1
177
1
178
1
143
1.0
179
1
  8

270
1
271
1
272
1
145
1.0
146
1.0
273
1
  9

274
1
275
1
276
1
 42
1.0
 72
1
  3

 73
1
 74
1
 75
1
 94
63
  0
MATERIAL
  5
21
102
{ACAD_REACTORS
330
E
102
}
330
E
100
AcDbMaterial
  1
Global
  2

 70
0
 40
1.0
 71
1
 41
1.0
 91
-1023410177
 42
1.0
 72
1
  3

 73
1
 74
1
 75
1
 44
0.5
 73
0
 45
1.0
 46
1.0
 77
1
  4

 78
1
 79
1
170
1
 48
1.0
171
1
  6

172
1
173
1
174
1
140
1.0
141
1.0
175
1
  7

176
1
177
1
178
1
143
1.0
179
1
  8

270
1
271
1
272
1
145
1.0
146
1.0
273
1
  9

274
1
275
1
276
1
 42
1.0
 72
1
  3

 73
1
 74
1
 75
1
 94
63
  0
MLINESTYLE
  5
22
102
{ACAD_REACTORS
330
10
102
}
330
10
100
AcDbMlineStyle
  2
Standard
 70
0
  3

 62
256
 51
90.0
 52
90.0
 71
2
 49
0.5
 62
256
  6
BYLAYER
 49
-0.5
 62
256
  6
BYLAYER
  0
MLEADERSTYLE
  5
2C
102
{ACAD_REACTORS
330
F
102
}
330
F
100
AcDbMLeaderStyle
179
2
170
2
171
1
172
0
 90
2
 40
0.0
 41
0.0
173
1
 91
-1056964608
 92
-2
290
1
 42
2.0
291
1
 43
8.0
  3
Standard
 44
4.0
300

342
29
174
1
175
1
176
0
178
1
 93
-1056964608
 45
4.0
292
0
297
0
 46
4.0
 94
-1056964608
 47
1.0
 49
1.0
140
1.0
294
1
141
0.0
177
0
142
1.0
295
0
296
0
143
3.75
271
0
272
9
273
9
  0
DICTIONARY
  5
2D
330
A
100
AcDbDictionary
280
1
281
1
  3
CREATED_BY_EZDXF
350
2E
  3
WRITTEN_BY_EZDXF
350
33
  0
DICTIONARYVAR
  5
2E
330
2D
100
DictionaryVariables
280
0
  1
1.4.2 @ 2025-09-22T07:55:03.973396+00:00
  0
DICTIONARYVAR
  5
33
330
2D
100
DictionaryVariables
280
0
  1
1.4.2 @ 2025-09-22T16:35:17.803219+00:00
  0
ENDSEC
  0
EOF
