  0
SECTION
  2
HEADER
  9
$ACADVER
  1
AC1032
  9
$ACADMAINTVER
 90
4
  9
$DWGCODEPAGE
  3
ANSI_936
  9
$LASTSAVEDBY
  1
Sinetti
  9
$REQUIREDVERSIONS
160
0
  9
$INSBASE
 10
0.0
 20
0.0
 30
0.0
  9
$EXTMIN
 10
1e+20
 20
1e+20
 30
1e+20
  9
$EXTMAX
 10
-1e+20
 20
-1e+20
 30
-1e+20
  9
$LIMMIN
 10
0.0
 20
0.0
  9
$LIMMAX
 10
420.0
 20
297.0
  9
$ORTHOMODE
 70
0
  9
$REGENMODE
 70
1
  9
$FILLMODE
 70
1
  9
$QTEXTMODE
 70
0
  9
$MIRRTEXT
 70
1
  9
$LTSCALE
 40
1.0
  9
$ATTMODE
 70
1
  9
$TEXTSIZE
 40
2.5
  9
$TRACEWID
 40
1.0
  9
$TEXTSTYLE
  7
Standard
  9
$CLAYER
  8
0
  9
$CELTYPE
  6
ByLayer
  9
$CECOLOR
 62
256
  9
$CELTSCALE
 40
1.0
  9
$DISPSILH
 70
0
  9
$DIMSCALE
 40
1.0
  9
$DIMASZ
 40
2.5
  9
$DIMEXO
 40
0.625
  9
$DIMDLI
 40
3.75
  9
$DIMRND
 40
0.0
  9
$DIMDLE
 40
0.0
  9
$DIMEXE
 40
1.25
  9
$DIMTP
 40
0.0
  9
$DIMTM
 40
0.0
  9
$DIMTXT
 40
2.5
  9
$DIMCEN
 40
2.5
  9
$DIMTSZ
 40
0.0
  9
$DIMTOL
 70
0
  9
$DIMLIM
 70
0
  9
$DIMTIH
 70
0
  9
$DIMTOH
 70
0
  9
$DIMSE1
 70
0
  9
$DIMSE2
 70
0
  9
$DIMTAD
 70
1
  9
$DIMZIN
 70
8
  9
$DIMBLK
  1

  9
$DIMASO
 70
1
  9
$DIMSHO
 70
1
  9
$DIMPOST
  1

  9
$DIMAPOST
  1

  9
$DIMALT
 70
0
  9
$DIMALTD
 70
3
  9
$DIMALTF
 40
0.03937007874
  9
$DIMLFAC
 40
1.0
  9
$DIMTOFL
 70
1
  9
$DIMTVP
 40
0.0
  9
$DIMTIX
 70
0
  9
$DIMSOXD
 70
0
  9
$DIMSAH
 70
0
  9
$DIMBLK1
  1

  9
$DIMBLK2
  1

  9
$DIMSTYLE
  2
Standard
  9
$DIMCLRD
 70
0
  9
$DIMCLRE
 70
0
  9
$DIMCLRT
 70
0
  9
$DIMTFAC
 40
1.0
  9
$DIMGAP
 40
0.625
  9
$DIMJUST
 70
0
  9
$DIMSD1
 70
0
  9
$DIMSD2
 70
0
  9
$DIMTOLJ
 70
0
  9
$DIMTZIN
 70
8
  9
$DIMALTZ
 70
0
  9
$DIMALTTZ
 70
0
  9
$DIMUPT
 70
0
  9
$DIMDEC
 70
2
  9
$DIMTDEC
 70
2
  9
$DIMALTU
 70
2
  9
$DIMALTTD
 70
3
  9
$DIMTXSTY
  7
Standard
  9
$DIMAUNIT
 70
0
  9
$DIMADEC
 70
0
  9
$DIMALTRND
 40
0.0
  9
$DIMAZIN
 70
0
  9
$DIMDSEP
 70
44
  9
$DIMATFIT
 70
3
  9
$DIMFRAC
 70
0
  9
$DIMLDRBLK
  1

  9
$DIMLUNIT
 70
2
  9
$DIMLWD
 70
-2
  9
$DIMLWE
 70
-2
  9
$DIMTMOVE
 70
0
  9
$DIMFXL
 40
1.0
  9
$DIMFXLON
 70
0
  9
$DIMJOGANG
 40
0.785398163397
  9
$DIMTFILL
 70
0
  9
$DIMTFILLCLR
 70
0
  9
$DIMARCSYM
 70
0
  9
$DIMLTYPE
  6

  9
$DIMLTEX1
  6

  9
$DIMLTEX2
  6

  9
$DIMTXTDIRECTION
 70
0
  9
$LUNITS
 70
2
  9
$LUPREC
 70
4
  9
$SKETCHINC
 40
1.0
  9
$FILLETRAD
 40
10.0
  9
$AUNITS
 70
0
  9
$AUPREC
 70
2
  9
$MENU
  1
.
  9
$ELEVATION
 40
0.0
  9
$PELEVATION
 40
0.0
  9
$THICKNESS
 40
0.0
  9
$LIMCHECK
 70
0
  9
$CHAMFERA
 40
0.0
  9
$CHAMFERB
 40
0.0
  9
$CHAMFERC
 40
0.0
  9
$CHAMFERD
 40
0.0
  9
$SKPOLY
 70
0
  9
$TDCREATE
 40
2460942.0235648146
  9
$TDUCREATE
 40
2458532.153996898
  9
$TDUPDATE
 40
2460942.0235648146
  9
$TDUUPDATE
 40
2460941.361805556
  9
$TDINDWG
 40
0.0002546296
  9
$TDUSRTIMER
 40
0.0002546296
  9
$USRTIMER
 70
1
  9
$ANGBASE
 50
0.0
  9
$ANGDIR
 70
0
  9
$PDMODE
 70
0
  9
$PDSIZE
 40
0.0
  9
$PLINEWID
 40
0.0
  9
$SPLFRAME
 70
0
  9
$SPLINETYPE
 70
6
  9
$SPLINESEGS
 70
8
  9
$HANDSEED
  5
74
  9
$SURFTAB1
 70
6
  9
$SURFTAB2
 70
6
  9
$SURFTYPE
 70
6
  9
$SURFU
 70
6
  9
$SURFV
 70
6
  9
$UCSBASE
  2

  9
$UCSNAME
  2

  9
$UCSORG
 10
0.0
 20
0.0
 30
0.0
  9
$UCSXDIR
 10
1.0
 20
0.0
 30
0.0
  9
$UCSYDIR
 10
0.0
 20
1.0
 30
0.0
  9
$UCSORTHOREF
  2

  9
$UCSORTHOVIEW
 70
0
  9
$UCSORGTOP
 10
0.0
 20
0.0
 30
0.0
  9
$UCSORGBOTTOM
 10
0.0
 20
0.0
 30
0.0
  9
$UCSORGLEFT
 10
0.0
 20
0.0
 30
0.0
  9
$UCSORGRIGHT
 10
0.0
 20
0.0
 30
0.0
  9
$UCSORGFRONT
 10
0.0
 20
0.0
 30
0.0
  9
$UCSORGBACK
 10
0.0
 20
0.0
 30
0.0
  9
$PUCSBASE
  2

  9
$PUCSNAME
  2

  9
$PUCSORG
 10
0.0
 20
0.0
 30
0.0
  9
$PUCSXDIR
 10
1.0
 20
0.0
 30
0.0
  9
$PUCSYDIR
 10
0.0
 20
1.0
 30
0.0
  9
$PUCSORTHOREF
  2

  9
$PUCSORTHOVIEW
 70
0
  9
$PUCSORGTOP
 10
0.0
 20
0.0
 30
0.0
  9
$PUCSORGBOTTOM
 10
0.0
 20
0.0
 30
0.0
  9
$PUCSORGLEFT
 10
0.0
 20
0.0
 30
0.0
  9
$PUCSORGRIGHT
 10
0.0
 20
0.0
 30
0.0
  9
$PUCSORGFRONT
 10
0.0
 20
0.0
 30
0.0
  9
$PUCSORGBACK
 10
0.0
 20
0.0
 30
0.0
  9
$USERI1
 70
0
  9
$USERI2
 70
0
  9
$USERI3
 70
0
  9
$USERI4
 70
0
  9
$USERI5
 70
0
  9
$USERR1
 40
0.0
  9
$USERR2
 40
0.0
  9
$USERR3
 40
0.0
  9
$USERR4
 40
0.0
  9
$USERR5
 40
0.0
  9
$WORLDVIEW
 70
1
  9
$SHADEDGE
 70
3
  9
$SHADEDIF
 70
70
  9
$TILEMODE
 70
1
  9
$MAXACTVP
 70
64
  9
$PINSBASE
 10
0.0
 20
0.0
 30
0.0
  9
$PLIMCHECK
 70
0
  9
$PEXTMIN
 10
1e+20
 20
1e+20
 30
1e+20
  9
$PEXTMAX
 10
-1e+20
 20
-1e+20
 30
-1e+20
  9
$PLIMMIN
 10
0.0
 20
0.0
  9
$PLIMMAX
 10
420.0
 20
297.0
  9
$UNITMODE
 70
0
  9
$VISRETAIN
 70
1
  9
$PLINEGEN
 70
0
  9
$PSLTSCALE
 70
1
  9
$TREEDEPTH
 70
3020
  9
$CMLSTYLE
  2
Standard
  9
$CMLJUST
 70
0
  9
$CMLSCALE
 40
20.0
  9
$PROXYGRAPHICS
 70
1
  9
$MEASUREMENT
 70
1
  9
$CELWEIGHT
370
-1
  9
$ENDCAPS
280
0
  9
$JOINSTYLE
280
0
  9
$LWDISPLAY
290
0
  9
$INSUNITS
 70
6
  9
$HYPERLINKBASE
  1

  9
$STYLESHEET
  1

  9
$XEDIT
290
1
  9
$CEPSNTYPE
380
0
  9
$PSTYLEMODE
290
1
  9
$FINGERPRINTGUID
  2
{95D09839-7B56-403A-98B6-59A346CCC31E}
  9
$VERSIONGUID
  2
{0B2A50E6-B1E2-4E31-B826-3D47534165B0}
  9
$EXTNAMES
290
1
  9
$PSVPSCALE
 40
0.0
  9
$OLESTARTUP
290
0
  9
$SORTENTS
280
127
  9
$INDEXCTL
280
0
  9
$HIDETEXT
280
1
  9
$XCLIPFRAME
280
1
  9
$HALOGAP
280
0
  9
$OBSCOLOR
 70
257
  9
$OBSLTYPE
280
0
  9
$INTERSECTIONDISPLAY
280
0
  9
$INTERSECTIONCOLOR
 70
257
  9
$DIMASSOC
280
2
  9
$PROJECTNAME
  1

  9
$CAMERADISPLAY
290
0
  9
$LENSLENGTH
 40
50.0
  9
$CAMERAHEIGHT
 40
0.0
  9
$STEPSPERSEC
 40
24.0
  9
$STEPSIZE
 40
100.0
  9
$3DDWFPREC
 40
2.0
  9
$PSOLWIDTH
 40
0.005
  9
$PSOLHEIGHT
 40
0.08
  9
$LOFTANG1
 40
1.570796326795
  9
$LOFTANG2
 40
1.570796326795
  9
$LOFTMAG1
 40
0.0
  9
$LOFTMAG2
 40
0.0
  9
$LOFTPARAM
 70
7
  9
$LOFTNORMALS
280
1
  9
$LATITUDE
 40
37.795
  9
$LONGITUDE
 40
-122.394
  9
$NORTHDIRECTION
 40
0.0
  9
$TIMEZONE
 70
-8000
  9
$LIGHTGLYPHDISPLAY
280
1
  9
$TILEMODELIGHTSYNCH
280
1
  9
$CMATERIAL
347
20
  9
$SOLIDHIST
280
0
  9
$SHOWHIST
280
1
  9
$DWFFRAME
280
2
  9
$DGNFRAME
280
2
  9
$REALWORLDSCALE
290
1
  9
$INTERFERECOLOR
 62
256
  9
$INTERFEREOBJVS
345
40
  9
$INTERFEREVPVS
346
3D
  9
$CSHADOW
280
0
  9
$SHADOWPLANELOCATION
 40
0.0
  0
ENDSEC
  0
SECTION
  2
CLASSES
  0
CLASS
  1
ACDBDICTIONARYWDFLT
  2
AcDbDictionaryWithDefault
  3
ObjectDBX Classes
 90
0
 91
1
280
0
281
0
  0
CLASS
  1
SUN
  2
AcDbSun
  3
SCENEOE
 90
1153
 91
0
280
0
281
0
  0
CLASS
  1
VISUALSTYLE
  2
AcDbVisualStyle
  3
ObjectDBX Classes
 90
4095
 91
24
280
0
281
0
  0
CLASS
  1
MATERIAL
  2
AcDbMaterial
  3
ObjectDBX Classes
 90
1153
 91
3
280
0
281
0
  0
CLASS
  1
SCALE
  2
AcDbScale
  3
ObjectDBX Classes
 90
1153
 91
17
280
0
281
0
  0
CLASS
  1
TABLESTYLE
  2
AcDbTableStyle
  3
ObjectDBX Classes
 90
4095
 91
1
280
0
281
0
  0
CLASS
  1
MLEADERSTYLE
  2
AcDbMLeaderStyle
  3
ACDB_MLEADERSTYLE_CLASS
 90
4095
 91
1
280
0
281
0
  0
CLASS
  1
DICTIONARYVAR
  2
AcDbDictionaryVar
  3
ObjectDBX Classes
 90
0
 91
8
280
0
281
0
  0
CLASS
  1
CELLSTYLEMAP
  2
AcDbCellStyleMap
  3
ObjectDBX Classes
 90
1152
 91
1
280
0
281
0
  0
CLASS
  1
MENTALRAYRENDERSETTINGS
  2
AcDbMentalRayRenderSettings
  3
SCENEOE
 90
1024
 91
0
280
0
281
0
  0
CLASS
  1
ACDBDETAILVIEWSTYLE
  2
AcDbDetailViewStyle
  3
ObjectDBX Classes
 90
1025
 91
1
280
0
281
0
  0
CLASS
  1
ACDBSECTIONVIEWSTYLE
  2
AcDbSectionViewStyle
  3
ObjectDBX Classes
 90
1025
 91
1
280
0
281
0
  0
CLASS
  1
RASTERVARIABLES
  2
AcDbRasterVariables
  3
ISM
 90
0
 91
0
280
0
281
0
  0
CLASS
  1
ACDBPLACEHOLDER
  2
AcDbPlaceHolder
  3
ObjectDBX Classes
 90
0
 91
0
280
0
281
0
  0
CLASS
  1
LAYOUT
  2
AcDbLayout
  3
ObjectDBX Classes
 90
0
 91
0
280
0
281
0
  0
ENDSEC
  0
SECTION
  2
TABLES
  0
TABLE
  2
VPORT
  5
8
330
0
100
AcDbSymbolTable
 70
1
  0
VPORT
  5
23
330
8
100
AcDbSymbolTableRecord
100
AcDbViewportTableRecord
  2
*Active
 70
0
 10
0.0
 20
0.0
 11
1.0
 21
1.0
 12
733206.540227564
 22
160735.9401041232
 13
0.0
 23
0.0
 14
0.5
 24
0.5
 15
0.5
 25
0.5
 16
0.0
 26
0.0
 36
1.0
 17
0.0
 27
0.0
 37
0.0
 40
112638.1448802575
 41
1.845637583892617
 42
50.0
 43
0.0
 44
0.0
 50
0.0
 51
0.0
 71
0
 72
1000
 73
1
 74
3
 75
0
 76
0
 77
0
 78
0
281
0
 65
0
110
0.0
120
0.0
130
0.0
111
1.0
121
0.0
131
0.0
112
0.0
122
1.0
132
0.0
 79
0
146
0.0
 60
3
 61
5
348
3C
292
1
282
1
141
0.0
142
0.0
 63
250
421
3355443
1001
ACAD_NAV_VCDISPLAY
1070
3
  0
ENDTAB
  0
TABLE
  2
LTYPE
  5
2
330
0
100
AcDbSymbolTable
 70
3
  0
LTYPE
  5
24
330
2
100
AcDbSymbolTableRecord
100
AcDbLinetypeTableRecord
  2
ByBlock
 70
0
  3

 72
65
 73
0
 40
0.0
  0
LTYPE
  5
25
330
2
100
AcDbSymbolTableRecord
100
AcDbLinetypeTableRecord
  2
ByLayer
 70
0
  3

 72
65
 73
0
 40
0.0
  0
LTYPE
  5
26
330
2
100
AcDbSymbolTableRecord
100
AcDbLinetypeTableRecord
  2
Continuous
 70
0
  3

 72
65
 73
0
 40
0.0
  0
ENDTAB
  0
TABLE
  2
LAYER
  5
1
330
0
100
AcDbSymbolTable
 70
3
  0
LAYER
  5
27
330
1
100
AcDbSymbolTableRecord
100
AcDbLayerTableRecord
  2
0
 70
0
 62
7
  6
Continuous
370
-3
390
13
347
21
348
0
  0
LAYER
  5
28
330
1
100
AcDbSymbolTableRecord
100
AcDbLayerTableRecord
  2
Defpoints
 70
0
 62
7
  6
Continuous
290
0
370
-3
390
13
347
21
348
0
  0
LAYER
  5
2F
330
1
100
AcDbSymbolTableRecord
100
AcDbLayerTableRecord
  2
alpha_boundary_shrunk
 70
0
 62
7
  6
Continuous
370
-3
390
13
347
21
348
0
  0
ENDTAB
  0
TABLE
  2
STYLE
  5
5
330
0
100
AcDbSymbolTable
 70
1
  0
STYLE
  5
29
330
5
100
AcDbSymbolTableRecord
100
AcDbTextStyleTableRecord
  2
Standard
 70
0
 40
0.0
 41
1.0
 50
0.0
 71
0
 42
2.5
  3
txt
  4

  0
ENDTAB
  0
TABLE
  2
VIEW
  5
7
330
0
100
AcDbSymbolTable
 70
0
  0
ENDTAB
  0
TABLE
  2
UCS
  5
6
330
0
100
AcDbSymbolTable
 70
0
  0
ENDTAB
  0
TABLE
  2
APPID
  5
3
330
0
100
AcDbSymbolTable
 70
4
  0
APPID
  5
2A
330
3
100
AcDbSymbolTableRecord
100
AcDbRegAppTableRecord
  2
ACAD
 70
0
  0
APPID
  5
32
330
3
100
AcDbSymbolTableRecord
100
AcDbRegAppTableRecord
  2
HATCHBACKGROUNDCOLOR
 70
0
  0
APPID
  5
33
330
3
100
AcDbSymbolTableRecord
100
AcDbRegAppTableRecord
  2
EZDXF
 70
0
  0
APPID
  5
70
330
3
100
AcDbSymbolTableRecord
100
AcDbRegAppTableRecord
  2
ACAD_NAV_VCDISPLAY
 70
0
  0
ENDTAB
  0
TABLE
  2
DIMSTYLE
  5
4
330
0
100
AcDbSymbolTable
 70
1
100
AcDbDimStyleTable
  0
DIMSTYLE
105
2B
330
4
100
AcDbSymbolTableRecord
100
AcDbDimStyleTableRecord
  2
Standard
 70
0
 40
1.0
 41
2.5
 42
0.625
 43
3.75
 44
1.25
 45
0.0
 46
0.0
 47
0.0
 48
0.0
 49
2.5
140
2.5
141
2.5
142
0.0
143
0.03937007874
144
1.0
145
0.0
146
1.0
147
0.625
148
0.0
 69
0
 70
0
 71
0
 72
0
 73
0
 74
0
 75
0
 76
0
 77
1
 78
8
 79
3
170
0
171
3
172
1
173
0
174
0
175
0
176
0
177
0
178
0
179
2
271
2
272
2
273
2
274
3
275
0
276
0
277
2
278
44
279
0
280
0
281
0
282
0
283
0
284
8
285
0
286
0
288
0
289
3
290
0
371
-2
372
-2
  0
ENDTAB
  0
TABLE
  2
BLOCK_RECORD
  5
9
330
0
100
AcDbSymbolTable
 70
2
  0
BLOCK_RECORD
  5
17
330
9
100
AcDbSymbolTableRecord
100
AcDbBlockTableRecord
  2
*Model_Space
340
1A
 70
0
280
1
281
0
  0
BLOCK_RECORD
  5
1B
330
9
100
AcDbSymbolTableRecord
100
AcDbBlockTableRecord
  2
*Paper_Space
340
1E
 70
0
280
1
281
0
  0
ENDTAB
  0
ENDSEC
  0
SECTION
  2
BLOCKS
  0
BLOCK
  5
18
330
17
100
AcDbEntity
  8
0
100
AcDbBlockBegin
  2
*Model_Space
 70
0
 10
0.0
 20
0.0
 30
0.0
  3
*Model_Space
  1

  0
ENDBLK
  5
19
330
17
100
AcDbEntity
  8
0
100
AcDbBlockEnd
  0
BLOCK
  5
1C
330
1B
100
AcDbEntity
 67
1
  8
0
100
AcDbBlockBegin
  2
*Paper_Space
 70
0
 10
0.0
 20
0.0
 30
0.0
  3
*Paper_Space
  1

  0
ENDBLK
  5
1D
330
1B
100
AcDbEntity
 67
1
  8
0
100
AcDbBlockEnd
  0
ENDSEC
  0
SECTION
  2
ENTITIES
  0
LWPOLYLINE
  5
30
330
17
100
AcDbEntity
  8
alpha_boundary_shrunk
 62
1
100
AcDbPolyline
 90
1861
 70
1
 10
656066.4477133598
 20
208184.9215470553
 10
656066.4477133598
 20
232073.1395294583
 10
661530.2911120882
 20
232073.1395294583
 10
661576.5894549425
 20
232075.2876805625
 10
661622.4899744517
 20
232081.7136756625
 10
661667.5982656088
 20
232092.36229872442
 10
661711.526730712
 20
232107.14205034272
 10
661753.8979098382
 20
232125.9259339583
 10
661820.5330316117
 20
232159.2434948451
 10
661860.6427555035
 20
232181.6587897209
 10
661898.5254087764
 20
232207.66148142892
 10
661933.8610746365
 20
232237.0319787566
 10
661966.3513454498
 20
232269.5222495699
 10
661995.7218427776
 20
232304.8579154299
 10
662021.7245344857
 20
232342.74056870272
 10
662040.3789205641
 20
232376.1205567474
 10
662083.7498680023
 20
232419.4915041856
 10
662117.0674288888
 20
232452.80906507222
 10
662152.8819996418
 20
232492.68652309012
 10
662184.2221171055
 20
232536.168613352
 10
662206.8090925659
 20
232575.8682896361
 10
662250.3376724359
 20
232619.3968695061
 10
662286.1522431889
 20
232659.27432752392
 10
662317.4923606523
 20
232702.7564177858
 10
662340.0793361133
 20
232742.45609407022
 10
662350.2903550955
 20
232752.6671130525
 10
662383.6079159824
 20
232785.9846739393
 10
662416.9254768697
 20
232819.3022348267
 10
662452.7400476227
 20
232859.1796928444
 10
662484.0801650862
 20
232902.6617831063
 10
662506.667140547
 20
232942.3614593907
 10
662516.8781595298
 20
232952.5724783735
 10
662550.1957204166
 20
232985.8900392604
 10
662583.5132813029
 20
233019.2076001465
 10
662619.3278520559
 20
233059.08505816452
 10
662650.6679695199
 20
233102.5671484266
 10
662673.2549449807
 20
233142.2668247112
 10
662683.4659639635
 20
233152.477843694
 10
662716.7835248508
 20
233185.79540458112
 10
662752.5980956035
 20
233225.67286259882
 10
662783.9382130669
 20
233269.1549528606
 10
662806.5251885277
 20
233308.8546291448
 10
662850.0537683973
 20
233352.38320901452
 10
662883.3713292845
 20
233385.7007699016
 10
662919.1859000372
 20
233425.5782279193
 10
662950.5260175008
 20
233469.06031818112
 10
662973.1129929613
 20
233508.7599944653
 10
662983.3240119439
 20
233518.9710134477
 10
663016.6415728311
 20
233552.28857433502
 10
663052.456143584
 20
233592.16603235292
 10
663083.7962610477
 20
233635.6481226148
 10
663106.3832365084
 20
233675.3477988991
 10
663116.5942554916
 20
233685.5588178823
 10
663149.911816378
 20
233718.8763787688
 10
663183.2293772644
 20
233752.1939396549
 10
663219.0439480175
 20
233792.0713976729
 10
663250.3840654813
 20
233835.5534879351
 10
663272.971040942
 20
233875.2531642195
 10
663283.1820599254
 20
233885.4641832028
 10
663316.4996208119
 20
233918.7817440893
 10
663352.3141915648
 20
233958.6592021071
 10
663383.6543090284
 20
234002.1412923691
 10
663406.2412844889
 20
234041.8409686531
 10
663416.4523034722
 20
234052.0519876363
 10
663449.7698643592
 20
234085.3695485233
 10
663483.0874252457
 20
234118.6871094098
 10
663518.9019959987
 20
234158.56456742762
 10
663550.2421134622
 20
234202.0466576896
 10
663572.8290889228
 20
234241.7463339736
 10
663583.0401079054
 20
234251.95735295612
 10
663616.357668793
 20
234285.2749138439
 10
663649.6752296792
 20
234318.5924747303
 10
663685.4898004325
 20
234358.46993274812
 10
663716.829917896
 20
234401.9520230102
 10
663739.4168933565
 20
234441.6516992944
 10
663749.6279123396
 20
234451.86271827732
 10
663782.9454732261
 20
234485.1802791637
 10
663818.7600439792
 20
234525.05773718172
 10
663850.1001614429
 20
234568.53982744372
 10
663872.6871369038
 20
234608.2395037283
 10
663882.8981558866
 20
234618.4505227111
 10
663949.5332776601
 20
234685.0856444847
 10
663985.3478484129
 20
234724.9631025023
 10
664016.6879658763
 20
234768.44519276402
 10
664039.2749413373
 20
234808.1448690485
 10
664049.4859603203
 20
234818.3558880316
 10
664082.8035212073
 20
234851.67344891842
 10
664118.6180919601
 20
234891.5509069362
 10
664149.9582094237
 20
234935.0329971981
 10
664172.5451848843
 20
234974.73267348242
 10
664182.7562038669
 20
234984.94369246482
 10
664216.0737647541
 20
235018.2612533521
 10
664249.3913256411
 20
235051.57881423892
 10
664285.2058963939
 20
235091.4562722568
 10
664316.5460138575
 20
235134.93836251862
 10
664339.1329893183
 20
235174.6380388031
 10
664349.3440083012
 20
235184.84905778602
 10
664382.6615691873
 20
235218.166618672
 10
664418.4761399406
 20
235258.04407669
 10
664449.8162574044
 20
235301.5261669521
 10
664472.4032328653
 20
235341.2258432366
 10
664515.9318127349
 20
235384.7544231065
 10
664549.2493736215
 20
235418.0719839931
 10
664585.0639443743
 20
235457.9494420107
 10
664616.4040618379
 20
235501.43153227252
 10
664638.9910372989
 20
235541.1312085572
 10
664682.5196171687
 20
235584.659788427
 10
664715.8371780552
 20
235617.9773493135
 10
664751.6517488085
 20
235657.8548073314
 10
664782.991866272
 20
235701.3368975934
 10
664805.5788417326
 20
235741.0365738774
 10
664849.1074216025
 20
235784.5651537475
 10
664884.9219923554
 20
235824.4426117652
 10
664916.2621098191
 20
235867.9247020271
 10
664938.8490852797
 20
235907.6243783116
 10
664949.0601042621
 20
235917.8353972939
 10
664982.3776651489
 20
235951.1529581806
 10
665015.6952260362
 20
235984.470519068
 10
665051.5097967891
 20
236024.3479770857
 10
665082.8499142529
 20
236067.8300673477
 10
665109.3554309428
 20
236114.41711191132
 10
665109.4647983616
 20
236114.63584674872
 10
665118.1449185627
 20
236124.30065974602
 10
665149.4850360262
 20
236167.7827500079
 10
665175.9905527164
 20
236214.3697945715
 10
665209.3081136029
 20
236281.00491634491
 10
665228.0919972188
 20
236323.37609547112
 10
665242.871748837
 20
236367.3045605744
 10
665253.5203718988
 20
236412.4128517314
 10
665259.9463669988
 20
236458.3133712405
 10
665262.0945181032
 20
236504.6117140949
 10
665262.0945181032
 20
259975.4108331645
 10
665275.9432353763
 20
260003.1082677109
 10
665309.2607962633
 20
260069.7433894852
 10
665328.0446798791
 20
260112.11456861132
 10
665342.8244314974
 20
260156.0430337145
 10
665349.1503514906
 20
260182.84006082622
 10
665375.8959180367
 20
260236.331193919
 10
665409.2134789237
 20
260302.96631569232
 10
665427.9973625392
 20
260345.3374948185
 10
665442.7771141574
 20
260389.26595992182
 10
665449.1030341506
 20
260416.0629870331
 10
665475.8486006969
 20
260469.5541201256
 10
665494.6324843125
 20
260511.9252992518
 10
665509.412235931
 20
260555.8537643552
 10
665515.7381559244
 20
260582.6507914673
 10
665542.4837224705
 20
260636.14192456
 10
665575.8012833572
 20
260702.7770463333
 10
665594.5851669728
 20
260745.1482254595
 10
665609.3649185911
 20
260789.0766905627
 10
665615.6908385844
 20
260815.87371767432
 10
665642.4364051309
 20
260869.36485076722
 10
665675.7539660172
 20
260935.9999725401
 10
665694.537849633
 20
260978.3711516663
 10
665709.3176012514
 20
261022.2996167697
 10
665715.6435212449
 20
261049.0966438817
 10
665775.7066486779
 20
261169.22289874792
 10
665794.4905322935
 20
261211.59407787412
 10
665809.2702839117
 20
261255.5225429773
 10
665815.5962039048
 20
261282.31957008882
 10
665842.341770451
 20
261335.8107031813
 10
665875.6593313379
 20
261402.4458249546
 10
665894.4432149536
 20
261444.8170040808
 10
665909.2229665719
 20
261488.7454691841
 10
665915.5488865653
 20
261515.5424962961
 10
665942.2944531116
 20
261569.033629389
 10
665975.6120139983
 20
261635.6687511625
 10
665994.395897614
 20
261678.03993028862
 10
666009.1756492322
 20
261721.96839539192
 10
666015.5015692256
 20
261748.7654225034
 10
666042.2471357719
 20
261802.2565555961
 10
666061.0310193873
 20
261844.6277347223
 10
666075.8107710058
 20
261888.5561998256
 10
666082.1366909987
 20
261915.3532269368
 10
666108.8822575453
 20
261968.8443600299
 10
666142.1998184322
 20
262035.47948180352
 10
666160.983702048
 20
262077.8506609296
 10
666175.7634536661
 20
262121.7791260329
 10
666182.0893736591
 20
262148.5761531445
 10
666242.1525010923
 20
262268.70240801066
 10
666260.9363847078
 20
262311.0735871368
 10
666275.7161363262
 20
262355.0020522401
 10
666282.0420563193
 20
262381.7990793513
 10
666308.7876228659
 20
262435.2902124445
 10
666342.1051837526
 20
262501.9253342179
 10
666360.8890673682
 20
262544.2965133441
 10
666375.6688189865
 20
262588.2249784473
 10
666381.9947389798
 20
262615.0220055589
 10
666408.7403055262
 20
262668.5131386517
 10
666442.0578664127
 20
262735.1482604246
 10
666460.8417500283
 20
262777.5194395509
 10
666475.6215016468
 20
262821.4479046543
 10
666481.94742164
 20
262848.2449317663
 10
666508.6929881865
 20
262901.7360648588
 10
666542.0105490731
 20
262968.3711866326
 10
666560.7944326887
 20
263010.74236575863
 10
666575.574184307
 20
263054.6708308619
 10
666581.9001043001
 20
263081.4678579732
 10
666608.6456708466
 20
263134.9589910663
 10
666627.4295544622
 20
263177.3301701924
 10
666642.2093060805
 20
263221.25863529573
 10
666648.5352260736
 20
263248.0556624072
 10
666675.2807926197
 20
263301.5467954992
 10
666708.598353507
 20
263368.1819172735
 10
666727.3822371225
 20
263410.5530963996
 10
666742.1619887408
 20
263454.4815615029
 10
666748.487908734
 20
263481.2785886143
 10
666808.5510361671
 20
263601.4048434808
 10
666827.3349197827
 20
263643.776022607
 10
666842.114671401
 20
263687.7044877102
 10
666848.4405913941
 20
263714.501514821
 10
666908.5037188274
 20
263834.6277696881
 10
666927.287602443
 20
263876.99894881423
 10
666942.0673540613
 20
263920.9274139175
 10
666952.7159771231
 20
263966.0357050745
 10
666959.1419722233
 20
264011.9362245836
 10
666960.611346551
 20
264043.6051310543
 10
666975.384914948
 20
264087.5152183512
 10
666986.03353801
 20
264132.6235095083
 10
666992.45953311
 20
264178.5240290172
 10
666994.6076842141
 20
264224.8223718716
 10
666994.6076842141
 20
264245.5279607213
 10
667008.7024758348
 20
264287.4205836717
 10
667019.3510988966
 20
264332.52887482883
 10
667025.7770939965
 20
264378.4293943377
 10
667027.9252451009
 20
264424.7277371921
 10
667027.9252451009
 20
264478.7508869286
 10
667042.0200367215
 20
264520.6435098789
 10
667052.6686597832
 20
264565.751801036
 10
667059.0946548835
 20
264611.652320545
 10
667061.2428059876
 20
264657.9506633993
 10
667061.2428059876
 20
264711.9738131355
 10
667075.3375976081
 20
264753.8664360857
 10
667085.9862206702
 20
264798.9747272429
 10
667092.4122157705
 20
264844.8752467521
 10
667094.5603668743
 20
264891.1735896066
 10
667094.5603668743
 20
264911.8791784565
 10
667108.6551584951
 20
264953.77180140663
 10
667119.3037815569
 20
264998.8800925637
 10
667125.729776657
 20
265044.78061207273
 10
667127.8779277613
 20
265091.0789549271
 10
667127.8779277613
 20
265145.1021046636
 10
667141.9727193818
 20
265186.994727614
 10
667152.6213424436
 20
265232.1030187711
 10
667159.0473375438
 20
265278.0035382801
 10
667161.1954886479
 20
265324.3018811344
 10
667161.1954886479
 20
265378.3250308709
 10
667175.2902802686
 20
265420.2176538212
 10
667185.9389033304
 20
265465.32594497834
 10
667192.3648984303
 20
265511.2264644874
 10
667194.5130495346
 20
265557.5248073417
 10
667194.5130495346
 20
265578.2303961913
 10
667208.6078411553
 20
265620.1230191417
 10
667219.2564642171
 20
265665.2313102988
 10
667225.6824593171
 20
265711.1318298078
 10
667227.8306104214
 20
265757.43017266213
 10
667227.8306104214
 20
265811.4533223988
 10
667241.9254020419
 20
265853.3459453489
 10
667252.5740251038
 20
265898.454236506
 10
667259.000020204
 20
265944.354756015
 10
667261.1481713081
 20
265990.6530988694
 10
667261.1481713081
 20
266044.6762486057
 10
667275.2429629286
 20
266086.5688715559
 10
667285.8915859908
 20
266131.6771627131
 10
667292.3175810907
 20
266177.5776822222
 10
667294.4657321951
 20
266223.8760250767
 10
667294.4657321951
 20
266244.5816139264
 10
667308.5605238156
 20
266286.4742368768
 10
667319.2091468773
 20
266331.5825280338
 10
667325.6351419775
 20
266377.4830475428
 10
667327.7832930816
 20
266423.7813903972
 10
667327.7832930816
 20
266477.8045401339
 10
667341.8780847022
 20
266519.697163084
 10
667352.5267077641
 20
266564.805454241
 10
667358.9527028641
 20
266610.7059737501
 10
667361.1008539686
 20
266657.0043166044
 10
667361.1008539686
 20
266677.7099054544
 10
667375.195645589
 20
266719.6025284044
 10
667385.8442686509
 20
266764.7108195615
 10
667392.270263751
 20
266810.6113390706
 10
667394.4184148551
 20
266856.9096819249
 10
667394.4184148551
 20
266910.9328316616
 10
667408.5132064758
 20
266952.8254546116
 10
667419.1618295376
 20
266997.9337457688
 10
667425.5878246377
 20
267043.8342652779
 10
667427.7359757419
 20
267090.1326081322
 10
667427.7359757419
 20
267144.1557578687
 10
667441.8307673625
 20
267186.04838081903
 10
667452.4793904244
 20
267231.1566719761
 10
667458.9053855245
 20
267277.05719148513
 10
667461.0535366286
 20
267323.3555343395
 10
667461.0535366286
 20
267344.061123189
 10
667475.1483282493
 20
267385.95374613913
 10
667485.7969513113
 20
267431.0620372963
 10
667492.2229464112
 20
267476.9625568055
 10
667494.3710975156
 20
267523.26089966
 10
667494.3710975156
 20
267577.2840493965
 10
667508.4658891362
 20
267619.1766723469
 10
667519.1145121979
 20
267664.28496350383
 10
667525.540507298
 20
267710.1854830128
 10
667527.6886584022
 20
267756.4838258672
 10
667527.6886584022
 20
267810.5069756037
 10
667541.7834500229
 20
267852.3995985541
 10
667552.4320730846
 20
267897.5078897111
 10
667558.8580681847
 20
267943.4084092201
 10
667561.0062192889
 20
267989.70675207453
 10
667561.0062192889
 20
268010.4123409242
 10
667575.1010109095
 20
268052.30496387463
 10
667585.7496339714
 20
268097.4132550317
 10
667592.1756290714
 20
268143.3137745406
 10
667594.3237801755
 20
268189.612117395
 10
667594.3237801755
 20
268243.6352671315
 10
667608.4185717963
 20
268285.5278900819
 10
667619.0671948581
 20
268330.6361812389
 10
667625.4931899583
 20
268376.5367007478
 10
667627.6413410624
 20
268422.83504360233
 10
667627.6413410624
 20
268443.540632452
 10
667641.736132683
 20
268485.4332554023
 10
667652.384755745
 20
268530.5415465594
 10
667658.8107508448
 20
268576.4420660684
 10
667660.9589019491
 20
268622.7404089227
 10
667660.9589019491
 20
268676.7635586589
 10
667675.0536935696
 20
268718.656181609
 10
667685.7023166316
 20
268763.7644727663
 10
667692.1283117317
 20
268809.6649922754
 10
667694.276462836
 20
268855.96333513
 10
667694.276462836
 20
268909.9864848667
 10
667708.3712544567
 20
268951.8791078167
 10
667719.0198775185
 20
268996.9873989738
 10
667725.4458726185
 20
269042.8879184828
 10
667727.5940237226
 20
269089.1862613372
 10
667727.5940237226
 20
269109.8918501872
 10
667741.6888153433
 20
269151.78447313723
 10
667752.3374384051
 20
269196.8927642943
 10
667758.7634335052
 20
269242.79328380333
 10
667760.9115846094
 20
269289.0916266577
 10
667760.9115846094
 20
269343.1147763942
 10
667775.00637623
 20
269385.0073993446
 10
667785.6549992919
 20
269430.1156905016
 10
667792.0809943919
 20
269476.0162100106
 10
667794.229145496
 20
269522.314552865
 10
667794.229145496
 20
269576.3377026015
 10
667808.3239371168
 20
269618.2303255518
 10
667818.9725601786
 20
269663.338616709
 10
667825.3985552788
 20
269709.2391362179
 10
667827.546706383
 20
269755.5374790722
 10
667827.546706383
 20
269776.2430679219
 10
667841.6414980036
 20
269818.1356908723
 10
667852.2901210655
 20
269863.2439820294
 10
667858.7161161654
 20
269909.1445015384
 10
667860.8642672696
 20
269955.4428443928
 10
667860.8642672696
 20
270009.46599412913
 10
667874.9590588902
 20
270051.3586170792
 10
667885.6076819523
 20
270096.4669082365
 10
667892.0336770522
 20
270142.3674277455
 10
667894.1818281565
 20
270188.6657706
 10
667894.1818281565
 20
270242.6889203365
 10
667908.2766197772
 20
270284.5815432869
 10
667918.9252428388
 20
270329.6898344439
 10
667925.351237939
 20
270375.5903539529
 10
667927.4993890433
 20
270421.8886968073
 10
667927.4993890433
 20
270442.594285657
 10
667941.5941806639
 20
270484.4869086073
 10
667952.2428037256
 20
270529.5951997644
 10
667958.6687988257
 20
270575.4957192734
 10
667960.8169499298
 20
270621.7940621277
 10
667960.8169499298
 20
270675.8172118645
 10
667974.9117415505
 20
270717.7098348145
 10
667985.5603646124
 20
270762.8181259716
 10
667991.9863597124
 20
270808.71864548064
 10
667994.1345108168
 20
270855.016988335
 10
667994.1345108168
 20
270875.722577185
 10
668008.2293024372
 20
270917.615200135
 10
668018.8779254991
 20
270962.7234912921
 10
668025.3039205993
 20
271008.6240108012
 10
668027.4520717035
 20
271054.9223536555
 10
668027.4520717035
 20
271108.945503392
 10
668041.5468633241
 20
271150.8381263424
 10
668052.1954863858
 20
271195.9464174995
 10
668058.6214814858
 20
271241.8469370085
 10
668060.7696325901
 20
271288.1452798628
 10
668060.7696325901
 20
271342.1684295991
 10
668074.8644242107
 20
271384.0610525493
 10
668085.5130472728
 20
271429.1693437064
 10
668091.9390423726
 20
271475.0698632156
 10
668094.087193477
 20
271521.36820607
 10
668094.087193477
 20
271542.0737949198
 10
668108.1819850976
 20
271583.9664178702
 10
668118.8306081593
 20
271629.0747090272
 10
668125.2566032595
 20
271674.9752285361
 10
668127.4047543637
 20
271721.2735713906
 10
668127.4047543637
 20
271775.2967211271
 10
668141.4995459843
 20
271817.18934407743
 10
668152.1481690462
 20
271862.2976352345
 10
668158.5741641462
 20
271908.1981547435
 10
668160.7223152503
 20
271954.4964975979
 10
668160.7223152503
 20
272008.5196473343
 10
668174.817106871
 20
272050.4122702847
 10
668185.465729933
 20
272095.5205614418
 10
668191.8917250329
 20
272141.4210809507
 10
668194.0398761372
 20
272187.71942380513
 10
668194.0398761372
 20
272208.4250126548
 10
668208.1346677579
 20
272250.3176356053
 10
668218.7832908196
 20
272295.4259267622
 10
668225.2092859197
 20
272341.3264462712
 10
668227.357437024
 20
272387.62478912564
 10
668227.357437024
 20
272441.6479388623
 10
668241.4522286447
 20
272483.5405618123
 10
668252.1008517063
 20
272528.6488529694
 10
668258.5268468064
 20
272574.5493724785
 10
668260.6749979106
 20
272620.8477153328
 10
668260.6749979106
 20
272674.870865069
 10
668274.769789531
 20
272716.7634880191
 10
668285.4184125932
 20
272761.8717791764
 10
668291.8444076933
 20
272807.7722986855
 10
668293.9925587975
 20
272854.0706415401
 10
668293.9925587975
 20
272874.77623039
 10
668308.087350418
 20
272916.66885334003
 10
668318.7359734799
 20
272961.7771444971
 10
668325.1619685801
 20
273007.6776640063
 10
668327.3101196843
 20
273053.9760068605
 10
668327.3101196843
 20
273107.999156597
 10
668341.4049113048
 20
273149.8917795475
 10
668352.0535343667
 20
273195.0000707045
 10
668358.479529467
 20
273240.9005902135
 10
668360.627680571
 20
273287.1989330679
 10
668360.627680571
 20
273307.9045219177
 10
668374.7224721914
 20
273349.797144868
 10
668385.3710952535
 20
273394.905436025
 10
668391.7970903534
 20
273440.805955534
 10
668393.9452414577
 20
273487.1042983884
 10
668393.9452414577
 20
273541.1274481248
 10
668408.0400330784
 20
273583.0200710752
 10
668418.6886561401
 20
273628.1283622323
 10
668425.1146512402
 20
273674.0288817412
 10
668427.2628023444
 20
273720.3272245956
 10
668427.2628023444
 20
273774.3503743321
 10
668441.357593965
 20
273816.24299728253
 10
668452.0062170269
 20
273861.35128843953
 10
668458.4322121269
 20
273907.2518079485
 10
668460.580363231
 20
273953.5501508029
 10
668460.580363231
 20
273974.25573965244
 10
668474.6751548517
 20
274016.14836260263
 10
668485.3237779137
 20
274061.2566537597
 10
668491.7497730138
 20
274107.157173269
 10
668493.897924118
 20
274153.4555161234
 10
668493.897924118
 20
274207.4786658598
 10
668507.9927157386
 20
274249.3712888102
 10
668518.6413388004
 20
274294.47957996733
 10
668525.0673339006
 20
274340.3800994763
 10
668527.2154850047
 20
274386.6784423306
 10
668527.2154850047
 20
274440.70159206743
 10
668541.3102766253
 20
274482.5942150174
 10
668551.9588996873
 20
274527.7025061745
 10
668558.3848947872
 20
274573.6030256836
 10
668560.5330458914
 20
274619.9013685379
 10
668560.5330458914
 20
274640.6069573878
 10
668574.6278375122
 20
274682.4995803379
 10
668585.276460574
 20
274727.6078714949
 10
668591.702455674
 20
274773.508391004
 10
668593.8506067783
 20
274819.8067338584
 10
668593.8506067783
 20
274873.8298835951
 10
668607.9453983988
 20
274915.7225065452
 10
668618.5940214606
 20
274960.8307977022
 10
668625.0200165607
 20
275006.73131721123
 10
668627.1681676648
 20
275053.0296600656
 10
668627.1681676648
 20
275107.0528098021
 10
668641.2629592855
 20
275148.9454327525
 10
668651.9115823474
 20
275194.0537239095
 10
668658.3375774474
 20
275239.9542434185
 10
668660.4857285515
 20
275286.2525862729
 10
668660.4857285515
 20
275306.9581751225
 10
668674.5805201723
 20
275348.8507980727
 10
668685.2291432343
 20
275393.9590892297
 10
668691.6551383344
 20
275439.8596087389
 10
668693.8032894385
 20
275486.1579515934
 10
668693.8032894385
 20
275540.1811013302
 10
668707.898081059
 20
275582.0737242801
 10
668718.5467041209
 20
275627.1820154372
 10
668724.9726992211
 20
275673.0825349463
 10
668727.1208503253
 20
275719.38087780064
 10
668727.1208503253
 20
275740.0864666506
 10
668741.2156419457
 20
275781.9790896006
 10
668751.8642650078
 20
275827.08738075773
 10
668758.2902601078
 20
275872.9879002669
 10
668760.438411212
 20
275919.2862431212
 10
668760.438411212
 20
275973.3093928577
 10
668774.5332028327
 20
276015.202015808
 10
668785.1818258944
 20
276060.3103069652
 10
668791.6078209945
 20
276106.2108264742
 10
668793.7559720988
 20
276152.5091693285
 10
668793.7559720988
 20
276206.5323190649
 10
668807.8507637193
 20
276248.4249420153
 10
668818.4993867811
 20
276293.53323317243
 10
668824.9253818812
 20
276339.4337526813
 10
668827.0735329854
 20
276385.7320955358
 10
668827.0735329854
 20
276406.4376843854
 10
668841.168324606
 20
276448.3303073358
 10
668851.8169476679
 20
276493.4385984928
 10
668858.2429427679
 20
276539.3391180018
 10
668860.391093872
 20
276585.6374608561
 10
668860.391093872
 20
276639.6606105924
 10
668874.4858854926
 20
276681.5532335425
 10
668885.1345085547
 20
276726.6615246997
 10
668891.5605036549
 20
276772.5620442089
 10
668893.708654759
 20
276818.8603870634
 10
668893.708654759
 20
276872.8835367999
 10
668907.8034463796
 20
276914.7761597503
 10
668918.4520694416
 20
276959.8844509073
 10
668924.8780645415
 20
277005.7849704164
 10
668927.0262156457
 20
277052.0833132707
 10
668927.0262156457
 20
277072.78890212043
 10
668941.1210072665
 20
277114.6815250708
 10
668951.7696303283
 20
277159.7898162279
 10
668958.1956254281
 20
277205.6903357369
 10
668960.3437765324
 20
277251.9886785912
 10
668960.3437765324
 20
277306.0118283278
 10
668974.4385681531
 20
277347.9044512781
 10
668985.0871912149
 20
277393.0127424352
 10
668991.513186315
 20
277438.9132619442
 10
668993.6613374191
 20
277485.2116047985
 10
668993.6613374191
 20
277505.91719364823
 10
669007.7561290397
 20
277547.8098165985
 10
669018.4047521016
 20
277592.9181077556
 10
669024.8307472017
 20
277638.8186272647
 10
669026.978898306
 20
277685.1169701189
 10
669026.978898306
 20
277739.1401198555
 10
669041.0736899265
 20
277781.0327428059
 10
669051.7223129882
 20
277826.1410339629
 10
669058.1483080885
 20
277872.04155347194
 10
669060.2964591926
 20
277918.3398963263
 10
669060.2964591926
 20
277972.3630460625
 10
669074.3912508133
 20
278014.2556690127
 10
669085.0398738752
 20
278059.3639601698
 10
669091.4658689754
 20
278105.264479679
 10
669093.6140200795
 20
278151.5628225336
 10
669093.6140200795
 20
278172.2684113833
 10
669107.7088117
 20
278214.16103433364
 10
669118.3574347621
 20
278259.26932549063
 10
669124.7834298621
 20
278305.16984499973
 10
669126.9315809662
 20
278351.468187854
 10
669126.9315809662
 20
278405.4913375908
 10
669141.026372587
 20
278447.3839605407
 10
669151.6749956487
 20
278492.4922516979
 10
669158.1009907487
 20
278538.3927712069
 10
669160.249141853
 20
278584.6911140613
 10
669160.249141853
 20
278638.7142637979
 10
669174.3439334736
 20
278680.60688674793
 10
669184.9925565354
 20
278725.7151779051
 10
669191.4185516355
 20
278771.6156974141
 10
669193.5667027397
 20
278817.9140402685
 10
669193.5667027397
 20
278838.6196291184
 10
669207.6614943604
 20
278880.5122520685
 10
669218.3101174221
 20
278925.6205432256
 10
669224.7361125223
 20
278971.5210627346
 10
669226.8842636263
 20
279017.8194055889
 10
669226.8842636263
 20
279071.84255532554
 10
669240.9790552469
 20
279113.7351782759
 10
669251.627678309
 20
279158.8434694329
 10
669258.053673409
 20
279204.7439889419
 10
669260.2018245131
 20
279251.0423317963
 10
669260.2018245131
 20
279305.0654815325
 10
669274.2966161339
 20
279346.95810448274
 10
669284.9452391957
 20
279392.0663956399
 10
669291.3712342959
 20
279437.966915149
 10
669293.5193854
 20
279484.2652580035
 10
669293.5193854
 20
279504.9708468532
 10
669296.2627886849
 20
279513.12480630924
 10
669313.6605804269
 20
279530.5225980513
 10
669346.9781413134
 20
279563.84015893773
 10
669446.9308239741
 20
279663.7928415982
 10
669480.248384861
 20
279697.1104024853
 10
669513.5659457474
 20
279730.4279633718
 10
669546.883506634
 20
279763.7455242583
 10
669646.8361892946
 20
279863.6982069187
 10
669680.1537501814
 20
279897.0157678058
 10
669713.4713110679
 20
279930.3333286923
 10
669746.7888719545
 20
279963.6508895787
 10
669780.1064328415
 20
279996.9684504658
 10
669815.9210035945
 20
280036.8459084836
 10
669847.261121058
 20
280080.3279987455
 10
669869.848096519
 20
280120.02767503
 10
669880.0591155019
 20
280130.2386940128
 10
669913.3766763882
 20
280163.5562548992
 10
669946.6942372747
 20
280196.8738157856
 10
670013.3293590489
 20
280263.50893755973
 10
670046.6469199357
 20
280296.8264984468
 10
670079.9644808222
 20
280330.1440593333
 10
670113.2820417087
 20
280363.4616202197
 10
670146.5996025953
 20
280396.77918110613
 10
670179.9171634826
 20
280430.0967419935
 10
670213.2347243696
 20
280463.4143028806
 10
670279.8698461428
 20
280530.0494246537
 10
670300.0110411698
 20
280550.1906196808
 10
705276.2485563922
 20
280550.1906196808
 10
705325.257126557
 20
280552.59825634473
 10
705373.7937174
 20
280559.7979794793
 10
705421.3908950193
 20
280571.7204518147
 10
705467.5902725747
 20
280588.2508534252
 10
705511.9469248051
 20
280609.2299875066
 10
705554.0336729018
 20
280634.4558135295
 10
705593.4451984739
 20
280663.6853929993
 10
705629.8019469852
 20
280696.6372290874
 10
705729.7546296457
 20
280796.5899117477
 10
705762.7064657338
 20
280832.9466602591
 10
705791.9360452038
 20
280872.3581858312
 10
705817.1618712266
 20
280914.444933928
 10
705838.1410053079
 20
280958.8015861585
 10
705854.6714069184
 20
281005.0009637138
 10
705866.5938792541
 20
281052.59814133303
 10
705873.7936023886
 20
281101.1347321763
 10
705876.2012390523
 20
281150.1433023411
 10
705876.2012390523
 20
285814.3652397875
 10
726499.2982545538
 20
285814.3652397875
 10
726499.2982545538
 20
271121.557475429
 10
726501.7058912178
 20
271072.5489052643
 10
726508.9056143522
 20
271024.012314421
 10
726520.8280866878
 20
270976.41513680184
 10
726537.3584882981
 20
270930.2157592465
 10
726558.3376223797
 20
270885.8591070161
 10
726583.5634484024
 20
270843.77235891944
 10
726612.7930278725
 20
270804.3608333473
 10
726645.7448639605
 20
270768.00408483593
 10
726745.6975466207
 20
270668.0514021756
 10
726782.0542951322
 20
270635.09956608753
 10
726821.4658207041
 20
270605.8699866177
 10
726863.5525688009
 20
270580.64416059473
 10
726907.9092210314
 20
270559.6650265132
 10
726954.1085985868
 20
270543.1346249027
 10
727001.705776206
 20
270531.2121525672
 10
727050.2423670492
 20
270524.0124294327
 10
727099.2509372141
 20
270521.60479276883
 10
727599.0143505153
 20
270521.60479276883
 10
727648.0229206802
 20
270524.0124294327
 10
727696.5595115235
 20
270531.2121525672
 10
727744.1566891426
 20
270543.1346249027
 10
727790.3560666981
 20
270559.6650265132
 10
727834.7127189285
 20
270580.64416059473
 10
727876.7994670252
 20
270605.8699866177
 10
727916.2109925973
 20
270635.09956608753
 10
727952.5677411088
 20
270668.0514021756
 10
728052.5204237689
 20
270768.00408483593
 10
728085.4722598569
 20
270804.3608333473
 10
728114.701839327
 20
270843.77235891944
 10
728139.9276653498
 20
270885.8591070161
 10
728160.9067994313
 20
270930.2157592465
 10
728177.4372010416
 20
270976.41513680184
 10
728180.3517441663
 20
270988.0506451834
 10
741092.6265096494
 20
270988.0506451834
 10
741141.6350798142
 20
270990.4582818472
 10
741190.1716706576
 20
270997.6580049817
 10
741237.7688482766
 20
271009.5804773172
 10
741283.9682258321
 20
271026.1108789277
 10
741328.3248780627
 20
271047.0900130092
 10
741370.4116261593
 20
271072.3158390321
 10
741409.8231517314
 20
271101.545418502
 10
741446.1799002428
 20
271134.4972545901
 10
741546.132582903
 20
271234.4499372504
 10
741579.084418991
 20
271270.8066857619
 10
741608.313998461
 20
271310.2182113339
 10
741633.5398244839
 20
271352.3049594306
 10
741654.5189585653
 20
271396.6616116611
 10
741671.0493601757
 20
271442.8609892164
 10
741682.9718325112
 20
271490.4581668356
 10
741690.1715556458
 20
271538.9947576789
 10
741692.5791923098
 20
271588.0033278436
 10
741692.5791923098
 20
293777.2622917209
 10
766113.8781489007
 20
293777.2622917209
 10
766113.8781489007
 20
243368.0292567655
 10
766116.2857855645
 20
243319.0206866008
 10
766123.485508699
 20
243270.4840957575
 10
766135.4079810346
 20
243222.88691813842
 10
766151.9383826449
 20
243176.6875405831
 10
766172.9175167263
 20
243132.33088835262
 10
766198.1433427491
 20
243090.24414025582
 10
766227.3729222191
 20
243050.8326146838
 10
766260.3247583071
 20
243014.4758661724
 10
766360.2774409674
 20
242914.5231835122
 10
766396.6341894788
 20
242881.571347424
 10
766436.045715051
 20
242852.34176795412
 10
766478.1324631479
 20
242827.1159419312
 10
766522.489115378
 20
242806.13680784972
 10
766568.6884929335
 20
242789.6064062392
 10
766616.2856705528
 20
242777.6839339037
 10
766664.8222613961
 20
242770.4842107692
 10
766713.8308315607
 20
242768.0765741053
 10
769212.4113113685
 20
242768.0765741053
 10
769212.4113113685
 20
234172.6190387211
 10
767080.3240013152
 20
234172.6190387211
 10
767031.3154311503
 20
234170.21140205712
 10
766982.778840307
 20
234163.01167892272
 10
766935.1816626878
 20
234151.08920658712
 10
766888.9822851324
 20
234134.5588049766
 10
766844.6256329021
 20
234113.5796708952
 10
766802.5388848053
 20
234088.3538448723
 10
766763.127359233
 20
234059.1242654023
 10
766726.7706107217
 20
234026.1724293142
 10
766626.8179280616
 20
233926.219746654
 10
766593.8660919735
 20
233889.86299814252
 10
766564.6365125035
 20
233850.4514725705
 10
766539.4106864805
 20
233808.3647244737
 10
766518.4315523992
 20
233764.0080722433
 10
766501.9011507889
 20
233717.80869468802
 10
766489.9786784532
 20
233670.21151706882
 10
766482.7789553188
 20
233621.67492622562
 10
766480.371318655
 20
233572.6663560608
 10
766480.371318655
 20
166004.6528777299
 10
766482.5194697592
 20
165958.3545348755
 10
766488.9454648591
 20
165912.4540153665
 10
766499.594087921
 20
165867.34572420942
 10
766514.3738395392
 20
165823.4172591062
 10
766533.157723155
 20
165781.04607998
 10
766566.4752840416
 20
165714.4109582065
 10
766592.9808007316
 20
165667.82391364302
 10
766624.3209181952
 20
165624.3418233811
 10
766633.0010383963
 20
165614.67701038372
 10
766633.1104058151
 20
165614.45827554632
 10
766659.6159225053
 20
165567.8712309827
 10
766690.9560399688
 20
165524.3891407208
 10
766726.7706107217
 20
165484.511682703
 10
766760.0881716083
 20
165451.1941218163
 10
766793.4057324961
 20
165417.8765609288
 10
766803.6167514782
 20
165407.6655419466
 10
766826.203726939
 20
165367.96586566232
 10
766857.5438444025
 20
165324.4837754004
 10
766893.3584151556
 20
165284.6063173825
 10
766926.675976042
 20
165251.2887564958
 10
766959.9935369297
 20
165217.97119560832
 10
766970.204555912
 20
165207.76017662612
 10
766992.7915313727
 20
165168.0605003417
 10
767024.1316488363
 20
165124.57841007982
 10
767059.9462195893
 20
165084.70095206212
 10
767093.263780476
 20
165051.3833911753
 10
767103.4747994591
 20
165041.17237219212
 10
767126.06177492
 20
165001.4726959076
 10
767157.4018923835
 20
164957.9906056459
 10
767193.2164631364
 20
164918.11314762832
 10
767259.8515849097
 20
164851.4780258548
 10
767270.0626038929
 20
164841.2670068716
 10
767292.6495793539
 20
164801.5673305871
 10
767323.9896968171
 20
164758.0852403254
 10
767359.80426757
 20
164718.2077823078
 10
767426.4393893435
 20
164651.5726605343
 10
767436.6504083265
 20
164641.3616415514
 10
767459.2373837874
 20
164601.6619652667
 10
767490.5775012511
 20
164558.1798750046
 10
767526.3920720044
 20
164518.3024169867
 10
767559.7096328911
 20
164484.9848560999
 10
767569.9206518735
 20
164474.7738371175
 10
767592.5076273343
 20
164435.0741608332
 10
767623.8477447978
 20
164391.59207057132
 10
767659.6623155508
 20
164351.7146125535
 10
767692.9798764373
 20
164318.3970516668
 10
767726.2974373244
 20
164285.0794907799
 10
767736.5084563073
 20
164274.86847179692
 10
767759.0954317681
 20
164235.1687955127
 10
767790.4355492316
 20
164191.68670525082
 10
767826.2501199845
 20
164151.809247233
 10
767859.5676808715
 20
164118.4916863462
 10
767892.8852417582
 20
164085.1741254594
 10
767903.0962607412
 20
164074.9631064763
 10
767925.6832362019
 20
164035.2634301922
 10
767957.0233536654
 20
163991.7813399303
 10
767992.8379244183
 20
163951.9038819125
 10
768026.155485305
 20
163918.5863210257
 10
768036.3665042882
 20
163908.3753020429
 10
768058.9534797488
 20
163868.67562575822
 10
768090.2935972128
 20
163825.1935354961
 10
768126.1081679658
 20
163785.3160774781
 10
768159.4257288527
 20
163751.9985165914
 10
768192.7432897388
 20
163718.6809557052
 10
768202.9543087219
 20
163708.4699367223
 10
768225.5412841822
 20
163668.77026043792
 10
768256.881401646
 20
163625.288170176
 10
768292.695972399
 20
163585.41071215822
 10
768326.0135332857
 20
163552.09315127152
 10
768359.331094173
 20
163518.77559038412
 10
768369.5421131556
 20
163508.5645714018
 10
768392.1290886163
 20
163468.8648951174
 10
768423.46920608
 20
163425.3828048555
 10
768459.2837768327
 20
163385.5053468378
 10
768525.9188986063
 20
163318.8702250643
 10
768536.1299175895
 20
163308.6592060811
 10
768558.71689305
 20
163268.9595297969
 10
768590.0570105137
 20
163225.477439535
 10
768625.8715812666
 20
163185.5999815172
 10
768669.4001611362
 20
163142.0714016475
 10
768691.9871365973
 20
163102.3717253628
 10
768723.327254061
 20
163058.88963510102
 10
768759.1418248137
 20
163019.0121770834
 10
768792.4593857004
 20
162985.69461619662
 10
768835.98796557
 20
162942.16603632702
 10
768858.5749410309
 20
162902.4663600423
 10
768889.9150584945
 20
162858.9842697805
 10
768925.7296292474
 20
162819.10681176282
 10
768959.0471901342
 20
162785.7892508761
 10
769002.5757700038
 20
162742.26067100652
 10
769025.1627454646
 20
162702.5609947221
 10
769056.502862928
 20
162659.0789044601
 10
769092.3174336811
 20
162619.2014464423
 10
769125.634994568
 20
162585.8838855556
 10
769135.846013551
 20
162575.6728665726
 10
769158.4329890116
 20
162535.9731902884
 10
769189.7731064754
 20
162492.4911000265
 10
769225.587677228
 20
162452.6136420087
 10
769258.9052381146
 20
162419.2960811219
 10
769292.2227990015
 20
162385.9785202351
 10
769302.4338179845
 20
162375.76750125212
 10
769325.0207934452
 20
162336.0678249679
 10
769356.3609109089
 20
162292.585734706
 10
769378.9991158021
 20
162267.3793997911
 10
769378.9991158021
 20
161207.1606967365
 10
768269.279937599
 20
161207.1606967365
 10
768267.3359805202
 20
161210.57746525732
 10
768235.9958630565
 20
161254.0595555191
 10
768200.181292304
 20
161293.9370135369
 10
768133.5461705304
 20
161360.57213531042
 10
768123.3351515472
 20
161370.7831542936
 10
768100.7481760863
 20
161410.4828305781
 10
768069.4080586227
 20
161453.96492083982
 10
768033.59348787
 20
161493.8423788574
 10
767966.9583660966
 20
161560.477500631
 10
767956.7473471133
 20
161570.6885196141
 10
767934.1603716525
 20
161610.38819589862
 10
767902.8202541891
 20
161653.8702861603
 10
767867.0056834362
 20
161693.7477441779
 10
767800.3705616627
 20
161760.3828659514
 10
767790.1595426799
 20
161770.59388493432
 10
767767.5725672191
 20
161810.2935612188
 10
767736.2324497555
 20
161853.7756514807
 10
767700.4178790025
 20
161893.6531094984
 10
767667.1003181157
 20
161926.9706703852
 10
767633.7827572285
 20
161960.2882312726
 10
767623.571738246
 20
161970.4992502549
 10
767600.9847627853
 20
162010.19892653922
 10
767569.6446453218
 20
162053.68101680122
 10
767533.8300745687
 20
162093.5584748189
 10
767500.5125136821
 20
162126.8760357057
 10
767467.1949527947
 20
162160.19359659302
 10
767456.9839338122
 20
162170.40461557542
 10
767434.3969583515
 20
162210.1042918597
 10
767403.056840888
 20
162253.58638212172
 10
767367.242270135
 20
162293.46384013942
 10
767323.7136902651
 20
162336.9924200093
 10
767301.1267148043
 20
162376.6920962939
 10
767269.7865973406
 20
162420.1741865556
 10
767233.9720265882
 20
162460.05164457322
 10
767200.6544657012
 20
162493.3692054599
 10
767167.3369048145
 20
162526.6867663468
 10
767157.1258858313
 20
162536.8977853299
 10
767134.5389103706
 20
162576.5974616144
 10
767103.1987929068
 20
162620.0795518762
 10
767067.3842221542
 20
162659.9570098937
 10
767034.0666612675
 20
162693.27457078052
 10
767000.7491003807
 20
162726.5921316673
 10
766990.5380813977
 20
162736.8031506501
 10
766967.951105937
 20
162776.5028269345
 10
766936.6109884735
 20
162819.9849171965
 10
766900.7964177205
 20
162859.8623752142
 10
766867.4788568339
 20
162893.17993610102
 10
766834.1612959463
 20
162926.4974969885
 10
766823.9502769641
 20
162936.7085159707
 10
766801.3633015031
 20
162976.4081922551
 10
766770.0231840396
 20
163019.89028251692
 10
766734.2086132868
 20
163059.7677405347
 10
766700.8910524
 20
163093.0853014215
 10
766667.5734915126
 20
163126.402862309
 10
766657.3624725301
 20
163136.6138812912
 10
766634.7754970696
 20
163176.31355757552
 10
766603.4353796059
 20
163219.7956478374
 10
766567.6208088532
 20
163259.6731058553
 10
766534.3032479663
 20
163292.990666742
 10
766500.9856870795
 20
163326.3082276289
 10
766490.7746680964
 20
163336.51924661192
 10
766468.1876926358
 20
163376.2189228961
 10
766436.8475751721
 20
163419.70101315802
 10
766401.0330044191
 20
163459.57847117572
 10
766367.7154435326
 20
163492.8960320625
 10
766334.3978826456
 20
163526.2135929493
 10
766301.080321759
 20
163559.531153836
 10
766267.7627608717
 20
163592.8487147234
 10
766227.8853028538
 20
163628.6632854761
 10
766184.4032125921
 20
163660.0034029395
 10
766137.8161680289
 20
163686.50891962962
 10
766071.1810462553
 20
163719.82648051632
 10
766028.8098671292
 20
163738.61036413192
 10
765984.8814020258
 20
163753.3901157502
 10
765939.7731108688
 20
163764.03873881212
 10
765893.8725913595
 20
163770.46473391211
 10
765847.5742485052
 20
163772.6128850164
 10
765547.9527872233
 20
163772.6128850164
 10
765547.9527872233
 20
163938.9641027514
 10
765545.5451505594
 20
163987.97267291622
 10
765538.345427425
 20
164036.50926375942
 10
765526.4229550896
 20
164084.1064413786
 10
765509.892553479
 20
164130.3058189339
 10
765488.9134193977
 20
164174.6624711643
 10
765463.6875933746
 20
164216.7492192611
 10
765434.4580139047
 20
164256.16074483312
 10
765401.5061778168
 20
164292.5174933445
 10
765301.5534951566
 20
164392.47017600492
 10
765265.1967466451
 20
164425.4220120929
 10
765225.7852210731
 20
164454.6515915628
 10
765183.6984729761
 20
164479.8774175858
 10
765139.3418207457
 20
164500.8565516672
 10
765093.1424431904
 20
164517.3869532778
 10
765045.5452655714
 20
164529.3094256132
 10
764997.008674728
 20
164536.50914874772
 10
764948.0001045632
 20
164538.9167854117
 10
761183.3523110589
 20
164538.9167854117
 10
761183.3523110589
 20
167037.4972652192
 10
761180.9446743949
 20
167086.505835384
 10
761173.7449512605
 20
167135.0424262272
 10
761161.822478925
 20
167182.63960384642
 10
761145.2920773147
 20
167228.8389814017
 10
761124.3129432333
 20
167273.1956336321
 10
761099.0871172104
 20
167315.2823817289
 10
761069.8575377405
 20
167354.6939073009
 10
761036.9057016523
 20
167391.0506558124
 10
760936.9530189922
 20
167491.0033384726
 10
760900.5962704808
 20
167523.95517456072
 10
760861.1847449085
 20
167553.18475403072
 10
760819.0979968118
 20
167578.4105800536
 10
760774.7413445814
 20
167599.38971413512
 10
760728.5419670261
 20
167615.9201157456
 10
760680.9447894071
 20
167627.8425880811
 10
760632.4081985635
 20
167635.0423112155
 10
760583.3996283987
 20
167637.44994787942
 10
757418.2313441574
 20
167637.44994787942
 10
757371.933001303
 20
167635.3017967752
 10
757326.0324817941
 20
167628.8758016753
 10
757280.924190637
 20
167618.2271786133
 10
757239.0315676866
 20
167604.13238699271
 10
751333.7296739189
 20
167604.13238699271
 10
751291.8370509688
 20
167618.22717861322
 10
751246.7287598116
 20
167628.8758016753
 10
751200.8282403025
 20
167635.3017967752
 10
751154.5298974481
 20
167637.44994787942
 10
747922.7264914335
 20
167637.44994787942
 10
747873.7179212685
 20
167635.0423112155
 10
747825.1813304253
 20
167627.8425880811
 10
747777.5841528063
 20
167615.9201157456
 10
747731.384775251
 20
167599.38971413512
 10
747687.0281230204
 20
167578.41058005372
 10
747644.9413749238
 20
167553.1847540308
 10
747605.5298493515
 20
167523.9551745608
 10
747569.1731008403
 20
167491.0033384728
 10
747469.22041818
 20
167391.0506558126
 10
747436.2685820918
 20
167354.69390730112
 10
747407.0390026218
 20
167315.2823817291
 10
747381.8131765987
 20
167273.1956336323
 10
747360.8340425175
 20
167228.83898140182
 10
747344.3036409069
 20
167182.6396038465
 10
747332.3811685715
 20
167135.0424262273
 10
747325.1814454369
 20
167086.505835384
 10
747322.773808773
 20
167037.4972652192
 10
747322.773808773
 20
164538.9167854117
 10
743558.1260152691
 20
164538.9167854117
 10
743509.117445104
 20
164536.50914874772
 10
743460.5808542608
 20
164529.3094256132
 10
743412.9836766417
 20
164517.3869532778
 10
743366.7842990863
 20
164500.8565516672
 10
743322.4276468559
 20
164479.8774175858
 10
743280.3408987591
 20
164454.6515915628
 10
743240.9293731871
 20
164425.4220120929
 10
743204.5726246756
 20
164392.47017600492
 10
743104.6199420154
 20
164292.5174933445
 10
743071.6681059273
 20
164256.16074483312
 10
743042.4385264574
 20
164216.7492192611
 10
743017.2127004345
 20
164174.6624711643
 10
742996.2335663531
 20
164130.3058189339
 10
742979.7031647428
 20
164084.1064413786
 10
742967.780692407
 20
164036.50926375942
 10
742960.5809692728
 20
163987.97267291622
 10
742958.1733326089
 20
163938.9641027514
 10
742958.1733326089
 20
163772.6128850164
 10
742658.5518713266
 20
163772.6128850164
 10
742612.2535284724
 20
163770.46473391211
 10
742566.3530089632
 20
163764.03873881212
 10
742521.2447178061
 20
163753.3901157502
 10
742477.3162527028
 20
163738.61036413192
 10
742434.9450735766
 20
163719.82648051632
 10
742368.3099518033
 20
163686.50891962962
 10
742321.7229072397
 20
163660.00340293942
 10
742278.2408169776
 20
163628.66328547572
 10
742238.3633589599
 20
163592.8487147227
 10
742171.7282371864
 20
163526.2135929492
 10
742138.4106763003
 20
163492.89603206312
 10
742105.0931154133
 20
163459.5784711763
 10
742069.2785446603
 20
163419.7010131584
 10
742037.9384271962
 20
163376.2189228963
 10
742015.3514517354
 20
163336.5192466116
 10
742005.1404327526
 20
163326.3082276287
 10
741971.8228718659
 20
163292.99066674212
 10
741938.5053109791
 20
163259.6731058553
 10
741902.6907402263
 20
163219.7956478376
 10
741871.3506227628
 20
163176.3135575759
 10
741848.7636473019
 20
163136.6138812913
 10
741838.5526283188
 20
163126.4028623082
 10
741805.2350674322
 20
163093.0853014216
 10
741771.9175065452
 20
163059.7677405347
 10
741736.1029357924
 20
163019.89028251692
 10
741704.7628183289
 20
162976.4081922551
 10
741682.1758428682
 20
162936.7085159708
 10
741671.964823885
 20
162926.4974969877
 10
741638.6472629985
 20
162893.1799361011
 10
741605.3297021117
 20
162859.8623752142
 10
741569.5151313586
 20
162819.9849171965
 10
741538.175013895
 20
162776.5028269345
 10
741515.5880384345
 20
162736.80315065032
 10
741505.3770194519
 20
162726.5921316678
 10
741472.0594585646
 20
162693.2745707806
 10
741438.7418976777
 20
162659.9570098937
 10
741402.9273269249
 20
162620.079551876
 10
741371.5872094613
 20
162576.597461614
 10
741349.0002340005
 20
162536.8977853296
 10
741338.7892150176
 20
162526.6867663467
 10
741305.4716541314
 20
162493.3692054607
 10
741272.1540932441
 20
162460.05164457322
 10
741236.3395224911
 20
162420.1741865555
 10
741204.9994050274
 20
162376.6920962935
 10
741182.4124295666
 20
162336.9924200091
 10
741138.8838496971
 20
162293.46384013942
 10
741103.0692789443
 20
162253.5863821219
 10
741071.7291614808
 20
162210.10429186022
 10
741049.1421860199
 20
162170.4046155757
 10
741038.9311670369
 20
162160.1935965926
 10
740972.2960452632
 20
162093.5584748189
 10
740936.4814745105
 20
162053.68101680142
 10
740905.1413570473
 20
162010.1989265396
 10
740882.5543815863
 20
161970.4992502552
 10
740872.3433626031
 20
161960.2882312721
 10
740805.7082408296
 20
161893.6531094984
 10
740769.8936700767
 20
161853.7756514807
 10
740738.553552613
 20
161810.2935612188
 10
740715.9665771525
 20
161770.5938849346
 10
740705.75555817
 20
161760.3828659522
 10
740639.1204363955
 20
161693.7477441779
 10
740603.3058656428
 20
161653.8702861602
 10
740571.9657481791
 20
161610.3881958982
 10
740549.3787727186
 20
161570.6885196141
 10
740539.1677537361
 20
161560.4775006317
 10
740472.532631962
 20
161493.8423788574
 10
740436.7180612091
 20
161453.96492083961
 10
740405.3779437456
 20
161410.4828305777
 10
740382.7909682847
 20
161370.7831542933
 10
740372.5799493019
 20
161360.5721353105
 10
740339.2623884152
 20
161327.2545744237
 10
740305.9448275289
 20
161293.9370135375
 10
740270.1302567758
 20
161254.0595555196
 10
740238.7901393118
 20
161210.5774652574
 10
740236.8461822332
 20
161207.1606967365
 10
738594.0460298419
 20
161207.1606967365
 10
738594.0460298419
 20
161632.8509856995
 10
738614.1872248689
 20
161652.9921807267
 10
738647.5047857552
 20
161686.3097416129
 10
738683.3193565083
 20
161726.1871996308
 10
738714.659473972
 20
161769.66928989292
 10
738737.246449433
 20
161809.3689661775
 10
738747.4574684157
 20
161819.5799851603
 10
738814.0925901895
 20
161886.21510693402
 10
738849.9071609424
 20
161926.09256495172
 10
738881.247278406
 20
161969.5746552136
 10
738903.8342538666
 20
162009.2743314978
 10
738914.0452728496
 20
162019.4853504808
 10
738947.3628337365
 20
162052.8029113677
 10
738983.1774044896
 20
162092.68036938552
 10
739014.517521953
 20
162136.1624596474
 10
739037.1044974136
 20
162175.86213593162
 10
739047.3155163963
 20
162186.0731549141
 10
739080.6330772834
 20
162219.3907158013
 10
739113.9506381702
 20
162252.7082766882
 10
739146.5799843919
 20
162288.672476996
 10
739175.566703751
 20
162327.6323029637
 10
739200.637382155
 20
162369.2202702497
 10
739221.5555431435
 20
162413.04410485472
 10
739238.1238784273
 20
162458.69044320242
 10
739250.1861089778
 20
162505.7287311473
 10
739257.62845911
 20
162553.71528513002
 10
739260.380729663
 20
162602.1974771744
 10
739258.4169601415
 20
162650.71800425212
 10
739251.7556735902
 20
162698.81920174352
 10
739240.4597018727
 20
162746.0473603101
 10
739224.6355930197
 20
162791.9570054583
 10
739158.0004712461
 20
162958.5448098921
 10
739137.3294787846
 20
163003.60476064502
 10
739112.2978837449
 20
163046.3962123727
 10
739083.1517656386
 20
163086.4984927385
 10
739050.1776528524
 20
163123.5173659946
 10
739013.699705855
 20
163157.0889086171
 10
738974.0765304561
 20
163186.8830869497
 10
738931.6976524396
 20
163212.6070016841
 10
738886.9796882301
 20
163234.0077672817
 10
738840.3622492391
 20
163250.87499803002
 10
738792.3036201515
 20
163263.0428762929
 10
738746.977865667
 20
163269.8369333226
 10
738741.7275008803
 20
163272.16451171742
 10
738697.799035777
 20
163286.9442633357
 10
738652.6907446198
 20
163297.59288639762
 10
738606.7902251107
 20
163304.0188814976
 10
738560.4918822565
 20
163306.1670326018
 10
735474.5706918256
 20
163306.1670326018
 10
735432.6780688751
 20
163320.2618242225
 10
735387.569777718
 20
163330.9104472844
 10
735341.6692582091
 20
163337.3364423844
 10
735295.3709153546
 20
163339.4845934886
 10
732209.4497249238
 20
163339.4845934886
 10
732167.5571019738
 20
163353.57938510922
 10
732122.4488108166
 20
163364.2280081711
 10
732076.5482913075
 20
163370.6540032711
 10
732030.2499484533
 20
163372.8021543753
 10
728677.7882709282
 20
163372.8021543753
 10
728635.8956479782
 20
163386.89694599592
 10
728590.787356821
 20
163397.5455690578
 10
728544.8868373119
 20
163403.9715641579
 10
728498.5884944574
 20
163406.11971526212
 10
724912.9038907256
 20
163406.11971526212
 10
724871.0112677752
 20
163420.2145068827
 10
724825.902976618
 20
163430.8631299446
 10
724780.0024571092
 20
163437.2891250446
 10
724733.7041142546
 20
163439.4372761489
 10
721148.0195105226
 20
163439.4372761489
 10
721106.1268875721
 20
163453.5320677695
 10
721061.0185964152
 20
163464.18069083142
 10
721015.118076906
 20
163470.60668593142
 10
720968.819734052
 20
163472.7548370356
 10
718682.5200049031
 20
163472.7548370356
 10
718640.6273819531
 20
163486.8496286562
 10
718595.5190907957
 20
163497.49825171812
 10
718549.6185712867
 20
163503.92424681812
 10
718503.3202284324
 20
163506.0723979223
 10
717549.7229347536
 20
163506.0723979223
 10
717507.8303118035
 20
163520.1671895429
 10
717462.7220206462
 20
163530.8158126049
 10
717416.8215011371
 20
163537.2418077049
 10
717370.5231582829
 20
163539.3899588091
 10
716416.925864604
 20
163539.3899588091
 10
716375.0332416536
 20
163553.48475042972
 10
716329.9249504964
 20
163564.1333734916
 10
716284.0244309875
 20
163570.5593685916
 10
716237.7260881333
 20
163572.7075196958
 10
715284.1287944546
 20
163572.7075196958
 10
715242.2361715046
 20
163586.8023113164
 10
715197.1278803472
 20
163597.4509343784
 10
715151.227360838
 20
163603.8769294784
 10
715104.9290179838
 20
163606.02508058262
 10
714151.3317243049
 20
163606.02508058262
 10
714109.4391013548
 20
163620.1198722032
 10
714064.3308101977
 20
163630.7684952651
 10
714018.4302906885
 20
163637.19449036522
 10
713972.1319478342
 20
163639.3426414693
 10
713018.5346541555
 20
163639.3426414693
 10
712976.6420312049
 20
163653.43743309
 10
712931.5337400478
 20
163664.08605615192
 10
712885.6332205388
 20
163670.51205125192
 10
712839.3348776846
 20
163672.6602023561
 10
711885.737584006
 20
163672.6602023561
 10
711843.8449610557
 20
163686.7549939767
 10
711798.7366698985
 20
163697.4036170387
 10
711752.8361503895
 20
163703.8296121386
 10
711706.5378075353
 20
163705.97776324282
 10
709920.0014916876
 20
163705.97776324282
 10
709878.1088687375
 20
163720.0725548634
 10
709833.0005775803
 20
163730.7211779253
 10
709787.1000580712
 20
163737.1471730254
 10
709740.8017152171
 20
163739.29532412972
 10
709420.2380783864
 20
163739.29532412972
 10
709378.3454554358
 20
163753.3901157503
 10
709333.2371642787
 20
163764.03873881212
 10
709287.3366447698
 20
163770.46473391211
 10
709241.0383019155
 20
163772.6128850164
 10
708054.2180820294
 20
163772.6128850164
 10
708012.3254590791
 20
163786.70767663702
 10
707967.2171679221
 20
163797.3562996989
 10
707921.3166484131
 20
163803.7822947989
 10
707875.0183055588
 20
163805.9304459031
 10
706788.150768333
 20
163805.9304459031
 10
706746.2581453829
 20
163820.0252375236
 10
706701.1498542257
 20
163830.6738605857
 10
706655.2493347166
 20
163837.0998556857
 10
706608.9509918621
 20
163839.24800678992
 10
705942.5997741274
 20
163839.24800678992
 10
705896.301431273
 20
163837.0998556857
 10
705850.4009117638
 20
163830.6738605857
 10
705805.2926206068
 20
163820.02523752372
 10
705761.3641555036
 20
163805.2454859055
 10
705718.9929763775
 20
163786.4616022899
 10
705652.3578546039
 20
163753.1440414031
 10
705605.7708100403
 20
163726.6385247129
 10
705562.2887197782
 20
163695.2984072493
 10
705522.4112617603
 20
163659.48383649622
 10
705489.0937008735
 20
163626.1662756094
 10
705455.7761399869
 20
163592.8487147229
 10
705389.1410182134
 20
163526.2135929492
 10
705355.8234573272
 20
163492.89603206332
 10
705312.2948774571
 20
163449.3674521929
 10
705272.5952011729
 20
163426.7804767322
 10
705229.1131109111
 20
163395.4403592688
 10
705189.2356528933
 20
163359.6257885161
 10
705155.9180920066
 20
163326.3082276294
 10
705122.6005311195
 20
163292.99066674212
 10
705055.9654093458
 20
163226.35554496842
 10
705022.6478484591
 20
163193.0379840819
 10
705002.5066534322
 20
163172.8967890549
 10
703123.2190707906
 20
163172.8967890549
 10
703081.3264478403
 20
163186.9915806754
 10
703036.2181566831
 20
163197.64020373742
 10
702990.317637174
 20
163204.06619883742
 10
702944.0192943198
 20
163206.2143499416
 10
701990.422000641
 20
163206.2143499416
 10
701948.5293776909
 20
163220.30914156212
 10
701903.4210865337
 20
163230.9577646241
 10
701857.5205670246
 20
163237.38375972412
 10
701811.2222241701
 20
163239.53191082831
 10
700824.3073696045
 20
163239.53191082831
 10
700782.4147466542
 20
163253.6267024489
 10
700737.3064554973
 20
163264.2753255108
 10
700691.4059359882
 20
163270.7013206109
 10
700645.1075931339
 20
163272.8494717151
 10
699691.510299455
 20
163272.8494717151
 10
699649.6176765047
 20
163286.9442633357
 10
699604.5093853476
 20
163297.5928863977
 10
699558.6088658386
 20
163304.0188814976
 10
699512.3105229842
 20
163306.1670326018
 10
698525.3956684188
 20
163306.1670326018
 10
698483.5030454684
 20
163320.2618242225
 10
698438.3947543114
 20
163330.9104472844
 10
698392.4942348024
 20
163337.3364423844
 10
698346.195891948
 20
163339.4845934886
 10
697392.598598269
 20
163339.4845934886
 10
697350.705975319
 20
163353.57938510922
 10
697305.5976841621
 20
163364.2280081711
 10
697259.6971646529
 20
163370.6540032711
 10
697213.3988217985
 20
163372.8021543753
 10
696226.4839672331
 20
163372.8021543753
 10
696184.5913442828
 20
163386.89694599592
 10
696139.4830531257
 20
163397.5455690578
 10
696093.5825336167
 20
163403.9715641579
 10
696047.2841907622
 20
163406.11971526212
 10
695060.3693361967
 20
163406.11971526212
 10
695018.4767132464
 20
163420.2145068827
 10
694973.3684220894
 20
163430.8631299446
 10
694927.4679025804
 20
163437.2891250446
 10
694881.1695597259
 20
163439.4372761489
 10
693927.572266047
 20
163439.4372761489
 10
693885.6796430968
 20
163453.5320677695
 10
693840.5713519396
 20
163464.18069083142
 10
693794.6708324306
 20
163470.60668593142
 10
693748.3724895762
 20
163472.7548370356
 10
692761.4576350108
 20
163472.7548370356
 10
692719.5650120605
 20
163486.8496286562
 10
692674.4567209034
 20
163497.49825171812
 10
692628.5562013944
 20
163503.92424681812
 10
692582.25785854
 20
163506.0723979223
 10
691628.6605648614
 20
163506.0723979223
 10
691586.7679419112
 20
163520.1671895429
 10
691541.6596507541
 20
163530.8158126049
 10
691495.7591312451
 20
163537.2418077049
 10
691449.4607883905
 20
163539.3899588091
 10
690462.545933825
 20
163539.3899588091
 10
690420.6533108748
 20
163553.48475042972
 10
690375.5450197179
 20
163564.1333734916
 10
690329.6445002087
 20
163570.5593685916
 10
690283.3461573543
 20
163572.7075196958
 10
689329.7488636755
 20
163572.7075196958
 10
689287.8562407255
 20
163586.8023113164
 10
689242.7479495682
 20
163597.4509343784
 10
689196.847430059
 20
163603.8769294784
 10
689150.5490872047
 20
163606.02508058262
 10
688163.6342326391
 20
163606.02508058262
 10
688121.741609689
 20
163620.1198722032
 10
688076.6333185318
 20
163630.7684952651
 10
688030.7327990228
 20
163637.19449036522
 10
687984.4344561684
 20
163639.3426414693
 10
687030.8371624897
 20
163639.3426414693
 10
686988.9445395393
 20
163653.43743309
 10
686943.836248382
 20
163664.08605615192
 10
686897.935728873
 20
163670.51205125192
 10
686851.6373860189
 20
163672.6602023561
 10
685864.7225314535
 20
163672.6602023561
 10
685822.8299085035
 20
163686.7549939767
 10
685777.7216173462
 20
163697.4036170387
 10
685731.8210978372
 20
163703.8296121386
 10
685685.5227549826
 20
163705.97776324282
 10
684731.9254613039
 20
163705.97776324282
 10
684690.0328383538
 20
163720.0725548634
 10
684644.9245471965
 20
163730.7211779253
 10
684599.0240276875
 20
163737.1471730254
 10
684552.7256848332
 20
163739.29532412972
 10
683565.8108302675
 20
163739.29532412972
 10
683523.9182073174
 20
163753.3901157502
 10
683478.8099161603
 20
163764.03873881212
 10
683432.9093966512
 20
163770.46473391211
 10
683386.6110537968
 20
163772.6128850164
 10
682433.0137601182
 20
163772.6128850164
 10
682391.1211371677
 20
163786.70767663702
 10
682346.0128460106
 20
163797.3562996989
 10
682300.1123265016
 20
163803.7822947989
 10
682253.8139836474
 20
163805.9304459031
 10
681266.8991290818
 20
163805.9304459031
 10
681225.0065061315
 20
163820.02523752372
 10
681179.8982149742
 20
163830.6738605857
 10
681133.9976954652
 20
163837.0998556857
 10
681087.6993526111
 20
163839.24800678992
 10
680100.7844980456
 20
163839.24800678992
 10
680058.8918750953
 20
163853.34279841042
 10
680013.7835839384
 20
163863.9914214723
 10
679967.8830644292
 20
163870.4174165724
 10
679921.5847215748
 20
163872.56556767662
 10
678967.9874278961
 20
163872.56556767662
 10
678926.0948049459
 20
163886.6603592971
 10
678880.9865137887
 20
163897.3089823591
 10
678835.0859942797
 20
163903.7349774591
 10
678788.7876514255
 20
163905.8831285634
 10
677801.8727968597
 20
163905.8831285634
 10
677759.9801739096
 20
163919.9779201839
 10
677714.8718827523
 20
163930.62654324592
 10
677668.9713632433
 20
163937.05253834592
 10
677622.6730203889
 20
163939.2006894501
 10
676669.0757267101
 20
163939.2006894501
 10
676627.1831037597
 20
163953.2954810707
 10
676582.0748126026
 20
163963.9441041327
 10
676536.1742930936
 20
163970.3700992327
 10
676489.8759502394
 20
163972.5182503368
 10
675502.9610956738
 20
163972.5182503368
 10
675461.0684727235
 20
163986.61304195752
 10
675415.9601815664
 20
163997.2616650194
 10
675370.0596620574
 20
164003.6876601194
 10
675323.7613192032
 20
164005.8358112236
 10
674370.1640255244
 20
164005.8358112236
 10
674328.2714025743
 20
164019.9306028442
 10
674283.1631114171
 20
164030.5792259061
 10
674237.2625919081
 20
164037.0052210061
 10
674190.9642490535
 20
164039.15337211042
 10
673204.0493944881
 20
164039.15337211042
 10
673162.1567715378
 20
164053.248163731
 10
673117.0484803809
 20
164063.8967867929
 10
673071.1479608717
 20
164070.3227818929
 10
673024.8496180173
 20
164072.4709329971
 10
672071.2523243384
 20
164072.4709329971
 10
672029.3597013883
 20
164086.5657246178
 10
671984.2514102312
 20
164097.2143476796
 10
671938.3508907222
 20
164103.6403427796
 10
671892.0525478679
 20
164105.7884938838
 10
670905.1376933022
 20
164105.7884938838
 10
670863.2450703519
 20
164119.8832855045
 10
670818.1367791948
 20
164130.5319085664
 10
670772.2362596858
 20
164136.95790366642
 10
670725.9379168315
 20
164139.10605477061
 10
669772.3406231527
 20
164139.10605477061
 10
669730.4480002027
 20
164153.2008463912
 10
669685.3397090456
 20
164163.8494694531
 10
669639.4391895365
 20
164170.2754645531
 10
669593.1408466821
 20
164172.42361565732
 10
668606.2259921165
 20
164172.42361565732
 10
668564.3333691664
 20
164186.5184072779
 10
668519.2250780091
 20
164197.16703033992
 10
668473.3245585001
 20
164203.5930254399
 10
668427.0262156456
 20
164205.7411765441
 10
667473.4289219669
 20
164205.7411765441
 10
667431.5362990169
 20
164219.8359681647
 10
667386.4280078596
 20
164230.48459122662
 10
667340.5274883505
 20
164236.9105863267
 10
667294.229145496
 20
164239.0587374309
 10
666307.3142909305
 20
164239.0587374309
 10
666265.4216679805
 20
164253.1535290514
 10
666220.3133768232
 20
164263.80215211332
 10
666174.4128573142
 20
164270.2281472134
 10
666128.1145144599
 20
164272.3762983176
 10
665141.1996598943
 20
164272.3762983176
 10
665099.307036944
 20
164286.47108993822
 10
665054.1987457869
 20
164297.1197130001
 10
665008.2982262779
 20
164303.5457081001
 10
664961.9998834234
 20
164305.69385920442
 10
664008.4025897449
 20
164305.69385920442
 10
663966.5099667949
 20
164319.788650825
 10
663921.4016756377
 20
164330.4372738869
 10
663875.5011561286
 20
164336.8632689869
 10
663829.202813274
 20
164339.01142009112
 10
662842.2879587085
 20
164339.01142009112
 10
662800.3953357583
 20
164353.1062117117
 10
662755.2870446013
 20
164363.7548347736
 10
662709.3865250922
 20
164370.1808298736
 10
662663.0881822378
 20
164372.3289809779
 10
661709.490888559
 20
164372.3289809779
 10
661667.598265609
 20
164386.4237725985
 10
661622.4899744517
 20
164397.07239566042
 10
661576.5894549425
 20
164403.49839076042
 10
661530.2911120882
 20
164405.6465418647
 10
660543.3762575227
 20
164405.6465418647
 10
660501.4836345727
 20
164419.7413334852
 10
660456.3753434155
 20
164430.38995654712
 10
660410.4748239066
 20
164436.81595164712
 10
660364.176481052
 20
164438.9641027514
 10
659410.5791873732
 20
164438.9641027514
 10
659368.6865644227
 20
164453.05889437202
 10
659323.5782732656
 20
164463.7075174339
 10
659277.6777537566
 20
164470.1335125339
 10
659231.3794109024
 20
164472.2816636381
 10
659164.9808758278
 20
164472.2816636381
 10
659164.9808758278
 20
164705.26800314672
 10
659162.8327247235
 20
164751.5663460011
 10
659156.4067296234
 20
164797.4668655103
 10
659145.7581065616
 20
164842.57515666742
 10
659131.663314941
 20
164884.4677796176
 10
659131.663314941
 20
165205.03141644792
 10
659129.5151638367
 20
165251.3297593022
 10
659123.0891687366
 20
165297.2302788113
 10
659112.4405456748
 20
165342.3385699683
 10
659098.345754054
 20
165384.2311929187
 10
659098.345754054
 20
165704.7948297491
 10
659096.1976029499
 20
165751.09317260352
 10
659089.7716078499
 20
165796.99369211262
 10
659079.122984788
 20
165842.10198326962
 10
659065.0281931674
 20
165883.9946062199
 10
659065.0281931674
 20
166237.8758039372
 10
659062.8800420632
 20
166284.1741467915
 10
659056.454046963
 20
166330.0746663006
 10
659045.8054239012
 20
166375.1829574576
 10
659031.7106322807
 20
166417.075580408
 10
659031.7106322807
 20
166737.6392172385
 10
659029.5624811765
 20
166783.9375600928
 10
659023.1364860764
 20
166829.8380796019
 10
659012.4878630147
 20
166874.9463707589
 10
658998.3930713941
 20
166916.8389937092
 10
658998.3930713941
 20
167237.4026305397
 10
658996.2449202897
 20
167283.700973394
 10
658989.8189251898
 20
167329.6014929031
 10
658979.1703021278
 20
167374.70978406022
 10
658965.0755105072
 20
167416.6024070105
 10
658965.0755105072
 20
167770.48360472772
 10
658962.927359403
 20
167816.7819475822
 10
658956.501364303
 20
167862.68246709142
 10
658945.852741241
 20
167907.7907582486
 10
658931.7579496205
 20
167949.68338119882
 10
658931.7579496205
 20
168270.247018029
 10
658929.6097985161
 20
168316.5453608834
 10
658923.1838034161
 20
168362.44588039242
 10
658912.5351803543
 20
168407.55417154942
 10
658898.4403887336
 20
168449.44679449982
 10
658898.4403887336
 20
168770.0104313302
 10
658896.2922376295
 20
168816.3087741847
 10
658889.8662425294
 20
168862.2092936937
 10
658879.2176194675
 20
168907.3175848507
 10
658865.1228278469
 20
168949.2102078011
 10
658865.1228278469
 20
169303.0914055183
 10
658862.9746767427
 20
169349.3897483726
 10
658856.5486816426
 20
169395.2902678817
 10
658845.9000585808
 20
169440.3985590387
 10
658831.8052669602
 20
169482.2911819891
 10
658831.8052669602
 20
169802.8548188195
 10
658829.657115856
 20
169849.1531616739
 10
658823.2311207558
 20
169895.0536811829
 10
658812.5824976942
 20
169940.16197234002
 10
658798.4877060736
 20
169982.05459529042
 10
658798.4877060736
 20
170302.61823212082
 10
658796.3395549692
 20
170348.9165749752
 10
658789.9135598692
 20
170394.8170944842
 10
658779.2649368072
 20
170439.9253856413
 10
658765.1701451867
 20
170481.8180085916
 10
658765.1701451867
 20
170835.6992063089
 10
658763.0219940826
 20
170881.9975491633
 10
658756.5959989823
 20
170927.8980686725
 10
658745.9473759205
 20
170973.0063598297
 10
658731.8525842997
 20
171014.89898277982
 10
658731.8525842997
 20
172311.8957240502
 10
658768.9704684614
 20
172320.6580678932
 10
658810.8630914117
 20
172334.75285951392
 10
658964.8389238085
 20
172334.75285951392
 10
659011.1372666629
 20
172336.9010106181
 10
659057.0377861719
 20
172343.3270057181
 10
659102.1460773291
 20
172353.9756287801
 10
659144.0387002791
 20
172368.07042040062
 10
659264.6969717892
 20
172368.07042040062
 10
659310.9953146436
 20
172370.2185715048
 10
659356.8958341527
 20
172376.6445666049
 10
659402.0041253098
 20
172387.29318966682
 10
659443.8967482598
 20
172401.38798128732
 10
659564.55501977
 20
172401.38798128732
 10
659610.8533626243
 20
172403.5361323916
 10
659656.7538821333
 20
172409.9621274916
 10
659701.8621732906
 20
172420.6107505536
 10
659743.7547962406
 20
172434.7055421741
 10
659897.7306286375
 20
172434.7055421741
 10
659944.0289714918
 20
172436.85369327842
 10
659989.929491001
 20
172443.27968837842
 10
660035.0377821581
 20
172453.9283114403
 10
660076.9304051084
 20
172468.0231030609
 10
660197.5886766183
 20
172468.0231030609
 10
660243.8870194724
 20
172470.17125416512
 10
660289.7875389813
 20
172476.59724926512
 10
660334.8958301385
 20
172487.245872327
 10
660376.7884530891
 20
172501.3406639476
 10
660497.446724599
 20
172501.3406639476
 10
660543.7450674535
 20
172503.4888150518
 10
660589.6455869625
 20
172509.9148101519
 10
660634.7538781195
 20
172520.5634332138
 10
660676.6465010698
 20
172534.65822483442
 10
660830.6223334664
 20
172534.65822483442
 10
660876.920676321
 20
172536.8063759386
 10
660922.82119583
 20
172543.2323710386
 10
660967.9294869872
 20
172553.88099410062
 10
661009.8221099372
 20
172567.9757857212
 10
661130.4803814471
 20
172567.9757857212
 10
661176.7787243016
 20
172570.12393682532
 10
661222.6792438107
 20
172576.5499319254
 10
661267.7875349678
 20
172587.19855498732
 10
661309.6801579179
 20
172601.2933466078
 10
661430.338429428
 20
172601.2933466078
 10
661476.6367722824
 20
172603.4414977121
 10
661522.5372917914
 20
172609.8674928121
 10
661567.6455829487
 20
172620.5161158741
 10
661609.5382058988
 20
172634.6109074946
 10
661763.5140382956
 20
172634.6109074946
 10
661809.81238115
 20
172636.7590585988
 10
661855.7129006588
 20
172643.1850536989
 10
661900.8211918159
 20
172653.8336767608
 10
661942.7138147663
 20
172667.9284683814
 10
662030.0545253897
 20
172667.9284683814
 10
662079.0630955544
 20
172670.3361050453
 10
662127.5996863978
 20
172677.5358281798
 10
662175.1968640168
 20
172689.4583005153
 10
662221.3962415722
 20
172705.98870212582
 10
662265.7528938027
 20
172726.9678362073
 10
662307.8396418996
 20
172752.19366223022
 10
662347.2511674715
 20
172781.4232417001
 10
662383.607915983
 20
172814.3750777882
 10
662483.5605986433
 20
172914.3277604485
 10
662516.5124347314
 20
172950.6845089599
 10
662545.7420142011
 20
172990.09603453192
 10
662570.967840224
 20
173032.18278262872
 10
662591.9469743054
 20
173076.53943485912
 10
662608.477375916
 20
173122.73881241452
 10
662620.3998482514
 20
173170.3359900336
 10
662627.599571386
 20
173218.8725808769
 10
662630.0072080499
 20
173267.8811510416
 10
662630.0072080499
 20
173467.7865163621
 10
662627.8590569455
 20
173514.0848592165
 10
662621.4330618455
 20
173559.9853787255
 10
662610.7844387838
 20
173605.0936698826
 10
662596.689647163
 20
173646.986292833
 10
662596.689647163
 20
173900.9148078899
 10
662594.5414960589
 20
173947.2131507442
 10
662588.1155009589
 20
173993.1136702533
 10
662577.4668778968
 20
174038.2219614103
 10
662563.3720862763
 20
174080.11458436062
 10
662563.3720862763
 20
174334.0430994176
 10
662561.2239351722
 20
174380.3414422721
 10
662554.7979400721
 20
174426.2419617811
 10
662544.1493170101
 20
174471.3502529381
 10
662530.0545253896
 20
174513.2428758885
 10
662530.0545253896
 20
174767.1713909454
 10
662527.9063742853
 20
174813.4697337999
 10
662521.4803791853
 20
174859.3702533091
 10
662510.8317561233
 20
174904.4785444663
 10
662496.7369645028
 20
174946.3711674164
 10
662496.7369645028
 20
175200.2996824731
 10
662494.5888133985
 20
175246.59802532752
 10
662488.1628182984
 20
175292.49854483662
 10
662477.5141952366
 20
175337.60683599362
 10
662463.4194036161
 20
175379.4994589439
 10
662463.4194036161
 20
175633.4279740009
 10
662461.2712525118
 20
175679.72631685532
 10
662454.8452574118
 20
175725.6268363643
 10
662444.1966343499
 20
175770.73512752142
 10
662430.1018427294
 20
175812.6277504717
 10
662430.1018427294
 20
176066.55626552872
 10
662427.953691625
 20
176112.85460838312
 10
662421.5276965251
 20
176158.7551278921
 10
662410.879073463
 20
176203.86341904922
 10
662396.7842818425
 20
176245.7560419995
 10
662396.7842818425
 20
176499.68455705652
 10
662394.6361307383
 20
176545.9828999108
 10
662388.2101356384
 20
176591.8834194199
 10
662377.5615125764
 20
176636.9917105769
 10
662363.4667209558
 20
176678.8843335273
 10
662363.4667209558
 20
176932.8128485842
 10
662361.3185698517
 20
176979.1111914386
 10
662354.8925747515
 20
177025.0117109476
 10
662344.2439516897
 20
177070.1200021047
 10
662330.1491600691
 20
177112.012625055
 10
662330.1491600691
 20
177365.941140112
 10
662328.0010089648
 20
177412.2394829665
 10
662321.5750138648
 20
177458.1400024757
 10
662310.9263908028
 20
177503.24829363282
 10
662296.8315991821
 20
177545.140916583
 10
662296.8315991821
 20
177799.0694316398
 10
662294.683448078
 20
177845.3677744941
 10
662288.2574529779
 20
177891.2682940032
 10
662277.6088299161
 20
177936.3765851602
 10
662263.5140382956
 20
177978.26920811052
 10
662263.5140382956
 20
178232.1977231675
 10
662261.3658871913
 20
178278.4960660219
 10
662254.9398920912
 20
178324.39658553092
 10
662244.2912690295
 20
178369.504876688
 10
662230.1964774088
 20
178411.3974996384
 10
662230.1964774088
 20
178665.3260146953
 10
662228.0483263045
 20
178711.62435754962
 10
662221.6223312046
 20
178757.5248770586
 10
662210.9737081425
 20
178802.63316821572
 10
662196.8789165221
 20
178844.525791166
 10
662196.8789165221
 20
179098.454306223
 10
662194.7307654178
 20
179144.75264907742
 10
662188.3047703177
 20
179190.65316858652
 10
662177.656147256
 20
179235.76145974352
 10
662163.5613556353
 20
179277.65408269392
 10
662163.5613556353
 20
179531.58259775082
 10
662161.4132045311
 20
179577.8809406051
 10
662154.9872094309
 20
179623.7814601142
 10
662144.3385863691
 20
179668.8897512712
 10
662130.2437947486
 20
179710.78237422172
 10
662130.2437947486
 20
179964.7108892785
 10
662128.0956436442
 20
180011.00923213302
 10
662121.6696485443
 20
180056.9097516422
 10
662111.0210254823
 20
180102.01804279932
 10
662096.9262338618
 20
180143.9106657495
 10
662096.9262338618
 20
180397.8391808063
 10
662094.7780827575
 20
180444.1375236607
 10
662088.3520876574
 20
180490.0380431697
 10
662077.7034645956
 20
180535.1463343267
 10
662063.6086729751
 20
180577.0389572771
 10
662063.6086729751
 20
180830.9674723341
 10
662061.4605218708
 20
180877.2658151884
 10
662055.0345267707
 20
180923.1663346975
 10
662044.3859037088
 20
180968.2746258545
 10
662030.2911120882
 20
181010.1672488049
 10
662030.2911120882
 20
181264.0957638618
 10
662028.142960984
 20
181310.3941067163
 10
662021.7169658841
 20
181356.2946262253
 10
662011.0683428221
 20
181401.4029173823
 10
661996.288591204
 20
181445.3313824856
 10
661996.2496330293
 20
181445.41926121322
 10
661994.5659145376
 20
181479.6921384604
 10
661987.3661914031
 20
181528.2287293037
 10
661975.4437190675
 20
181575.8259069229
 10
661958.9133174571
 20
181622.0252844782
 10
661937.9341833758
 20
181666.3819367087
 10
661912.7083573528
 20
181708.4686848055
 10
661883.4787778828
 20
181747.8802103775
 10
661850.5269417947
 20
181784.236958889
 10
661750.5742591344
 20
181884.1896415492
 10
661714.2175106229
 20
181917.1414776373
 10
661674.805985051
 20
181946.3710571072
 10
661632.7192369541
 20
181971.5968831301
 10
661588.3625847235
 20
181992.5760172115
 10
661542.1632071683
 20
182009.10641882202
 10
661494.5660295492
 20
182021.0288911575
 10
661446.029438706
 20
182028.2286142919
 10
661397.0208685412
 20
182030.6362509558
 10
659231.6159976012
 20
182030.6362509558
 10
659231.6159976012
 20
182430.2103948981
 10
659229.4678464968
 20
182476.5087377525
 10
659223.0418513969
 20
182522.40925726152
 10
659212.3932283352
 20
182567.5175484186
 10
659198.2984367145
 20
182609.41017136892
 10
659198.2984367145
 20
183063.2440517464
 10
659196.1502856102
 20
183109.5423946008
 10
659189.7242905103
 20
183155.4429141098
 10
659179.0756674483
 20
183200.5512052669
 10
659164.9808758278
 20
183242.44382821722
 10
659164.9808758278
 20
183662.9601477079
 10
659162.8327247235
 20
183709.2584905624
 10
659156.4067296234
 20
183755.1590100716
 10
659145.7581065616
 20
183800.2673012288
 10
659131.663314941
 20
183842.1599241789
 10
659131.663314941
 20
184295.9938045562
 10
659129.5151638367
 20
184342.2921474106
 10
659123.0891687366
 20
184388.1926669196
 10
659112.4405456748
 20
184433.3009580766
 10
659098.345754054
 20
184475.193581027
 10
659098.345754054
 20
184929.02746140442
 10
659096.1976029499
 20
184975.3258042588
 10
659089.7716078499
 20
185021.2263237679
 10
659079.122984788
 20
185066.3346149249
 10
659065.0281931674
 20
185108.2272378752
 10
659065.0281931674
 20
185562.06111825272
 10
659062.8800420632
 20
185608.35946110712
 10
659056.454046963
 20
185654.2599806161
 10
659045.8054239012
 20
185699.36827177322
 10
659031.7106322807
 20
185741.2608947235
 10
659031.7106322807
 20
186195.094775101
 10
659029.5624811765
 20
186241.3931179553
 10
659023.1364860764
 20
186287.2936374644
 10
659012.4878630147
 20
186332.40192862152
 10
658998.3930713941
 20
186374.2945515718
 10
658998.3930713941
 20
186794.8108710625
 10
658996.2449202897
 20
186841.1092139169
 10
658989.8189251898
 20
186887.00973342592
 10
658979.1703021278
 20
186932.118024583
 10
658965.0755105072
 20
186974.01064753332
 10
658965.0755105072
 20
187427.8445279108
 10
658962.927359403
 20
187474.1428707653
 10
658956.501364303
 20
187520.0433902744
 10
658945.852741241
 20
187565.1516814316
 10
658931.7579496205
 20
187607.0443043818
 10
658931.7579496205
 20
188060.87818475912
 10
658929.6097985161
 20
188107.1765276134
 10
658923.1838034161
 20
188153.0770471225
 10
658912.5351803543
 20
188198.1853382795
 10
658898.4403887336
 20
188240.0779612298
 10
658898.4403887336
 20
188693.9118416073
 10
658896.2922376295
 20
188740.2101844616
 10
658889.8662425294
 20
188786.1107039707
 10
658879.2176194675
 20
188831.2189951277
 10
658865.1228278469
 20
188873.111618078
 10
658865.1228278469
 20
189326.9454984556
 10
658862.9746767427
 20
189373.24384130992
 10
658856.5486816426
 20
189419.1443608189
 10
658845.9000585808
 20
189464.2526519761
 10
658831.8052669602
 20
189506.1452749264
 10
658831.8052669602
 20
189926.66159441712
 10
658829.657115856
 20
189972.95993727152
 10
658823.2311207558
 20
190018.8604567805
 10
658812.5824976942
 20
190063.9687479375
 10
658798.4877060736
 20
190105.8613708879
 10
658798.4877060736
 20
190559.6952512654
 10
658796.3395549692
 20
190605.9935941197
 10
658789.9135598692
 20
190651.8941136288
 10
658779.2649368072
 20
190697.00240478592
 10
658765.1701451867
 20
190738.89502773611
 10
658765.1701451867
 20
191192.7289081136
 10
658763.0219940826
 20
191239.0272509681
 10
658756.5959989823
 20
191284.9277704772
 10
658745.9473759205
 20
191330.0360616344
 10
658731.8525842997
 20
191371.9286845845
 10
658731.8525842997
 20
191825.76256496191
 10
658729.7044331956
 20
191872.0609078162
 10
658723.2784380956
 20
191917.9614273253
 10
658712.6298150338
 20
191963.06971848232
 10
658698.5350234131
 20
192004.96234143272
 10
658698.5350234131
 20
192458.7962218101
 10
658696.3868723088
 20
192505.0945646645
 10
658689.9608772089
 20
192550.9950841736
 10
658679.3122541471
 20
192596.1033753307
 10
658665.2174625264
 20
192637.9959982809
 10
658665.2174625264
 20
193058.5123177717
 10
658663.0693114222
 20
193104.810660626
 10
658656.6433163221
 20
193150.711180135
 10
658645.9946932604
 20
193195.8194712921
 10
658631.8999016398
 20
193237.7120942424
 10
658631.8999016398
 20
193691.54597462
 10
658629.7517505354
 20
193737.84431747432
 10
658623.3257554355
 20
193783.7448369833
 10
658612.6771323736
 20
193828.8531281404
 10
658598.582340753
 20
193870.7457510908
 10
658598.582340753
 20
194324.5796314682
 10
658596.4341896487
 20
194370.8779743225
 10
658590.0081945488
 20
194416.7784938316
 10
658579.3595714867
 20
194461.88678498872
 10
658565.2647798662
 20
194503.77940793912
 10
658565.2647798662
 20
194957.6132883165
 10
658563.1166287621
 20
195003.9116311709
 10
658556.6906336618
 20
195049.8121506801
 10
658546.0420106
 20
195094.9204418373
 10
658531.9472189794
 20
195136.81306478742
 10
658531.9472189794
 20
195590.6469451648
 10
658529.7990678753
 20
195636.9452880191
 10
658523.3730727751
 20
195682.8458075281
 10
658512.7244497132
 20
195727.9540986852
 10
658498.6296580926
 20
195769.84672163552
 10
658498.6296580926
 20
196190.36304112631
 10
658496.4815069885
 20
196236.6613839807
 10
658490.0555118883
 20
196282.5619034897
 10
658479.4068888265
 20
196327.67019464672
 10
658465.3120972058
 20
196369.562817597
 10
658465.3120972058
 20
196823.3966979745
 10
658463.1639461016
 20
196869.6950408289
 10
658456.7379510016
 20
196915.5955603379
 10
658446.0893279399
 20
196960.703851495
 10
658431.9945363193
 20
197002.5964744453
 10
658431.9945363193
 20
197456.4303548228
 10
658429.846385215
 20
197502.7286976772
 10
658423.4203901149
 20
197548.62921718622
 10
658412.771767053
 20
197593.7375083433
 10
658398.6769754324
 20
197635.6301312936
 10
658398.6769754324
 20
198957.0408537969
 10
658411.4211707013
 20
198957.6321591321
 10
658457.3216902105
 20
198964.0581542321
 10
658502.4299813677
 20
198974.70677729402
 10
658544.3226043178
 20
198988.8015689146
 10
659397.9672153362
 20
198988.8015689146
 10
659444.2655581904
 20
198990.94972001892
 10
659490.1660776994
 20
198997.3757151188
 10
659535.2743688565
 20
199008.0243381808
 10
659577.1669918069
 20
199022.11912980131
 10
660397.4940419387
 20
199022.11912980131
 10
660443.792384793
 20
199024.2672809056
 10
660489.692904302
 20
199030.6932760056
 10
660534.8011954591
 20
199041.3418990675
 10
660576.6938184096
 20
199055.4366906881
 10
661430.338429428
 20
199055.4366906881
 10
661476.6367722824
 20
199057.5848417923
 10
661522.5372917914
 20
199064.0108368923
 10
661567.6455829487
 20
199074.6594599543
 10
661609.5382058988
 20
199088.7542515749
 10
661830.1491600692
 20
199088.7542515749
 10
661879.1577302339
 20
199091.1618882388
 10
661927.6943210772
 20
199098.3616113732
 10
661975.2914986964
 20
199110.2840837088
 10
662021.4908762517
 20
199126.8144853193
 10
662065.8475284822
 20
199147.7936194007
 10
662107.9342765791
 20
199173.01944542362
 10
662147.345802151
 20
199202.2490248936
 10
662183.7025506624
 20
199235.2008609817
 10
662283.6552333228
 20
199335.153543642
 10
662316.6070694106
 20
199371.5102921534
 10
662345.8366488806
 20
199410.9218177254
 10
662371.0624749037
 20
199453.0085658222
 10
662392.0416089849
 20
199497.3652180527
 10
662408.5720105954
 20
199543.5645956079
 10
662420.4944829309
 20
199591.1617732271
 10
662427.6942060654
 20
199639.6983640703
 10
662430.1018427294
 20
199688.70693423512
 10
662430.1018427294
 20
200588.28107817742
 10
662427.953691625
 20
200634.5794210317
 10
662421.5276965251
 20
200680.4799405408
 10
662410.879073463
 20
200725.5882316979
 10
662396.7842818425
 20
200767.4808546482
 10
662396.7842818425
 20
201654.4430265534
 10
662394.6361307383
 20
201700.7413694077
 10
662388.2101356384
 20
201746.6418889168
 10
662377.5615125764
 20
201791.7501800739
 10
662363.4667209558
 20
201833.6428030243
 10
662363.4667209558
 20
202154.2064398547
 10
662361.0590842919
 20
202203.2150100194
 10
662353.8593611576
 20
202251.7516008628
 10
662341.9368888219
 20
202299.348778482
 10
662325.4064872114
 20
202345.54815603732
 10
662304.4273531301
 20
202389.9048082678
 10
662279.201527107
 20
202431.9915563646
 10
662249.9719476369
 20
202471.40308193662
 10
662217.020111549
 20
202507.7598304481
 10
662117.0674288885
 20
202607.7125131083
 10
662080.7106803772
 20
202640.66434919642
 10
662041.2991548053
 20
202669.89392866622
 10
661999.2124067084
 20
202695.1197546891
 10
661954.8557544779
 20
202716.09888877062
 10
661908.6563769226
 20
202732.6292903811
 10
661861.0591993036
 20
202744.5517627165
 10
661812.5226084604
 20
202751.751485851
 10
661763.5140382956
 20
202754.15912251492
 10
659464.8389238085
 20
202754.15912251492
 10
659464.8389238085
 20
207584.96886439502
 10
659462.4312871445
 20
207633.9774345598
 10
659455.23156401
 20
207682.5140254031
 10
659443.3090916746
 20
207730.1112030222
 10
659426.7786900642
 20
207776.3105805775
 10
659405.7995559827
 20
207820.66723280802
 10
659380.5737299599
 20
207862.7539809047
 10
659351.3441504898
 20
207902.1655064767
 10
659318.3923144018
 20
207938.5222549882
 10
659218.4396317416
 20
208038.4749376485
 10
659182.0828832302
 20
208071.4267737366
 10
659142.671357658
 20
208100.65635320652
 10
659100.5846095614
 20
208125.8821792294
 10
659056.227957331
 20
208146.86131331092
 10
659010.0285797755
 20
208163.3917149215
 10
658962.4314021565
 20
208175.3141872569
 10
658913.894811313
 20
208182.5139103915
 10
658864.8862411483
 20
208184.9215470553
 10
656066.4477133598
 20
208184.9215470553
  0
ENDSEC
  0
SECTION
  2
OBJECTS
  0
DICTIONARY
  5
A
330
0
100
AcDbDictionary
281
1
  3
ACAD_CIP_PREVIOUS_PRODUCT_INFO
350
67
  3
ACAD_COLOR
350
B
  3
ACAD_DETAILVIEWSTYLE
350
63
  3
ACAD_GROUP
350
C
  3
ACAD_LAST_SAVED_VERSION_INFO
350
6A
  3
ACAD_LAYOUT
350
D
  3
ACAD_MATERIAL
350
E
  3
ACAD_MLEADERSTYLE
350
F
  3
ACAD_MLINESTYLE
350
10
  3
ACAD_PLOTSETTINGS
350
11
  3
ACAD_PLOTSTYLENAME
350
12
  3
ACAD_SCALELIST
350
14
  3
ACAD_SECTIONVIEWSTYLE
350
61
  3
ACAD_TABLESTYLE
350
15
  3
ACAD_VISUALSTYLE
350
16
  3
ACDB_RECOMPOSE_DATA
350
73
  3
AcDbVariableDictionary
350
68
  3
EZDXF_META
350
2D
  0
XRECORD
  5
67
102
{ACAD_REACTORS
330
A
102
}
330
A
100
AcDbXrecord
280
1
300
ACD
300
2024
300

  0
DICTIONARY
  5
B
330
A
100
AcDbDictionary
281
1
  0
DICTIONARY
  5
63
102
{ACAD_REACTORS
330
A
102
}
330
A
100
AcDbDictionary
281
1
  3
Metric50
350
64
  0
DICTIONARY
  5
C
330
A
100
AcDbDictionary
281
1
  0
XRECORD
  5
6A
102
{ACAD_REACTORS
330
A
102
}
330
A
100
AcDbXrecord
280
1
300
{398CAE53-D0B1-AA46-80F6-027A34E551DF}
301
{0751657E-2743-CF4E-9E61-EE549D160E54}
302
{398CAE53-D0B1-AA46-80F6-027A34E551DF}
303
C:\Users\Sinetti\Desktop\\\ACDEF\F\F\4. \2--.dxf_boundary_shrunk_only.dxf
  0
DICTIONARY
  5
D
330
A
100
AcDbDictionary
281
1
  3
Layout1
350
1E
  3
Model
350
1A
  0
DICTIONARY
  5
E
330
A
100
AcDbDictionary
281
1
  3
ByBlock
350
1F
  3
ByLayer
350
20
  3
Global
350
21
  0
DICTIONARY
  5
F
330
A
100
AcDbDictionary
281
1
  3
Standard
350
2C
  0
DICTIONARY
  5
10
330
A
100
AcDbDictionary
281
1
  3
Standard
350
22
  0
DICTIONARY
  5
11
330
A
100
AcDbDictionary
281
1
  0
ACDBDICTIONARYWDFLT
  5
12
330
A
100
AcDbDictionary
281
1
  3
Normal
350
13
100
AcDbDictionaryWithDefault
340
13
  0
DICTIONARY
  5
14
330
A
100
AcDbDictionary
281
1
  3
A0
350
50
  3
A1
350
51
  3
A2
350
52
  3
A3
350
53
  3
A4
350
54
  3
A5
350
55
  3
A6
350
56
  3
A7
350
57
  3
A8
350
58
  3
A9
350
59
  3
B0
350
5A
  3
B1
350
5B
  3
B2
350
5C
  3
B3
350
5D
  3
B4
350
5E
  3
B5
350
5F
  3
B6
350
60
  0
DICTIONARY
  5
61
102
{ACAD_REACTORS
330
A
102
}
330
A
100
AcDbDictionary
281
1
  3
Metric50
350
62
  0
DICTIONARY
  5
15
330
A
100
AcDbDictionary
281
1
  3
Standard
350
4F
  0
DICTIONARY
  5
16
330
A
100
AcDbDictionary
281
1
  3
2dWireframe
350
3C
  3
Basic
350
3B
  3
Brighten
350
42
  3
ColorChange
350
46
  3
Conceptual
350
3F
  3
Dim
350
41
  3
EdgeColorOff
350
4E
  3
Facepattern
350
45
  3
Flat
350
37
  3
FlatWithEdges
350
38
  3
Gouraud
350
39
  3
GouraudWithEdges
350
3A
  3
Hidden
350
3E
  3
JitterOff
350
4C
  3
Linepattern
350
44
  3
OverhangOff
350
4D
  3
Realistic
350
40
  3
Shaded
350
4B
  3
Shaded with edges
350
4A
  3
Shades of Gray
350
47
  3
Sketchy
350
48
  3
Thicken
350
43
  3
Wireframe
350
3D
  3
X-Ray
350
49
  0
XRECORD
  5
73
102
{ACAD_REACTORS
330
A
102
}
330
A
100
AcDbXrecord
280
1
 90
1
330
4F
  0
DICTIONARY
  5
68
102
{ACAD_REACTORS
330
A
102
}
330
A
100
AcDbDictionary
281
1
  3
CANNOSCALE
350
6F
  3
CMLEADERSTYLE
350
6C
  3
CTABLESTYLE
350
6B
  3
CVIEWDETAILSTYLE
350
6D
  3
CVIEWSECTIONSTYLE
350
6E
  0
DICTIONARY
  5
2D
330
A
100
AcDbDictionary
280
1
281
1
  3
CREATED_BY_EZDXF
360
2E
  3
WRITTEN_BY_EZDXF
360
34
  0
ACDBDETAILVIEWSTYLE
  5
64
102
{ACAD_REACTORS
330
63
102
}
330
63
100
AcDbModelDocViewStyle
 70
0
  3
Metric50
290
0
300
Metric50
 90
0
100
AcDbDetailViewStyle
 70
0
 71
0
 90
3
 71
1
340
29
 62
256
 40
5.0
340
0
 62
256
 40
5.0
300

 40
0.0
280
1
 71
2
340
26
 90
25
 62
256
 71
3
340
29
 62
256
 40
5.0
 90
0
 40
15.0
 90
1
300
%<\AcVar ViewDetailId>% (%<\AcVar ViewScale \f "%sn">%)
 71
4
340
26
 90
25
 62
256
340
26
 90
25
 62
256
280
0
  0
LAYOUT
  5
1E
330
D
100
AcDbPlotSettings
  1

  2
Adobe PDF
  4
A3
  6

 40
7.5
 41
20.0
 42
7.5
 43
20.0
 44
420.0
 45
297.0
 46
0.0
 47
0.0
 48
0.0
 49
0.0
140
0.0
141
0.0
142
1.0
143
1.0
 70
0
 72
1
 73
0
 74
5
  7

 75
16
 76
0
 77
2
 78
300
147
1.0
148
0.0
149
0.0
100
AcDbLayout
  1
Layout1
 70
1
 71
1
 10
0.0
 20
0.0
 11
420.0
 21
297.0
 12
0.0
 22
0.0
 32
0.0
 14
1e+20
 24
1e+20
 34
1e+20
 15
-1e+20
 25
-1e+20
 35
-1e+20
146
0.0
 13
0.0
 23
0.0
 33
0.0
 16
1.0
 26
0.0
 36
0.0
 17
0.0
 27
1.0
 37
0.0
 76
0
330
1B
  0
LAYOUT
  5
1A
330
D
100
AcDbPlotSettings
  1

  2
Adobe PDF
  4
A3
  6

 40
7.5
 41
20.0
 42
7.5
 43
20.0
 44
420.0
 45
297.0
 46
0.0
 47
0.0
 48
0.0
 49
0.0
140
0.0
141
0.0
142
1.0
143
1.0
 70
1024
 72
1
 73
0
 74
5
  7

 75
16
 76
0
 77
2
 78
300
147
1.0
148
0.0
149
0.0
100
AcDbLayout
  1
Model
 70
1
 71
0
 10
0.0
 20
0.0
 11
420.0
 21
297.0
 12
0.0
 22
0.0
 32
0.0
 14
1e+20
 24
1e+20
 34
1e+20
 15
-1e+20
 25
-1e+20
 35
-1e+20
146
0.0
 13
0.0
 23
0.0
 33
0.0
 16
1.0
 26
0.0
 36
0.0
 17
0.0
 27
1.0
 37
0.0
 76
1
330
17
331
23
  0
MATERIAL
  5
1F
102
{ACAD_REACTORS
330
E
102
}
330
E
100
AcDbMaterial
  1
ByBlock
  2

 70
0
 40
1.0
 71
1
 41
1.0
 91
-1023410177
 42
1.0
 72
1
  3

 73
1
 74
1
 75
1
 44
0.5
 73
0
 45
1.0
 46
1.0
 77
1
  4

 78
1
 79
1
170
1
 48
1.0
171
1
  6

172
1
173
1
174
1
140
1.0
141
1.0
175
1
  7

176
1
177
1
178
1
143
1.0
179
1
  8

270
1
271
1
272
1
145
1.0
146
1.0
273
1
  9

274
1
275
1
276
1
 42
1.0
 72
1
  3

 73
1
 74
1
 75
1
 94
63
  0
MATERIAL
  5
20
102
{ACAD_REACTORS
330
E
102
}
330
E
100
AcDbMaterial
  1
ByLayer
  2

 70
0
 40
1.0
 71
1
 41
1.0
 91
-1023410177
 42
1.0
 72
1
  3

 73
1
 74
1
 75
1
 44
0.5
 73
0
 45
1.0
 46
1.0
 77
1
  4

 78
1
 79
1
170
1
 48
1.0
171
1
  6

172
1
173
1
174
1
140
1.0
141
1.0
175
1
  7

176
1
177
1
178
1
143
1.0
179
1
  8

270
1
271
1
272
1
145
1.0
146
1.0
273
1
  9

274
1
275
1
276
1
 42
1.0
 72
1
  3

 73
1
 74
1
 75
1
 94
63
  0
MATERIAL
  5
21
102
{ACAD_REACTORS
330
E
102
}
330
E
100
AcDbMaterial
  1
Global
  2

 70
0
 40
1.0
 71
1
 41
1.0
 91
-1023410177
 42
1.0
 72
1
  3

 73
1
 74
1
 75
1
 44
0.5
 73
0
 45
1.0
 46
1.0
 77
1
  4

 78
1
 79
1
170
1
 48
1.0
171
1
  6

172
1
173
1
174
1
140
1.0
141
1.0
175
1
  7

176
1
177
1
178
1
143
1.0
179
1
  8

270
1
271
1
272
1
145
1.0
146
1.0
273
1
  9

274
1
275
1
276
1
 42
1.0
 72
1
  3

 73
1
 74
1
 75
1
 94
63
  0
MLEADERSTYLE
  5
2C
102
{ACAD_REACTORS
330
F
102
}
330
F
100
AcDbMLeaderStyle
179
2
170
2
171
1
172
0
 90
2
 40
0.0
 41
0.0
173
1
 91
-1056964608
 92
-2
290
1
 42
2.0
291
1
 43
8.0
  3
Standard
 44
4.0
300

342
29
174
1
175
1
176
0
178
1
 93
-1056964608
 45
4.0
292
0
297
0
 46
4.0
293
1
 94
-1056964608
 47
1.0
 49
1.0
140
1.0
294
1
141
0.0
177
0
142
1.0
295
0
296
0
143
3.75
271
0
272
9
273
9
298
1
  0
MLINESTYLE
  5
22
102
{ACAD_REACTORS
330
10
102
}
330
10
100
AcDbMlineStyle
  2
STANDARD
 70
0
  3

 62
256
 51
90.0
 52
90.0
 71
2
 49
0.5
 62
256
  6
BYLAYER
 49
-0.5
 62
256
  6
BYLAYER
  0
ACDBPLACEHOLDER
  5
13
330
12
  0
SCALE
  5
50
102
{ACAD_REACTORS
330
14
102
}
330
14
100
AcDbScale
 70
0
300
1:1
140
1.0
141
1.0
290
1
  0
SCALE
  5
51
102
{ACAD_REACTORS
330
14
102
}
330
14
100
AcDbScale
 70
0
300
1:2
140
1.0
141
2.0
290
0
  0
SCALE
  5
52
102
{ACAD_REACTORS
330
14
102
}
330
14
100
AcDbScale
 70
0
300
1:4
140
1.0
141
4.0
290
0
  0
SCALE
  5
53
102
{ACAD_REACTORS
330
14
102
}
330
14
100
AcDbScale
 70
0
300
1:5
140
1.0
141
5.0
290
0
  0
SCALE
  5
54
102
{ACAD_REACTORS
330
14
102
}
330
14
100
AcDbScale
 70
0
300
1:8
140
1.0
141
8.0
290
0
  0
SCALE
  5
55
102
{ACAD_REACTORS
330
14
102
}
330
14
100
AcDbScale
 70
0
300
1:10
140
1.0
141
10.0
290
0
  0
SCALE
  5
56
102
{ACAD_REACTORS
330
14
102
}
330
14
100
AcDbScale
 70
0
300
1:16
140
1.0
141
16.0
290
0
  0
SCALE
  5
57
102
{ACAD_REACTORS
330
14
102
}
330
14
100
AcDbScale
 70
0
300
1:20
140
1.0
141
20.0
290
0
  0
SCALE
  5
58
102
{ACAD_REACTORS
330
14
102
}
330
14
100
AcDbScale
 70
0
300
1:30
140
1.0
141
30.0
290
0
  0
SCALE
  5
59
102
{ACAD_REACTORS
330
14
102
}
330
14
100
AcDbScale
 70
0
300
1:40
140
1.0
141
40.0
290
0
  0
SCALE
  5
5A
102
{ACAD_REACTORS
330
14
102
}
330
14
100
AcDbScale
 70
0
300
1:50
140
1.0
141
50.0
290
0
  0
SCALE
  5
5B
102
{ACAD_REACTORS
330
14
102
}
330
14
100
AcDbScale
 70
0
300
1:100
140
1.0
141
100.0
290
0
  0
SCALE
  5
5C
102
{ACAD_REACTORS
330
14
102
}
330
14
100
AcDbScale
 70
0
300
2:1
140
2.0
141
1.0
290
0
  0
SCALE
  5
5D
102
{ACAD_REACTORS
330
14
102
}
330
14
100
AcDbScale
 70
0
300
4:1
140
4.0
141
1.0
290
0
  0
SCALE
  5
5E
102
{ACAD_REACTORS
330
14
102
}
330
14
100
AcDbScale
 70
0
300
8:1
140
8.0
141
1.0
290
0
  0
SCALE
  5
5F
102
{ACAD_REACTORS
330
14
102
}
330
14
100
AcDbScale
 70
0
300
10:1
140
10.0
141
1.0
290
0
  0
SCALE
  5
60
102
{ACAD_REACTORS
330
14
102
}
330
14
100
AcDbScale
 70
0
300
100:1
140
100.0
141
1.0
290
0
  0
ACDBSECTIONVIEWSTYLE
  5
62
102
{ACAD_REACTORS
330
61
102
}
330
61
100
AcDbModelDocViewStyle
 70
0
  3
Metric50
290
0
300
Metric50
 90
0
100
AcDbSectionViewStyle
 70
0
 71
0
 90
102
 71
1
340
29
 62
256
 40
5.0
340
0
340
0
 62
256
 40
5.0
300
I, O, Q, S, X, Z
 40
10.0
 90
0
 40
2.5
 90
0
 71
2
340
26
 90
25
 62
256
340
26
 90
50
 62
256
 40
5.0
 40
2.5
 40
5.0
 71
3
340
29
 62
256
 40
5.0
 90
0
 40
15.0
 90
1
300
%<\AcVar ViewSectionStartId>%-%<\AcVar ViewSectionEndId>% (%<\AcVar ViewScale \f "%sn">%)
 71
4
 62
256
 62
257
300
ANSI31
 40
1.0
 90
0
290
0
290
0
 90
6
 40
0.0
 40
1.570796326794896
 40
0.2617993877991494
 40
1.308996938995747
 40
-0.2617993877991494
 40
1.832595714594046
  0
TABLESTYLE
  5
4F
102
{ACAD_XDICTIONARY
360
71
102
}
102
{ACAD_REACTORS
330
15
102
}
330
15
100
AcDbTableStyle
280
0
  3
Standard
 70
0
 71
0
 40
1.5
 41
1.5
280
0
281
0
  7
Standard
140
4.5
170
2
 62
0
 63
7
283
0
 90
512
 91
0
  1

274
-2
284
1
 64
0
275
-2
285
1
 65
0
276
-2
286
1
 66
0
277
-2
287
1
 67
0
278
-2
288
1
 68
0
279
-2
289
1
 69
0
  7
Standard
140
6.0
170
5
 62
0
 63
7
283
0
 90
512
 91
0
  1

274
-2
284
1
 64
0
275
-2
285
1
 65
0
276
-2
286
1
 66
0
277
-2
287
1
 67
0
278
-2
288
1
 68
0
279
-2
289
1
 69
0
  7
Standard
140
4.5
170
5
 62
0
 63
7
283
0
 90
512
 91
0
  1

274
-2
284
1
 64
0
275
-2
285
1
 65
0
276
-2
286
1
 66
0
277
-2
287
1
 67
0
278
-2
288
1
 68
0
279
-2
289
1
 69
0
  0
VISUALSTYLE
  5
3C
102
{ACAD_REACTORS
330
16
102
}
330
16
100
AcDbVisualStyle
  2
2dWireframe
 70
4
177
3
291
0
 70
58
 90
0
176
1
 90
2
176
1
 90
0
176
1
 90
0
176
1
 40
0.6
176
1
 40
30.0
176
1
 62
7
420
16777215
176
1
 90
1
176
1
 90
4
176
1
 62
7
176
1
 62
257
176
1
 90
1
176
1
 90
1
176
1
 40
1.0
176
1
 90
0
176
1
 62
257
176
1
 40
1.0
176
1
 90
1
176
1
 90
6
176
1
 90
2
176
1
 62
7
176
1
 90
5
176
1
 90
0
176
1
 90
0
176
1
290
0
176
1
 90
1
176
1
 40
0.0
176
1
 90
0
176
1
290
1
176
1
290
1
176
1
290
0
176
1
290
0
176
1
290
0
176
1
290
0
176
1
290
0
176
1
290
0
176
1
290
0
176
1
 90
50
176
1
 40
0.0
176
1
 40
1.0
176
1
 90
0
176
1
 62
18
420
0
176
1
 90
50
176
1
 90
3
176
1
 62
5
420
255
176
1
290
0
176
1
 90
50
176
1
 90
50
176
1
 90
50
176
1
290
0
176
1
 90
50
176
1
 62
256
176
0
 40
1.0
176
0
 90
2
176
1
  1
strokes_ogs.tif
176
1
290
0
176
1
 40
1.0
176
1
 40
1.0
176
1
  0
VISUALSTYLE
  5
3B
102
{ACAD_REACTORS
330
16
102
}
330
16
100
AcDbVisualStyle
  2
Basic
 70
7
177
3
291
1
 70
58
 90
1
176
1
 90
0
176
1
 90
1
176
1
 90
0
176
1
 40
0.6
176
1
 40
30.0
176
1
 62
7
420
16777215
176
1
 90
0
176
1
 90
4
176
1
 62
7
176
1
 62
257
176
1
 90
1
176
1
 90
1
176
1
 40
1.0
176
1
 90
8
176
1
 62
7
176
1
 40
1.0
176
1
 90
1
176
1
 90
6
176
1
 90
2
176
1
 62
7
176
1
 90
5
176
1
 90
0
176
1
 90
0
176
1
290
0
176
1
 90
1
176
1
 40
0.0
176
1
 90
0
176
1
290
0
176
1
290
1
176
1
290
1
176
1
290
0
176
1
290
0
176
1
290
0
176
1
290
0
176
1
290
0
176
1
290
0
176
1
 90
50
176
1
 40
0.0
176
1
 40
1.0
176
1
 90
0
176
1
 62
18
420
0
176
1
 90
50
176
1
 90
3
176
1
 62
5
420
255
176
1
290
0
176
1
 90
50
176
1
 90
50
176
1
 90
50
176
1
290
0
176
1
 90
50
176
1
 62
256
176
0
 40
1.0
176
0
 90
2
176
1
  1
strokes_ogs.tif
176
1
290
0
176
1
 40
1.0
176
1
 40
1.0
176
1
  0
VISUALSTYLE
  5
42
102
{ACAD_REACTORS
330
16
102
}
330
16
100
AcDbVisualStyle
  2
Brighten
 70
12
177
3
291
1
 70
58
 90
2
176
1
 90
2
176
1
 90
0
176
1
 90
0
176
1
 40
0.6
176
1
 40
30.0
176
1
 62
7
420
16777215
176
1
 90
1
176
1
 90
4
176
1
 62
7
176
1
 62
257
176
1
 90
1
176
1
 90
1
176
1
 40
1.0
176
1
 90
8
176
1
 62
7
176
1
 40
1.0
176
1
 90
1
176
1
 90
6
176
1
 90
2
176
1
 62
7
176
1
 90
5
176
1
 90
0
176
1
 90
0
176
1
290
0
176
1
 90
1
176
1
 40
50.0
176
1
 90
0
176
1
290
0
176
1
290
1
176
1
290
1
176
1
290
0
176
1
290
0
176
1
290
0
176
1
290
0
176
1
290
0
176
1
290
0
176
1
 90
50
176
1
 40
0.0
176
1
 40
1.0
176
1
 90
0
176
1
 62
18
420
0
176
1
 90
50
176
1
 90
3
176
1
 62
5
420
255
176
1
290
0
176
1
 90
50
176
1
 90
50
176
1
 90
50
176
1
290
0
176
1
 90
50
176
1
 62
256
176
0
 40
1.0
176
0
 90
2
176
1
  1
strokes_ogs.tif
176
1
290
0
176
1
 40
1.0
176
1
 40
1.0
176
1
  0
VISUALSTYLE
  5
46
102
{ACAD_REACTORS
330
16
102
}
330
16
100
AcDbVisualStyle
  2
ColorChange
 70
16
177
3
291
1
 70
58
 90
2
176
1
 90
2
176
1
 90
3
176
1
 90
0
176
1
 40
0.6
176
1
 40
30.0
176
1
 62
8
420
8421504
176
1
 90
1
176
1
 90
4
176
1
 62
7
176
1
 62
257
176
1
 90
1
176
1
 90
1
176
1
 40
1.0
176
1
 90
8
176
1
 62
8
420
8421504
176
1
 40
1.0
176
1
 90
1
176
1
 90
6
176
1
 90
2
176
1
 62
7
176
1
 90
5
176
1
 90
0
176
1
 90
0
176
1
290
0
176
1
 90
1
176
1
 40
0.0
176
1
 90
0
176
1
290
0
176
1
290
1
176
1
290
1
176
1
290
0
176
1
290
0
176
1
290
0
176
1
290
0
176
1
290
0
176
1
290
0
176
1
 90
50
176
1
 40
0.0
176
1
 40
1.0
176
1
 90
0
176
1
 62
18
420
0
176
1
 90
50
176
1
 90
3
176
1
 62
5
420
255
176
1
290
0
176
1
 90
50
176
1
 90
50
176
1
 90
50
176
1
290
0
176
1
 90
50
176
1
 62
256
176
0
 40
1.0
176
0
 90
2
176
1
  1
strokes_ogs.tif
176
1
290
0
176
1
 40
1.0
176
1
 40
1.0
176
1
  0
VISUALSTYLE
  5
3F
102
{ACAD_REACTORS
330
16
102
}
330
16
100
AcDbVisualStyle
  2
Conceptual
 70
9
177
3
291
0
 70
58
 90
3
176
1
 90
2
176
1
 90
0
176
1
 90
0
176
1
 40
0.6
176
1
 40
30.0
176
1
 62
7
420
16777215
176
1
 90
2
176
1
 90
2
176
1
 62
7
176
1
 62
257
176
1
 90
1
176
1
 90
1
176
1
 40
179.0
176
1
 90
8
176
1
 62
7
176
1
 40
1.0
176
1
 90
1
176
1
 90
6
176
1
 90
2
176
1
 62
7
176
1
 90
3
176
1
 90
0
176
1
 90
0
176
1
290
0
176
1
 90
1
176
1
 40
0.0
176
1
 90
0
176
1
290
0
176
1
290
1
176
1
290
1
176
1
290
0
176
1
290
0
176
1
290
0
176
1
290
0
176
1
290
0
176
1
290
0
176
1
 90
50
176
1
 40
0.0
176
1
 40
1.0
176
1
 90
0
176
1
 62
18
420
0
176
1
 90
50
176
1
 90
3
176
1
 62
5
420
255
176
1
290
0
176
1
 90
50
176
1
 90
50
176
1
 90
50
176
1
290
0
176
1
 90
50
176
1
 62
256
176
0
 40
1.0
176
0
 90
2
176
1
  1
strokes_ogs.tif
176
1
290
0
176
1
 40
1.0
176
1
 40
1.0
176
1
  0
VISUALSTYLE
  5
41
102
{ACAD_REACTORS
330
16
102
}
330
16
100
AcDbVisualStyle
  2
Dim
 70
11
177
3
291
1
 70
58
 90
2
176
1
 90
2
176
1
 90
0
176
1
 90
0
176
1
 40
0.6
176
1
 40
30.0
176
1
 62
7
420
16777215
176
1
 90
1
176
1
 90
4
176
1
 62
7
176
1
 62
257
176
1
 90
1
176
1
 90
1
176
1
 40
1.0
176
1
 90
8
176
1
 62
7
176
1
 40
1.0
176
1
 90
1
176
1
 90
6
176
1
 90
2
176
1
 62
7
176
1
 90
5
176
1
 90
0
176
1
 90
0
176
1
290
0
176
1
 90
1
176
1
 40
-50.0
176
1
 90
0
176
1
290
0
176
1
290
1
176
1
290
1
176
1
290
0
176
1
290
0
176
1
290
0
176
1
290
0
176
1
290
0
176
1
290
0
176
1
 90
50
176
1
 40
0.0
176
1
 40
1.0
176
1
 90
0
176
1
 62
18
420
0
176
1
 90
50
176
1
 90
3
176
1
 62
5
420
255
176
1
290
0
176
1
 90
50
176
1
 90
50
176
1
 90
50
176
1
290
0
176
1
 90
50
176
1
 62
256
176
0
 40
1.0
176
0
 90
2
176
1
  1
strokes_ogs.tif
176
1
290
0
176
1
 40
1.0
176
1
 40
1.0
176
1
  0
VISUALSTYLE
  5
4E
102
{ACAD_REACTORS
330
16
102
}
330
16
100
AcDbVisualStyle
  2
EdgeColorOff
 70
22
177
3
291
1
 70
58
 90
2
176
0
 90
2
176
0
 90
0
176
0
 90
0
176
0
 40
0.6
176
0
 40
30.0
176
0
 62
7
420
16777215
176
0
 90
1
176
0
 90
4
176
0
 62
7
176
0
 62
257
176
0
 90
1
176
0
 90
1
176
0
 40
1.0
176
0
 90
8
176
2
 62
7
176
0
 40
1.0
176
0
 90
1
176
0
 90
6
176
0
 90
2
176
0
 62
7
176
0
 90
5
176
0
 90
0
176
0
 90
0
176
0
290
0
176
0
 90
1
176
0
 40
0.0
176
0
 90
0
176
0
290
0
176
0
290
1
176
0
290
1
176
0
290
0
176
0
290
0
176
0
290
0
176
0
290
0
176
0
290
0
176
0
290
0
176
0
 90
50
176
0
 40
0.0
176
0
 40
1.0
176
0
 90
0
176
0
 62
18
420
0
176
0
 90
50
176
0
 90
3
176
0
 62
5
420
255
176
0
290
0
176
0
 90
50
176
0
 90
50
176
0
 90
50
176
0
290
0
176
0
 90
50
176
0
 62
256
176
0
 40
1.0
176
0
 90
2
176
0
  1
strokes_ogs.tif
176
0
290
0
176
0
 40
1.0
176
0
 40
1.0
176
0
  0
VISUALSTYLE
  5
45
102
{ACAD_REACTORS
330
16
102
}
330
16
100
AcDbVisualStyle
  2
Facepattern
 70
15
177
3
291
1
 70
58
 90
2
176
1
 90
2
176
1
 90
0
176
1
 90
0
176
1
 40
0.6
176
1
 40
30.0
176
1
 62
7
420
16777215
176
1
 90
1
176
1
 90
4
176
1
 62
7
176
1
 62
257
176
1
 90
1
176
1
 90
1
176
1
 40
1.0
176
1
 90
8
176
1
 62
7
176
1
 40
1.0
176
1
 90
1
176
1
 90
6
176
1
 90
2
176
1
 62
7
176
1
 90
5
176
1
 90
0
176
1
 90
0
176
1
290
0
176
1
 90
1
176
1
 40
0.0
176
1
 90
0
176
1
290
0
176
1
290
1
176
1
290
1
176
1
290
0
176
1
290
0
176
1
290
0
176
1
290
0
176
1
290
0
176
1
290
0
176
1
 90
50
176
1
 40
0.0
176
1
 40
1.0
176
1
 90
0
176
1
 62
18
420
0
176
1
 90
50
176
1
 90
3
176
1
 62
5
420
255
176
1
290
0
176
1
 90
50
176
1
 90
50
176
1
 90
50
176
1
290
0
176
1
 90
50
176
1
 62
256
176
0
 40
1.0
176
0
 90
2
176
1
  1
strokes_ogs.tif
176
1
290
0
176
1
 40
1.0
176
1
 40
1.0
176
1
  0
VISUALSTYLE
  5
37
102
{ACAD_REACTORS
330
16
102
}
330
16
100
AcDbVisualStyle
  2
Flat
 70
0
177
3
291
1
 70
58
 90
2
176
1
 90
1
176
1
 90
1
176
1
 90
2
176
1
 40
0.6
176
1
 40
30.0
176
1
 62
7
420
16777215
176
1
 90
0
176
1
 90
0
176
1
 62
7
176
1
 62
257
176
1
 90
1
176
1
 90
1
176
1
 40
1.0
176
1
 90
8
176
1
 62
7
176
1
 40
1.0
176
1
 90
1
176
1
 90
6
176
1
 90
2
176
1
 62
7
176
1
 90
5
176
1
 90
0
176
1
 90
0
176
1
290
0
176
1
 90
13
176
1
 40
0.0
176
1
 90
0
176
1
290
0
176
1
290
1
176
1
290
1
176
1
290
0
176
1
290
0
176
1
290
0
176
1
290
0
176
1
290
0
176
1
290
0
176
1
 90
50
176
1
 40
0.0
176
1
 40
1.0
176
1
 90
0
176
1
 62
18
420
0
176
1
 90
50
176
1
 90
3
176
1
 62
5
420
255
176
1
290
0
176
1
 90
50
176
1
 90
50
176
1
 90
50
176
1
290
0
176
1
 90
50
176
1
 62
256
176
0
 40
1.0
176
0
 90
2
176
1
  1
strokes_ogs.tif
176
1
290
0
176
1
 40
1.0
176
1
 40
1.0
176
1
  0
VISUALSTYLE
  5
38
102
{ACAD_REACTORS
330
16
102
}
330
16
100
AcDbVisualStyle
  2
FlatWithEdges
 70
1
177
3
291
1
 70
58
 90
2
176
1
 90
1
176
1
 90
1
176
1
 90
2
176
1
 40
0.6
176
1
 40
30.0
176
1
 62
7
420
16777215
176
1
 90
1
176
1
 90
0
176
1
 62
7
176
1
 62
257
176
1
 90
1
176
1
 90
1
176
1
 40
1.0
176
1
 90
0
176
1
 62
257
176
1
 40
1.0
176
1
 90
1
176
1
 90
6
176
1
 90
2
176
1
 62
7
176
1
 90
5
176
1
 90
0
176
1
 90
0
176
1
290
0
176
1
 90
13
176
1
 40
0.0
176
1
 90
0
176
1
290
0
176
1
290
1
176
1
290
1
176
1
290
0
176
1
290
0
176
1
290
0
176
1
290
0
176
1
290
0
176
1
290
0
176
1
 90
50
176
1
 40
0.0
176
1
 40
1.0
176
1
 90
0
176
1
 62
18
420
0
176
1
 90
50
176
1
 90
3
176
1
 62
5
420
255
176
1
290
0
176
1
 90
50
176
1
 90
50
176
1
 90
50
176
1
290
0
176
1
 90
50
176
1
 62
256
176
0
 40
1.0
176
0
 90
2
176
1
  1
strokes_ogs.tif
176
1
290
0
176
1
 40
1.0
176
1
 40
1.0
176
1
  0
VISUALSTYLE
  5
39
102
{ACAD_REACTORS
330
16
102
}
330
16
100
AcDbVisualStyle
  2
Gouraud
 70
2
177
3
291
1
 70
58
 90
2
176
1
 90
2
176
1
 90
1
176
1
 90
2
176
1
 40
0.6
176
1
 40
30.0
176
1
 62
7
420
16777215
176
1
 90
0
176
1
 90
0
176
1
 62
7
176
1
 62
257
176
1
 90
1
176
1
 90
1
176
1
 40
1.0
176
1
 90
0
176
1
 62
7
176
1
 40
1.0
176
1
 90
1
176
1
 90
6
176
1
 90
2
176
1
 62
7
176
1
 90
5
176
1
 90
0
176
1
 90
0
176
1
290
0
176
1
 90
13
176
1
 40
0.0
176
1
 90
0
176
1
290
0
176
1
290
1
176
1
290
1
176
1
290
0
176
1
290
0
176
1
290
0
176
1
290
0
176
1
290
0
176
1
290
0
176
1
 90
50
176
1
 40
0.0
176
1
 40
1.0
176
1
 90
0
176
1
 62
18
420
0
176
1
 90
50
176
1
 90
3
176
1
 62
5
420
255
176
1
290
0
176
1
 90
50
176
1
 90
50
176
1
 90
50
176
1
290
0
176
1
 90
50
176
1
 62
256
176
0
 40
1.0
176
0
 90
2
176
1
  1
strokes_ogs.tif
176
1
290
0
176
1
 40
1.0
176
1
 40
1.0
176
1
  0
VISUALSTYLE
  5
3A
102
{ACAD_REACTORS
330
16
102
}
330
16
100
AcDbVisualStyle
  2
GouraudWithEdges
 70
3
177
3
291
1
 70
58
 90
2
176
1
 90
2
176
1
 90
1
176
1
 90
2
176
1
 40
0.6
176
1
 40
30.0
176
1
 62
7
420
16777215
176
1
 90
1
176
1
 90
0
176
1
 62
7
176
1
 62
257
176
1
 90
1
176
1
 90
1
176
1
 40
1.0
176
1
 90
0
176
1
 62
257
176
1
 40
1.0
176
1
 90
1
176
1
 90
6
176
1
 90
2
176
1
 62
7
176
1
 90
5
176
1
 90
0
176
1
 90
0
176
1
290
0
176
1
 90
13
176
1
 40
0.0
176
1
 90
0
176
1
290
0
176
1
290
1
176
1
290
1
176
1
290
0
176
1
290
0
176
1
290
0
176
1
290
0
176
1
290
0
176
1
290
0
176
1
 90
50
176
1
 40
0.0
176
1
 40
1.0
176
1
 90
0
176
1
 62
18
420
0
176
1
 90
50
176
1
 90
3
176
1
 62
5
420
255
176
1
290
0
176
1
 90
50
176
1
 90
50
176
1
 90
50
176
1
290
0
176
1
 90
50
176
1
 62
256
176
0
 40
1.0
176
0
 90
2
176
1
  1
strokes_ogs.tif
176
1
290
0
176
1
 40
1.0
176
1
 40
1.0
176
1
  0
VISUALSTYLE
  5
3E
102
{ACAD_REACTORS
330
16
102
}
330
16
100
AcDbVisualStyle
  2
Hidden
 70
6
177
3
291
0
 70
58
 90
1
176
1
 90
2
176
1
 90
2
176
1
 90
0
176
1
 40
0.6
176
1
 40
30.0
176
1
 62
7
420
16777215
176
1
 90
2
176
1
 90
2
176
1
 62
7
176
1
 62
257
176
1
 90
2
176
1
 90
1
176
1
 40
40.0
176
1
 90
0
176
1
 62
257
176
1
 40
1.0
176
1
 90
1
176
1
 90
6
176
1
 90
2
176
1
 62
7
176
1
 90
3
176
1
 90
0
176
1
 90
0
176
1
290
0
176
1
 90
1
176
1
 40
0.0
176
1
 90
0
176
1
290
0
176
1
290
1
176
1
290
1
176
1
290
0
176
1
290
0
176
1
290
0
176
1
290
0
176
1
290
0
176
1
290
0
176
1
 90
50
176
1
 40
0.0
176
1
 40
1.0
176
1
 90
0
176
1
 62
18
420
0
176
1
 90
50
176
1
 90
3
176
1
 62
5
420
255
176
1
290
0
176
1
 90
50
176
1
 90
50
176
1
 90
50
176
1
290
0
176
1
 90
50
176
1
 62
256
176
0
 40
1.0
176
0
 90
2
176
1
  1
strokes_ogs.tif
176
1
290
0
176
1
 40
1.0
176
1
 40
1.0
176
1
  0
VISUALSTYLE
  5
4C
102
{ACAD_REACTORS
330
16
102
}
330
16
100
AcDbVisualStyle
  2
JitterOff
 70
20
177
3
291
1
 70
58
 90
2
176
0
 90
2
176
0
 90
0
176
0
 90
0
176
0
 40
0.6
176
0
 40
30.0
176
0
 62
7
420
16777215
176
0
 90
1
176
0
 90
4
176
0
 62
7
176
0
 62
257
176
0
 90
1
176
0
 90
1
176
0
 40
1.0
176
0
 90
10
176
2
 62
7
176
0
 40
1.0
176
0
 90
1
176
0
 90
6
176
0
 90
2
176
0
 62
7
176
0
 90
5
176
0
 90
0
176
0
 90
0
176
0
290
0
176
0
 90
1
176
0
 40
0.0
176
0
 90
0
176
0
290
0
176
0
290
1
176
0
290
1
176
0
290
0
176
0
290
0
176
0
290
0
176
0
290
0
176
0
290
0
176
0
290
0
176
0
 90
50
176
0
 40
0.0
176
0
 40
1.0
176
0
 90
0
176
0
 62
18
420
0
176
0
 90
50
176
0
 90
3
176
0
 62
5
420
255
176
0
290
0
176
0
 90
50
176
0
 90
50
176
0
 90
50
176
0
290
0
176
0
 90
50
176
0
 62
256
176
0
 40
1.0
176
0
 90
2
176
0
  1
strokes_ogs.tif
176
0
290
0
176
0
 40
1.0
176
0
 40
1.0
176
0
  0
VISUALSTYLE
  5
44
102
{ACAD_REACTORS
330
16
102
}
330
16
100
AcDbVisualStyle
  2
Linepattern
 70
14
177
3
291
1
 70
58
 90
2
176
1
 90
2
176
1
 90
0
176
1
 90
0
176
1
 40
0.6
176
1
 40
30.0
176
1
 62
7
420
16777215
176
1
 90
1
176
1
 90
4
176
1
 62
7
176
1
 62
257
176
1
 90
7
176
1
 90
7
176
1
 40
1.0
176
1
 90
8
176
1
 62
7
176
1
 40
1.0
176
1
 90
1
176
1
 90
6
176
1
 90
2
176
1
 62
7
176
1
 90
5
176
1
 90
0
176
1
 90
0
176
1
290
0
176
1
 90
1
176
1
 40
0.0
176
1
 90
0
176
1
290
0
176
1
290
1
176
1
290
1
176
1
290
0
176
1
290
0
176
1
290
0
176
1
290
0
176
1
290
0
176
1
290
0
176
1
 90
50
176
1
 40
0.0
176
1
 40
1.0
176
1
 90
0
176
1
 62
18
420
0
176
1
 90
50
176
1
 90
3
176
1
 62
5
420
255
176
1
290
0
176
1
 90
50
176
1
 90
50
176
1
 90
50
176
1
290
0
176
1
 90
50
176
1
 62
256
176
0
 40
1.0
176
0
 90
2
176
1
  1
strokes_ogs.tif
176
1
290
0
176
1
 40
1.0
176
1
 40
1.0
176
1
  0
VISUALSTYLE
  5
4D
102
{ACAD_REACTORS
330
16
102
}
330
16
100
AcDbVisualStyle
  2
OverhangOff
 70
21
177
3
291
1
 70
58
 90
2
176
0
 90
2
176
0
 90
0
176
0
 90
0
176
0
 40
0.6
176
0
 40
30.0
176
0
 62
7
420
16777215
176
0
 90
1
176
0
 90
4
176
0
 62
7
176
0
 62
257
176
0
 90
1
176
0
 90
1
176
0
 40
1.0
176
0
 90
9
176
2
 62
7
176
0
 40
1.0
176
0
 90
1
176
0
 90
6
176
0
 90
2
176
0
 62
7
176
0
 90
5
176
0
 90
0
176
0
 90
0
176
0
290
0
176
0
 90
1
176
0
 40
0.0
176
0
 90
0
176
0
290
0
176
0
290
1
176
0
290
1
176
0
290
0
176
0
290
0
176
0
290
0
176
0
290
0
176
0
290
0
176
0
290
0
176
0
 90
50
176
0
 40
0.0
176
0
 40
1.0
176
0
 90
0
176
0
 62
18
420
0
176
0
 90
50
176
0
 90
3
176
0
 62
5
420
255
176
0
290
0
176
0
 90
50
176
0
 90
50
176
0
 90
50
176
0
290
0
176
0
 90
50
176
0
 62
256
176
0
 40
1.0
176
0
 90
2
176
0
  1
strokes_ogs.tif
176
0
290
0
176
0
 40
1.0
176
0
 40
1.0
176
0
  0
VISUALSTYLE
  5
40
102
{ACAD_REACTORS
330
16
102
}
330
16
100
AcDbVisualStyle
  2
Realistic
 70
8
177
3
291
0
 70
58
 90
2
176
1
 90
3
176
1
 90
0
176
1
 90
2
176
1
 40
0.6
176
1
 40
30.0
176
1
 62
7
420
16777215
176
1
 90
0
176
1
 90
0
176
1
 62
7
176
1
 62
257
176
1
 90
1
176
1
 90
1
176
1
 40
1.0
176
1
 90
8
176
1
 62
257
176
1
 40
1.0
176
1
 90
1
176
1
 90
6
176
1
 90
2
176
1
 62
7
176
1
 90
3
176
1
 90
0
176
1
 90
0
176
1
290
0
176
1
 90
13
176
1
 40
0.0
176
1
 90
0
176
1
290
0
176
1
290
1
176
1
290
1
176
1
290
0
176
1
290
0
176
1
290
0
176
1
290
0
176
1
290
0
176
1
290
0
176
1
 90
50
176
1
 40
0.0
176
1
 40
1.0
176
1
 90
0
176
1
 62
18
420
0
176
1
 90
50
176
1
 90
3
176
1
 62
5
420
255
176
1
290
0
176
1
 90
50
176
1
 90
50
176
1
 90
50
176
1
290
0
176
1
 90
50
176
1
 62
256
176
0
 40
1.0
176
0
 90
2
176
1
  1
strokes_ogs.tif
176
1
290
0
176
1
 40
1.0
176
1
 40
1.0
176
1
  0
VISUALSTYLE
  5
4B
102
{ACAD_REACTORS
330
16
102
}
330
16
100
AcDbVisualStyle
  2
Shaded
 70
27
177
3
291
0
 70
58
 90
2
176
1
 90
2
176
1
 90
1
176
1
 90
2
176
1
 40
0.6
176
1
 40
30.0
176
1
 62
7
420
16777215
176
1
 90
0
176
1
 90
4
176
1
 62
7
176
1
 62
257
176
1
 90
1
176
1
 90
1
176
1
 40
1.0
176
1
 90
8
176
1
 62
257
176
1
 40
1.0
176
1
 90
1
176
1
 90
6
176
1
 90
2
176
1
 62
8
420
7895160
176
1
 90
3
176
1
 90
0
176
1
 90
0
176
1
290
0
176
1
 90
5
176
1
 40
0.0
176
1
 90
0
176
1
290
0
176
1
290
1
176
1
290
1
176
1
290
0
176
1
290
0
176
1
290
0
176
1
290
0
176
1
290
0
176
1
290
0
176
1
 90
50
176
1
 40
0.0
176
1
 40
1.0
176
1
 90
0
176
1
 62
18
420
0
176
1
 90
50
176
1
 90
3
176
1
 62
5
420
255
176
1
290
0
176
1
 90
50
176
1
 90
50
176
1
 90
50
176
1
290
0
176
1
 90
50
176
1
 62
256
176
0
 40
1.0
176
0
 90
2
176
1
  1
strokes_ogs.tif
176
1
290
0
176
1
 40
1.0
176
1
 40
1.0
176
1
  0
VISUALSTYLE
  5
4A
102
{ACAD_REACTORS
330
16
102
}
330
16
100
AcDbVisualStyle
  2
Shaded with edges
 70
26
177
3
291
0
 70
58
 90
2
176
1
 90
2
176
1
 90
1
176
1
 90
2
176
1
 40
0.6
176
1
 40
30.0
176
1
 62
7
420
16777215
176
1
 90
1
176
1
 90
2
176
1
 62
7
176
1
 62
257
176
1
 90
2
176
1
 90
1
176
1
 40
1.0
176
1
 90
8
176
1
 62
257
176
1
 40
1.0
176
1
 90
1
176
1
 90
6
176
1
 90
2
176
1
 62
7
176
1
 90
3
176
1
 90
0
176
1
 90
0
176
1
290
0
176
1
 90
5
176
1
 40
0.0
176
1
 90
0
176
1
290
0
176
1
290
1
176
1
290
1
176
1
290
0
176
1
290
0
176
1
290
0
176
1
290
0
176
1
290
0
176
1
290
0
176
1
 90
50
176
1
 40
0.0
176
1
 40
1.0
176
1
 90
0
176
1
 62
18
420
0
176
1
 90
50
176
1
 90
3
176
1
 62
5
420
255
176
1
290
0
176
1
 90
50
176
1
 90
50
176
1
 90
50
176
1
290
0
176
1
 90
50
176
1
 62
256
176
0
 40
1.0
176
0
 90
2
176
1
  1
strokes_ogs.tif
176
1
290
0
176
1
 40
1.0
176
1
 40
1.0
176
1
  0
VISUALSTYLE
  5
47
102
{ACAD_REACTORS
330
16
102
}
330
16
100
AcDbVisualStyle
  2
Shades of Gray
 70
23
177
3
291
0
 70
58
 90
2
176
1
 90
2
176
1
 90
3
176
1
 90
0
176
1
 40
0.6
176
1
 40
30.0
176
1
 62
7
420
16777215
176
1
 90
2
176
1
 90
2
176
1
 62
7
176
1
 62
7
176
1
 90
1
176
1
 90
1
176
1
 40
40.0
176
1
 90
8
176
1
 62
7
176
1
 40
1.0
176
1
 90
1
176
1
 90
6
176
1
 90
2
176
1
 62
7
176
1
 90
3
176
1
 90
0
176
1
 90
0
176
1
290
0
176
1
 90
1
176
1
 40
0.0
176
1
 90
0
176
1
290
0
176
1
290
1
176
1
290
1
176
1
290
0
176
1
290
0
176
1
290
0
176
1
290
0
176
1
290
0
176
1
290
0
176
1
 90
50
176
1
 40
0.0
176
1
 40
1.0
176
1
 90
0
176
1
 62
18
420
0
176
1
 90
50
176
1
 90
3
176
1
 62
5
420
255
176
1
290
0
176
1
 90
50
176
1
 90
50
176
1
 90
50
176
1
290
0
176
1
 90
50
176
1
 62
256
176
0
 40
1.0
176
0
 90
2
176
1
  1
strokes_ogs.tif
176
1
290
0
176
1
 40
1.0
176
1
 40
1.0
176
1
  0
VISUALSTYLE
  5
48
102
{ACAD_REACTORS
330
16
102
}
330
16
100
AcDbVisualStyle
  2
Sketchy
 70
24
177
3
291
0
 70
58
 90
1
176
1
 90
2
176
1
 90
2
176
1
 90
0
176
1
 40
0.6
176
1
 40
30.0
176
1
 62
7
420
16777215
176
1
 90
2
176
1
 90
2
176
1
 62
7
176
1
 62
7
176
1
 90
1
176
1
 90
1
176
1
 40
40.0
176
1
 90
11
176
1
 62
7
176
1
 40
1.0
176
1
 90
1
176
1
 90
6
176
1
 90
2
176
1
 62
7
176
1
 90
6
176
1
 90
0
176
1
 90
0
176
1
290
0
176
1
 90
1
176
1
 40
0.0
176
1
 90
0
176
1
290
0
176
1
290
1
176
1
290
1
176
1
290
0
176
1
290
0
176
1
290
0
176
1
290
0
176
1
290
0
176
1
290
0
176
1
 90
50
176
1
 40
0.0
176
1
 40
1.0
176
1
 90
0
176
1
 62
18
420
0
176
1
 90
50
176
1
 90
3
176
1
 62
5
420
255
176
1
290
0
176
1
 90
50
176
1
 90
50
176
1
 90
50
176
1
290
0
176
1
 90
50
176
1
 62
256
176
0
 40
1.0
176
0
 90
2
176
1
  1
strokes_ogs.tif
176
1
290
0
176
1
 40
1.0
176
1
 40
1.0
176
1
  0
VISUALSTYLE
  5
43
102
{ACAD_REACTORS
330
16
102
}
330
16
100
AcDbVisualStyle
  2
Thicken
 70
13
177
3
291
1
 70
58
 90
2
176
1
 90
2
176
1
 90
0
176
1
 90
0
176
1
 40
0.6
176
1
 40
30.0
176
1
 62
7
420
16777215
176
1
 90
1
176
1
 90
4
176
1
 62
7
176
1
 62
257
176
1
 90
1
176
1
 90
1
176
1
 40
1.0
176
1
 90
12
176
1
 62
7
176
1
 40
1.0
176
1
 90
1
176
1
 90
6
176
1
 90
2
176
1
 62
7
176
1
 90
5
176
1
 90
0
176
1
 90
0
176
1
290
0
176
1
 90
1
176
1
 40
0.0
176
1
 90
0
176
1
290
0
176
1
290
1
176
1
290
1
176
1
290
0
176
1
290
0
176
1
290
0
176
1
290
0
176
1
290
0
176
1
290
0
176
1
 90
50
176
1
 40
0.0
176
1
 40
1.0
176
1
 90
0
176
1
 62
18
420
0
176
1
 90
50
176
1
 90
3
176
1
 62
5
420
255
176
1
290
0
176
1
 90
50
176
1
 90
50
176
1
 90
50
176
1
290
0
176
1
 90
50
176
1
 62
256
176
0
 40
1.0
176
0
 90
2
176
1
  1
strokes_ogs.tif
176
1
290
0
176
1
 40
1.0
176
1
 40
1.0
176
1
  0
VISUALSTYLE
  5
3D
102
{ACAD_REACTORS
330
16
102
}
330
16
100
AcDbVisualStyle
  2
Wireframe
 70
5
177
3
291
0
 70
58
 90
0
176
1
 90
2
176
1
 90
0
176
1
 90
0
176
1
 40
0.6
176
1
 40
30.0
176
1
 62
7
420
16777215
176
1
 90
1
176
1
 90
4
176
1
 62
7
176
1
 62
257
176
1
 90
1
176
1
 90
1
176
1
 40
1.0
176
1
 90
0
176
1
 62
257
176
1
 40
1.0
176
1
 90
1
176
1
 90
6
176
1
 90
2
176
1
 62
7
176
1
 90
3
176
1
 90
0
176
1
 90
0
176
1
290
0
176
1
 90
1
176
1
 40
0.0
176
1
 90
0
176
1
290
0
176
1
290
1
176
1
290
1
176
1
290
0
176
1
290
0
176
1
290
0
176
1
290
0
176
1
290
0
176
1
290
0
176
1
 90
50
176
1
 40
0.0
176
1
 40
1.0
176
1
 90
0
176
1
 62
18
420
0
176
1
 90
50
176
1
 90
3
176
1
 62
5
420
255
176
1
290
0
176
1
 90
50
176
1
 90
50
176
1
 90
50
176
1
290
0
176
1
 90
50
176
1
 62
256
176
0
 40
1.0
176
0
 90
2
176
1
  1
strokes_ogs.tif
176
1
290
0
176
1
 40
1.0
176
1
 40
1.0
176
1
  0
VISUALSTYLE
  5
49
102
{ACAD_REACTORS
330
16
102
}
330
16
100
AcDbVisualStyle
  2
X-Ray
 70
25
177
3
291
0
 70
58
 90
2
176
1
 90
2
176
1
 90
1
176
1
 90
1
176
1
 40
0.5
176
1
 40
30.0
176
1
 62
7
420
16777215
176
1
 90
1
176
1
 90
0
176
1
 62
7
176
1
 62
257
176
1
 90
1
176
1
 90
1
176
1
 40
1.0
176
1
 90
8
176
1
 62
7
176
1
 40
1.0
176
1
 90
1
176
1
 90
6
176
1
 90
2
176
1
 62
7
176
1
 90
3
176
1
 90
0
176
1
 90
0
176
1
290
0
176
1
 90
13
176
1
 40
0.0
176
1
 90
0
176
1
290
0
176
1
290
1
176
1
290
1
176
1
290
0
176
1
290
0
176
1
290
0
176
1
290
0
176
1
290
0
176
1
290
0
176
1
 90
50
176
1
 40
0.0
176
1
 40
1.0
176
1
 90
0
176
1
 62
18
420
0
176
1
 90
50
176
1
 90
3
176
1
 62
5
420
255
176
1
290
0
176
1
 90
50
176
1
 90
50
176
1
 90
50
176
1
290
0
176
1
 90
50
176
1
 62
256
176
0
 40
1.0
176
0
 90
2
176
1
  1
strokes_ogs.tif
176
1
290
0
176
1
 40
1.0
176
1
 40
1.0
176
1
  0
DICTIONARYVAR
  5
6F
102
{ACAD_REACTORS
330
68
102
}
330
68
100
DictionaryVariables
280
0
  1
1:1
  0
DICTIONARYVAR
  5
6C
102
{ACAD_REACTORS
330
68
102
}
330
68
100
DictionaryVariables
280
0
  1
STANDARD
  0
DICTIONARYVAR
  5
6B
102
{ACAD_REACTORS
330
68
102
}
330
68
100
DictionaryVariables
280
0
  1
STANDARD
  0
DICTIONARYVAR
  5
6D
102
{ACAD_REACTORS
330
68
102
}
330
68
100
DictionaryVariables
280
0
  1
Metric50
  0
DICTIONARYVAR
  5
6E
102
{ACAD_REACTORS
330
68
102
}
330
68
100
DictionaryVariables
280
0
  1
Metric50
  0
DICTIONARYVAR
  5
2E
330
2D
100
DictionaryVariables
280
0
  1
1.4.2 @ 2025-09-22T08:40:18.039095+00:00
  0
DICTIONARYVAR
  5
34
330
2D
100
DictionaryVariables
280
0
  1
1.4.2 @ 2025-09-22T16:33:56.114038+00:00
  0
DICTIONARY
  5
71
330
4F
100
AcDbDictionary
280
1
281
1
  3
ACAD_ROUNDTRIP_2008_TABLESTYLE_CELLSTYLEMAP
360
72
  0
CELLSTYLEMAP
  5
72
102
{ACAD_REACTORS
330
71
102
}
330
71
100
AcDbCellStyleMap
 90
3
300
CELLSTYLE
  1
TABLEFORMAT_BEGIN
 90
5
170
1
 91
0
 92
32768
 62
257
 93
1
300
CONTENTFORMAT
  1
CONTENTFORMAT_BEGIN
 90
0
 91
0
 92
512
 93
0
300

 40
0.0
140
1.0
 94
5
 62
0
340
29
144
6.0
309
CONTENTFORMAT_END
171
1
301
MARGIN
  1
CELLMARGIN_BEGIN
 40
1.5
 40
1.5
 40
1.5
 40
1.5
 40
4.5
 40
4.5
309
CELLMARGIN_END
 94
6
 95
1
302
GRIDFORMAT
  1
GRIDFORMAT_BEGIN
 90
0
 91
1
 62
0
 92
-2
340
0
 93
0
 40
1.125
309
GRIDFORMAT_END
 95
2
302
GRIDFORMAT
  1
GRIDFORMAT_BEGIN
 90
0
 91
1
 62
0
 92
-2
340
0
 93
0
 40
1.125
309
GRIDFORMAT_END
 95
4
302
GRIDFORMAT
  1
GRIDFORMAT_BEGIN
 90
0
 91
1
 62
0
 92
-2
340
0
 93
0
 40
1.125
309
GRIDFORMAT_END
 95
8
302
GRIDFORMAT
  1
GRIDFORMAT_BEGIN
 90
0
 91
1
 62
0
 92
-2
340
0
 93
0
 40
1.125
309
GRIDFORMAT_END
 95
16
302
GRIDFORMAT
  1
GRIDFORMAT_BEGIN
 90
0
 91
1
 62
0
 92
-2
340
0
 93
0
 40
1.125
309
GRIDFORMAT_END
 95
32
302
GRIDFORMAT
  1
GRIDFORMAT_BEGIN
 90
0
 91
1
 62
0
 92
-2
340
0
 93
0
 40
1.125
309
GRIDFORMAT_END
309
TABLEFORMAT_END
  1
CELLSTYLE_BEGIN
 90
1
 91
1
300
_TITLE
309
CELLSTYLE_END
300
CELLSTYLE
  1
TABLEFORMAT_BEGIN
 90
5
170
1
 91
0
 92
0
 62
257
 93
1
300
CONTENTFORMAT
  1
CONTENTFORMAT_BEGIN
 90
0
 91
0
 92
512
 93
0
300

 40
0.0
140
1.0
 94
5
 62
0
340
29
144
4.5
309
CONTENTFORMAT_END
171
1
301
MARGIN
  1
CELLMARGIN_BEGIN
 40
1.5
 40
1.5
 40
1.5
 40
1.5
 40
4.5
 40
4.5
309
CELLMARGIN_END
 94
6
 95
1
302
GRIDFORMAT
  1
GRIDFORMAT_BEGIN
 90
0
 91
1
 62
0
 92
-2
340
0
 93
0
 40
1.125
309
GRIDFORMAT_END
 95
2
302
GRIDFORMAT
  1
GRIDFORMAT_BEGIN
 90
0
 91
1
 62
0
 92
-2
340
0
 93
0
 40
1.125
309
GRIDFORMAT_END
 95
4
302
GRIDFORMAT
  1
GRIDFORMAT_BEGIN
 90
0
 91
1
 62
0
 92
-2
340
0
 93
0
 40
1.125
309
GRIDFORMAT_END
 95
8
302
GRIDFORMAT
  1
GRIDFORMAT_BEGIN
 90
0
 91
1
 62
0
 92
-2
340
0
 93
0
 40
1.125
309
GRIDFORMAT_END
 95
16
302
GRIDFORMAT
  1
GRIDFORMAT_BEGIN
 90
0
 91
1
 62
0
 92
-2
340
0
 93
0
 40
1.125
309
GRIDFORMAT_END
 95
32
302
GRIDFORMAT
  1
GRIDFORMAT_BEGIN
 90
0
 91
1
 62
0
 92
-2
340
0
 93
0
 40
1.125
309
GRIDFORMAT_END
309
TABLEFORMAT_END
  1
CELLSTYLE_BEGIN
 90
2
 91
1
300
_HEADER
309
CELLSTYLE_END
300
CELLSTYLE
  1
TABLEFORMAT_BEGIN
 90
5
170
1
 91
0
 92
0
 62
257
 93
1
300
CONTENTFORMAT
  1
CONTENTFORMAT_BEGIN
 90
0
 91
0
 92
512
 93
0
300

 40
0.0
140
1.0
 94
2
 62
0
340
29
144
4.5
309
CONTENTFORMAT_END
171
1
301
MARGIN
  1
CELLMARGIN_BEGIN
 40
1.5
 40
1.5
 40
1.5
 40
1.5
 40
4.5
 40
4.5
309
CELLMARGIN_END
 94
6
 95
1
302
GRIDFORMAT
  1
GRIDFORMAT_BEGIN
 90
0
 91
1
 62
0
 92
-2
340
0
 93
0
 40
1.125
309
GRIDFORMAT_END
 95
2
302
GRIDFORMAT
  1
GRIDFORMAT_BEGIN
 90
0
 91
1
 62
0
 92
-2
340
0
 93
0
 40
1.125
309
GRIDFORMAT_END
 95
4
302
GRIDFORMAT
  1
GRIDFORMAT_BEGIN
 90
0
 91
1
 62
0
 92
-2
340
0
 93
0
 40
1.125
309
GRIDFORMAT_END
 95
8
302
GRIDFORMAT
  1
GRIDFORMAT_BEGIN
 90
0
 91
1
 62
0
 92
-2
340
0
 93
0
 40
1.125
309
GRIDFORMAT_END
 95
16
302
GRIDFORMAT
  1
GRIDFORMAT_BEGIN
 90
0
 91
1
 62
0
 92
-2
340
0
 93
0
 40
1.125
309
GRIDFORMAT_END
 95
32
302
GRIDFORMAT
  1
GRIDFORMAT_BEGIN
 90
0
 91
1
 62
0
 92
-2
340
0
 93
0
 40
1.125
309
GRIDFORMAT_END
309
TABLEFORMAT_END
  1
CELLSTYLE_BEGIN
 90
3
 91
2
300
_DATA
309
CELLSTYLE_END
  0
ENDSEC
  0
EOF
