  0
SECTION
  2
HEADER
  9
$ACADVER
  1
AC1027
  9
$ACADMAINTVER
 70
105
  9
$DWGCODEPAGE
  3
ANSI_1252
  9
$LASTSAVEDBY
  1
ezdxf
  9
$REQUIREDVERSIONS
160
0
  9
$INSBASE
 10
0.0
 20
0.0
 30
0.0
  9
$EXTMIN
 10
1e+20
 20
1e+20
 30
1e+20
  9
$EXTMAX
 10
-1e+20
 20
-1e+20
 30
-1e+20
  9
$LIMMIN
 10
0.0
 20
0.0
  9
$LIMMAX
 10
420.0
 20
297.0
  9
$ORTHOMODE
 70
0
  9
$REGENMODE
 70
1
  9
$FILLMODE
 70
1
  9
$QTEXTMODE
 70
0
  9
$MIRRTEXT
 70
1
  9
$LTSCALE
 40
1.0
  9
$ATTMODE
 70
1
  9
$TEXTSIZE
 40
2.5
  9
$TRACEWID
 40
1.0
  9
$TEXTSTYLE
  7
Standard
  9
$CLAYER
  8
0
  9
$CELTYPE
  6
ByLayer
  9
$CECOLOR
 62
256
  9
$CELTSCALE
 40
1.0
  9
$DISPSILH
 70
0
  9
$DIMSCALE
 40
1.0
  9
$DIMASZ
 40
2.5
  9
$DIMEXO
 40
0.625
  9
$DIMDLI
 40
3.75
  9
$DIMRND
 40
0.0
  9
$DIMDLE
 40
0.0
  9
$DIMEXE
 40
1.25
  9
$DIMTP
 40
0.0
  9
$DIMTM
 40
0.0
  9
$DIMTXT
 40
2.5
  9
$DIMCEN
 40
2.5
  9
$DIMTSZ
 40
0.0
  9
$DIMTOL
 70
0
  9
$DIMLIM
 70
0
  9
$DIMTIH
 70
0
  9
$DIMTOH
 70
0
  9
$DIMSE1
 70
0
  9
$DIMSE2
 70
0
  9
$DIMTAD
 70
1
  9
$DIMZIN
 70
8
  9
$DIMBLK
  1

  9
$DIMASO
 70
1
  9
$DIMSHO
 70
1
  9
$DIMPOST
  1

  9
$DIMAPOST
  1

  9
$DIMALT
 70
0
  9
$DIMALTD
 70
3
  9
$DIMALTF
 40
0.03937007874
  9
$DIMLFAC
 40
1.0
  9
$DIMTOFL
 70
1
  9
$DIMTVP
 40
0.0
  9
$DIMTIX
 70
0
  9
$DIMSOXD
 70
0
  9
$DIMSAH
 70
0
  9
$DIMBLK1
  1

  9
$DIMBLK2
  1

  9
$DIMSTYLE
  2
ISO-25
  9
$DIMCLRD
 70
0
  9
$DIMCLRE
 70
0
  9
$DIMCLRT
 70
0
  9
$DIMTFAC
 40
1.0
  9
$DIMGAP
 40
0.625
  9
$DIMJUST
 70
0
  9
$DIMSD1
 70
0
  9
$DIMSD2
 70
0
  9
$DIMTOLJ
 70
0
  9
$DIMTZIN
 70
8
  9
$DIMALTZ
 70
0
  9
$DIMALTTZ
 70
0
  9
$DIMUPT
 70
0
  9
$DIMDEC
 70
2
  9
$DIMTDEC
 70
2
  9
$DIMALTU
 70
2
  9
$DIMALTTD
 70
3
  9
$DIMTXSTY
  7
Standard
  9
$DIMAUNIT
 70
0
  9
$DIMADEC
 70
0
  9
$DIMALTRND
 40
0.0
  9
$DIMAZIN
 70
0
  9
$DIMDSEP
 70
44
  9
$DIMATFIT
 70
3
  9
$DIMFRAC
 70
0
  9
$DIMLDRBLK
  1

  9
$DIMLUNIT
 70
2
  9
$DIMLWD
 70
-2
  9
$DIMLWE
 70
-2
  9
$DIMTMOVE
 70
0
  9
$DIMFXL
 40
1.0
  9
$DIMFXLON
 70
0
  9
$DIMJOGANG
 40
0.785398163397
  9
$DIMTFILL
 70
0
  9
$DIMTFILLCLR
 70
0
  9
$DIMARCSYM
 70
0
  9
$DIMLTYPE
  6

  9
$DIMLTEX1
  6

  9
$DIMLTEX2
  6

  9
$DIMTXTDIRECTION
 70
0
  9
$LUNITS
 70
2
  9
$LUPREC
 70
4
  9
$SKETCHINC
 40
1.0
  9
$FILLETRAD
 40
10.0
  9
$AUNITS
 70
0
  9
$AUPREC
 70
2
  9
$MENU
  1
.
  9
$ELEVATION
 40
0.0
  9
$PELEVATION
 40
0.0
  9
$THICKNESS
 40
0.0
  9
$LIMCHECK
 70
0
  9
$CHAMFERA
 40
0.0
  9
$CHAMFERB
 40
0.0
  9
$CHAMFERC
 40
0.0
  9
$CHAMFERD
 40
0.0
  9
$SKPOLY
 70
0
  9
$TDCREATE
 40
2460942.0246759257
  9
$TDUCREATE
 40
2458532.153996898
  9
$TDUPDATE
 40
2460942.0246759257
  9
$TDUUPDATE
 40
2458532.1544311
  9
$TDINDWG
 40
0.0
  9
$TDUSRTIMER
 40
0.0
  9
$USRTIMER
 70
1
  9
$ANGBASE
 50
0.0
  9
$ANGDIR
 70
0
  9
$PDMODE
 70
0
  9
$PDSIZE
 40
0.0
  9
$PLINEWID
 40
0.0
  9
$SPLFRAME
 70
0
  9
$SPLINETYPE
 70
6
  9
$SPLINESEGS
 70
8
  9
$HANDSEED
  5
34
  9
$SURFTAB1
 70
6
  9
$SURFTAB2
 70
6
  9
$SURFTYPE
 70
6
  9
$SURFU
 70
6
  9
$SURFV
 70
6
  9
$UCSBASE
  2

  9
$UCSNAME
  2

  9
$UCSORG
 10
0.0
 20
0.0
 30
0.0
  9
$UCSXDIR
 10
1.0
 20
0.0
 30
0.0
  9
$UCSYDIR
 10
0.0
 20
1.0
 30
0.0
  9
$UCSORTHOREF
  2

  9
$UCSORTHOVIEW
 70
0
  9
$UCSORGTOP
 10
0.0
 20
0.0
 30
0.0
  9
$UCSORGBOTTOM
 10
0.0
 20
0.0
 30
0.0
  9
$UCSORGLEFT
 10
0.0
 20
0.0
 30
0.0
  9
$UCSORGRIGHT
 10
0.0
 20
0.0
 30
0.0
  9
$UCSORGFRONT
 10
0.0
 20
0.0
 30
0.0
  9
$UCSORGBACK
 10
0.0
 20
0.0
 30
0.0
  9
$PUCSBASE
  2

  9
$PUCSNAME
  2

  9
$PUCSORG
 10
0.0
 20
0.0
 30
0.0
  9
$PUCSXDIR
 10
1.0
 20
0.0
 30
0.0
  9
$PUCSYDIR
 10
0.0
 20
1.0
 30
0.0
  9
$PUCSORTHOREF
  2

  9
$PUCSORTHOVIEW
 70
0
  9
$PUCSORGTOP
 10
0.0
 20
0.0
 30
0.0
  9
$PUCSORGBOTTOM
 10
0.0
 20
0.0
 30
0.0
  9
$PUCSORGLEFT
 10
0.0
 20
0.0
 30
0.0
  9
$PUCSORGRIGHT
 10
0.0
 20
0.0
 30
0.0
  9
$PUCSORGFRONT
 10
0.0
 20
0.0
 30
0.0
  9
$PUCSORGBACK
 10
0.0
 20
0.0
 30
0.0
  9
$USERI1
 70
0
  9
$USERI2
 70
0
  9
$USERI3
 70
0
  9
$USERI4
 70
0
  9
$USERI5
 70
0
  9
$USERR1
 40
0.0
  9
$USERR2
 40
0.0
  9
$USERR3
 40
0.0
  9
$USERR4
 40
0.0
  9
$USERR5
 40
0.0
  9
$WORLDVIEW
 70
1
  9
$SHADEDGE
 70
3
  9
$SHADEDIF
 70
70
  9
$TILEMODE
 70
1
  9
$MAXACTVP
 70
64
  9
$PINSBASE
 10
0.0
 20
0.0
 30
0.0
  9
$PLIMCHECK
 70
0
  9
$PEXTMIN
 10
1e+20
 20
1e+20
 30
1e+20
  9
$PEXTMAX
 10
-1e+20
 20
-1e+20
 30
-1e+20
  9
$PLIMMIN
 10
0.0
 20
0.0
  9
$PLIMMAX
 10
420.0
 20
297.0
  9
$UNITMODE
 70
0
  9
$VISRETAIN
 70
1
  9
$PLINEGEN
 70
0
  9
$PSLTSCALE
 70
1
  9
$TREEDEPTH
 70
3020
  9
$CMLSTYLE
  2
Standard
  9
$CMLJUST
 70
0
  9
$CMLSCALE
 40
20.0
  9
$PROXYGRAPHICS
 70
1
  9
$MEASUREMENT
 70
1
  9
$CELWEIGHT
370
-1
  9
$ENDCAPS
280
0
  9
$JOINSTYLE
280
0
  9
$LWDISPLAY
290
0
  9
$INSUNITS
 70
6
  9
$HYPERLINKBASE
  1

  9
$STYLESHEET
  1

  9
$XEDIT
290
1
  9
$CEPSNTYPE
380
0
  9
$PSTYLEMODE
290
1
  9
$FINGERPRINTGUID
  2
{875C6502-918A-4B73-87B2-997C298ED5C5}
  9
$VERSIONGUID
  2
{F9C59771-73BF-4D13-867C-2EA96BA8296F}
  9
$EXTNAMES
290
1
  9
$PSVPSCALE
 40
0.0
  9
$OLESTARTUP
290
0
  9
$SORTENTS
280
127
  9
$INDEXCTL
280
0
  9
$HIDETEXT
280
1
  9
$XCLIPFRAME
280
1
  9
$HALOGAP
280
0
  9
$OBSCOLOR
 70
257
  9
$OBSLTYPE
280
0
  9
$INTERSECTIONDISPLAY
280
0
  9
$INTERSECTIONCOLOR
 70
257
  9
$DIMASSOC
280
2
  9
$PROJECTNAME
  1

  9
$CAMERADISPLAY
290
0
  9
$LENSLENGTH
 40
50.0
  9
$CAMERAHEIGHT
 40
0.0
  9
$STEPSPERSEC
 40
24.0
  9
$STEPSIZE
 40
100.0
  9
$3DDWFPREC
 40
2.0
  9
$PSOLWIDTH
 40
0.005
  9
$PSOLHEIGHT
 40
0.08
  9
$LOFTANG1
 40
1.570796326795
  9
$LOFTANG2
 40
1.570796326795
  9
$LOFTMAG1
 40
0.0
  9
$LOFTMAG2
 40
0.0
  9
$LOFTPARAM
 70
7
  9
$LOFTNORMALS
280
1
  9
$LATITUDE
 40
37.795
  9
$LONGITUDE
 40
-122.394
  9
$NORTHDIRECTION
 40
0.0
  9
$TIMEZONE
 70
-8000
  9
$LIGHTGLYPHDISPLAY
280
1
  9
$TILEMODELIGHTSYNCH
280
1
  9
$CMATERIAL
347
20
  9
$SOLIDHIST
280
0
  9
$SHOWHIST
280
1
  9
$DWFFRAME
280
2
  9
$DGNFRAME
280
2
  9
$REALWORLDSCALE
290
1
  9
$INTERFERECOLOR
 62
256
  9
$CSHADOW
280
0
  9
$SHADOWPLANELOCATION
 40
0.0
  0
ENDSEC
  0
SECTION
  2
CLASSES
  0
CLASS
  1
ACDBDICTIONARYWDFLT
  2
AcDbDictionaryWithDefault
  3
ObjectDBX Classes
 90
0
 91
0
280
0
281
0
  0
CLASS
  1
SUN
  2
AcDbSun
  3
SCENEOE
 90
1153
 91
0
280
0
281
0
  0
CLASS
  1
VISUALSTYLE
  2
AcDbVisualStyle
  3
ObjectDBX Classes
 90
4095
 91
0
280
0
281
0
  0
CLASS
  1
MATERIAL
  2
AcDbMaterial
  3
ObjectDBX Classes
 90
1153
 91
0
280
0
281
0
  0
CLASS
  1
SCALE
  2
AcDbScale
  3
ObjectDBX Classes
 90
1153
 91
0
280
0
281
0
  0
CLASS
  1
TABLESTYLE
  2
AcDbTableStyle
  3
ObjectDBX Classes
 90
4095
 91
0
280
0
281
0
  0
CLASS
  1
MLEADERSTYLE
  2
AcDbMLeaderStyle
  3
ACDB_MLEADERSTYLE_CLASS
 90
4095
 91
0
280
0
281
0
  0
CLASS
  1
DICTIONARYVAR
  2
AcDbDictionaryVar
  3
ObjectDBX Classes
 90
0
 91
0
280
0
281
0
  0
CLASS
  1
CELLSTYLEMAP
  2
AcDbCellStyleMap
  3
ObjectDBX Classes
 90
1152
 91
0
280
0
281
0
  0
CLASS
  1
MENTALRAYRENDERSETTINGS
  2
AcDbMentalRayRenderSettings
  3
SCENEOE
 90
1024
 91
0
280
0
281
0
  0
CLASS
  1
ACDBDETAILVIEWSTYLE
  2
AcDbDetailViewStyle
  3
ObjectDBX Classes
 90
1025
 91
0
280
0
281
0
  0
CLASS
  1
ACDBSECTIONVIEWSTYLE
  2
AcDbSectionViewStyle
  3
ObjectDBX Classes
 90
1025
 91
0
280
0
281
0
  0
CLASS
  1
RASTERVARIABLES
  2
AcDbRasterVariables
  3
ISM
 90
0
 91
0
280
0
281
0
  0
CLASS
  1
ACDBPLACEHOLDER
  2
AcDbPlaceHolder
  3
ObjectDBX Classes
 90
0
 91
0
280
0
281
0
  0
CLASS
  1
LAYOUT
  2
AcDbLayout
  3
ObjectDBX Classes
 90
0
 91
0
280
0
281
0
  0
ENDSEC
  0
SECTION
  2
TABLES
  0
TABLE
  2
VPORT
  5
8
330
0
100
AcDbSymbolTable
 70
1
  0
VPORT
  5
23
330
8
100
AcDbSymbolTableRecord
100
AcDbViewportTableRecord
  2
*Active
 70
0
 10
0.0
 20
0.0
 11
1.0
 21
1.0
 12
0.0
 22
0.0
 13
0.0
 23
0.0
 14
0.5
 24
0.5
 15
0.5
 25
0.5
 16
0.0
 26
0.0
 36
1.0
 17
0.0
 27
0.0
 37
0.0
 40
1000.0
 41
1.34
 42
50.0
 43
0.0
 44
0.0
 50
0.0
 51
0.0
 71
0
 72
1000
 73
1
 74
3
 75
0
 76
0
 77
0
 78
0
281
0
 65
0
146
0.0
  0
ENDTAB
  0
TABLE
  2
LTYPE
  5
2
330
0
100
AcDbSymbolTable
 70
3
  0
LTYPE
  5
24
330
2
100
AcDbSymbolTableRecord
100
AcDbLinetypeTableRecord
  2
ByBlock
 70
0
  3

 72
65
 73
0
 40
0.0
  0
LTYPE
  5
25
330
2
100
AcDbSymbolTableRecord
100
AcDbLinetypeTableRecord
  2
ByLayer
 70
0
  3

 72
65
 73
0
 40
0.0
  0
LTYPE
  5
26
330
2
100
AcDbSymbolTableRecord
100
AcDbLinetypeTableRecord
  2
Continuous
 70
0
  3

 72
65
 73
0
 40
0.0
  0
ENDTAB
  0
TABLE
  2
LAYER
  5
1
330
0
100
AcDbSymbolTable
 70
3
  0
LAYER
  5
27
330
1
100
AcDbSymbolTableRecord
100
AcDbLayerTableRecord
  2
0
 70
0
 62
7
  6
Continuous
370
-3
390
13
347
21
  0
LAYER
  5
28
330
1
100
AcDbSymbolTableRecord
100
AcDbLayerTableRecord
  2
Defpoints
 70
0
 62
7
  6
Continuous
290
0
370
-3
390
13
347
21
  0
LAYER
  5
2F
330
1
100
AcDbSymbolTableRecord
100
AcDbLayerTableRecord
  2
alpha_boundary_shrunk
 70
0
 62
7
  6
Continuous
370
-3
390
13
347
21
  0
ENDTAB
  0
TABLE
  2
STYLE
  5
5
330
0
100
AcDbSymbolTable
 70
1
  0
STYLE
  5
29
330
5
100
AcDbSymbolTableRecord
100
AcDbTextStyleTableRecord
  2
Standard
 70
0
 40
0.0
 41
1.0
 50
0.0
 71
0
 42
2.5
  3
txt
  4

  0
ENDTAB
  0
TABLE
  2
VIEW
  5
7
330
0
100
AcDbSymbolTable
 70
0
  0
ENDTAB
  0
TABLE
  2
UCS
  5
6
330
0
100
AcDbSymbolTable
 70
0
  0
ENDTAB
  0
TABLE
  2
APPID
  5
3
330
0
100
AcDbSymbolTable
 70
3
  0
APPID
  5
2A
330
3
100
AcDbSymbolTableRecord
100
AcDbRegAppTableRecord
  2
ACAD
 70
0
  0
APPID
  5
31
330
3
100
AcDbSymbolTableRecord
100
AcDbRegAppTableRecord
  2
HATCHBACKGROUNDCOLOR
 70
0
  0
APPID
  5
32
330
3
100
AcDbSymbolTableRecord
100
AcDbRegAppTableRecord
  2
EZDXF
 70
0
  0
ENDTAB
  0
TABLE
  2
DIMSTYLE
  5
4
330
0
100
AcDbSymbolTable
 70
1
100
AcDbDimStyleTable
  0
DIMSTYLE
105
2B
330
4
100
AcDbSymbolTableRecord
100
AcDbDimStyleTableRecord
  2
Standard
 70
0
 40
1.0
 41
2.5
 42
0.625
 43
3.75
 44
1.25
 45
0.0
 46
0.0
 47
0.0
 48
0.0
 49
2.5
140
2.5
141
2.5
142
0.0
143
0.03937007874
144
1.0
145
0.0
146
1.0
147
0.625
148
0.0
 69
0
 70
0
 71
0
 72
0
 73
0
 74
0
 75
0
 76
0
 77
1
 78
8
 79
3
170
0
171
3
172
1
173
0
174
0
175
0
176
0
177
0
178
0
179
2
271
2
272
2
273
2
274
3
275
0
276
0
277
2
278
44
279
0
280
0
281
0
282
0
283
0
284
8
285
0
286
0
288
0
289
3
290
0
371
-2
372
-2
  0
ENDTAB
  0
TABLE
  2
BLOCK_RECORD
  5
9
330
0
100
AcDbSymbolTable
 70
2
  0
BLOCK_RECORD
  5
17
330
9
100
AcDbSymbolTableRecord
100
AcDbBlockTableRecord
  2
*Model_Space
340
1A
 70
0
280
1
281
0
  0
BLOCK_RECORD
  5
1B
330
9
100
AcDbSymbolTableRecord
100
AcDbBlockTableRecord
  2
*Paper_Space
340
1E
 70
0
280
1
281
0
  0
ENDTAB
  0
ENDSEC
  0
SECTION
  2
BLOCKS
  0
BLOCK
  5
18
330
17
100
AcDbEntity
  8
0
100
AcDbBlockBegin
  2
*Model_Space
 70
0
 10
0.0
 20
0.0
 30
0.0
  3
*Model_Space
  1

  0
ENDBLK
  5
19
330
17
100
AcDbEntity
  8
0
100
AcDbBlockEnd
  0
BLOCK
  5
1C
330
1B
100
AcDbEntity
  8
0
100
AcDbBlockBegin
  2
*Paper_Space
 70
0
 10
0.0
 20
0.0
 30
0.0
  3
*Paper_Space
  1

  0
ENDBLK
  5
1D
330
1B
100
AcDbEntity
  8
0
100
AcDbBlockEnd
  0
ENDSEC
  0
SECTION
  2
ENTITIES
  0
LWPOLYLINE
  5
30
330
17
100
AcDbEntity
  8
alpha_boundary_shrunk
 62
1
100
AcDbPolyline
 90
519
 70
1
 10
648455.2583720513
 20
201152.37176960503
 10
648536.1468765673
 20
201179.33460444372
 10
648588.9937042554
 20
201196.95021367312
 10
648641.840531944
 20
201214.5658229026
 10
648694.6873596326
 20
201232.18143213214
 10
648747.5341873207
 20
201249.79704136154
 10
648800.3810150091
 20
201267.412650591
 10
648855.3823679261
 20
201285.74643489663
 10
648872.0060338988
 20
201288.4440845141
 10
648923.6902796156
 20
201302.64386905
 10
648976.537107304
 20
201320.25947827945
 10
649029.3839349926
 20
201337.875087509
 10
649082.2307626808
 20
201355.4906967384
 10
649135.0775903692
 20
201373.10630596784
 10
649240.7712457463
 20
201408.3375244269
 10
649293.6180734345
 20
201425.9531336563
 10
649346.4649011228
 20
201443.56874288575
 10
649399.3117288116
 20
201461.18435211532
 10
649401.4662540398
 20
201461.90252719139
 10
649418.0899200126
 20
201464.6001768089
 10
649469.7741657295
 20
201478.79996134478
 10
649575.4678211063
 20
201514.03117980374
 10
649628.3146487945
 20
201531.64678903314
 10
649681.1614764829
 20
201549.2623982626
 10
649725.7712090267
 20
201566.54482169726
 10
649768.5250389836
 20
201588.0115499393
 10
649809.0315618131
 20
201613.4660584922
 10
649846.9199467152
 20
201642.6753153624
 10
649881.8433315282
 20
201675.3719144303
 10
649913.4819981963
 20
201711.25652351094
 10
649983.9444351142
 20
201799.33456965833
 10
650012.1930752948
 20
201838.36083939305
 10
650036.5546027988
 20
201879.9246623542
 10
650056.8028417547
 20
201923.6401541237
 10
650072.749804645
 20
201969.10145388564
 10
650084.247437608
 20
202015.8864924954
 10
650091.188994991
 20
202063.5609110295
 10
650093.5100303924
 20
202111.6820934353
 10
650093.5100303924
 20
203115.77181951533
 10
650090.6371352563
 20
203169.29416634075
 10
650082.0514639537
 20
203222.20145680668
 10
650067.8516794178
 20
203273.88570252334
 10
650050.2360701883
 20
203326.73253021177
 10
650049.5178951122
 20
203328.8870554403
 10
650046.8202454947
 20
203345.51072141292
 10
650032.6204609589
 20
203397.1949671296
 10
650015.0048517295
 20
203450.04179481804
 10
649997.3892425
 20
203502.88862250652
 10
649979.7736332702
 20
203555.7354501959
 10
649979.0554581942
 20
203557.88997542392
 10
649976.3578085767
 20
203574.51364139677
 10
649962.1580240407
 20
203626.1978871137
 10
649944.5424148112
 20
203679.04471480215
 10
649926.926805582
 20
203731.89154248976
 10
649909.3111963522
 20
203784.738370179
 10
649908.5930212765
 20
203786.89289540626
 10
649905.895371659
 20
203803.51656137934
 10
649891.695587123
 20
203855.200807096
 10
649874.0799778936
 20
203908.04763478442
 10
649856.4643686638
 20
203960.8944624738
 10
649855.7461935879
 20
203963.04898770174
 10
649853.0485439703
 20
203979.67265367476
 10
649838.8487594344
 20
204031.3568993917
 10
649821.2331502049
 20
204084.20372708014
 10
649786.0019317463
 20
204189.89738245602
 10
649785.2837566701
 20
204192.05190768448
 10
649782.5861070526
 20
204208.67557365727
 10
649768.3863225167
 20
204260.35981937393
 10
649750.7707132873
 20
204313.20664706235
 10
649733.1551040575
 20
204366.05347475174
 10
649715.5394948283
 20
204418.9003024392
 10
649714.8213197521
 20
204421.05482766774
 10
649712.1236701347
 20
204437.67849364036
 10
649697.9238855989
 20
204489.36273935702
 10
649680.3082763695
 20
204542.20956704547
 10
649662.6926671399
 20
204595.056394734
 10
649645.0770579102
 20
204647.90322242325
 10
649644.3588828342
 20
204650.05774765115
 10
649641.6612332166
 20
204666.68141362426
 10
649627.4614486807
 20
204718.36565934122
 10
649609.8458394512
 20
204771.21248702964
 10
649592.230230222
 20
204824.0593147171
 10
649574.6146209922
 20
204876.9061424065
 10
649573.8964459164
 20
204879.0606676338
 10
649571.1987962989
 20
204895.68433360677
 10
649556.999011763
 20
204947.36857932343
 10
649539.3834025336
 20
205000.21540701186
 10
649521.7677933038
 20
205053.06223470124
 10
649521.0496182279
 20
205055.21675992917
 10
649518.3519686103
 20
205071.8404259022
 10
649504.1521840744
 20
205123.52467161915
 10
649486.5365748449
 20
205176.37149930757
 10
649451.3053563862
 20
205282.06515468346
 10
649450.58718131
 20
205284.219679912
 10
649447.8895316926
 20
205300.8433458846
 10
649433.6897471568
 20
205352.52759160128
 10
649424.1168796724
 20
205381.2461940546
 10
649424.1168796724
 20
218117.50794145302
 10
653134.2474855168
 20
218117.50794145302
 10
653183.2560556816
 20
218119.91557811692
 10
653231.7926465248
 20
218127.11530125138
 10
653279.389824144
 20
218139.0377735869
 10
653325.5892016992
 20
218155.56817519735
 10
653369.9458539297
 20
218176.5473092788
 10
653412.0326020265
 20
218201.7731353017
 10
653451.4441275985
 20
218231.00271477157
 10
653487.80087611
 20
218263.95455085963
 10
653593.4945314869
 20
218369.64820623648
 10
653626.446367575
 20
218406.00495474794
 10
653655.675947045
 20
218445.41648031995
 10
653680.9017730679
 20
218487.50322841678
 10
653701.8809071493
 20
218531.85988064724
 10
653718.4113087598
 20
218578.0592582026
 10
653730.3337810953
 20
218625.65643582176
 10
653737.5335042299
 20
218674.19302666507
 10
653739.9411408937
 20
218723.20159682987
 10
653739.9411408937
 20
230025.6597805779
 10
689309.9459012831
 20
230025.6597805779
 10
689309.9459012831
 20
160422.2979888435
 10
681823.1357042679
 20
160422.2979888435
 10
681794.4171018155
 20
160431.87085632765
 10
681742.7328560986
 20
160446.07064086353
 10
681726.1091901257
 20
160448.76829048104
 10
681723.9546648972
 20
160449.48646555722
 10
681671.1078372089
 20
160467.10207478664
 10
681619.4235914921
 20
160481.30185932253
 10
681602.7999255193
 20
160483.99950894003
 10
681600.6454002908
 20
160484.71768401616
 10
681547.7985726028
 20
160502.33329324555
 10
681496.1143268859
 20
160516.53307778144
 10
681479.4906609129
 20
160519.23072739894
 10
681477.3361356843
 20
160519.94890247518
 10
681424.4893079965
 20
160537.5645117045
 10
681372.8050622796
 20
160551.76429624038
 10
681356.1813963067
 20
160554.46194585788
 10
681354.0268710782
 20
160555.18012093406
 10
681301.1800433899
 20
160572.7957301635
 10
681249.4957976731
 20
160586.99551469937
 10
681232.8721317006
 20
160589.6931643168
 10
681230.7176064723
 20
160590.41133939291
 10
681177.8707787835
 20
160608.0269486225
 10
681126.1865330667
 20
160622.22673315834
 10
681109.5628670942
 20
160624.9243827758
 10
681107.4083418658
 20
160625.6425578519
 10
681054.5615141771
 20
160643.25816708143
 10
681002.8772684603
 20
160657.45795161728
 10
680986.2536024881
 20
160660.15560123467
 10
680984.0990772597
 20
160660.87377631082
 10
680931.2522495706
 20
160678.48938554045
 10
680879.5680038539
 20
160692.68917007625
 10
680862.9443378816
 20
160695.38681969364
 10
680860.7898126533
 20
160696.10499476976
 10
680807.9429849645
 20
160713.72060399933
 10
680756.2587392477
 20
160727.9203885352
 10
680739.6350732754
 20
160730.61803815258
 10
680737.480548047
 20
160731.33621322873
 10
680684.6337203584
 20
160748.95182245824
 10
680632.9494746416
 20
160763.15160699413
 10
680616.3258086689
 20
160765.8492566116
 10
680561.3244557523
 20
160784.18304091715
 10
680509.6402100354
 20
160798.38282545304
 10
680493.0165440624
 20
160801.08047507054
 10
680490.8620188341
 20
160801.79865014667
 10
680438.0151911459
 20
160819.4142593761
 10
680386.330945429
 20
160833.61404391198
 10
680369.7072794564
 20
160836.31169352945
 10
680367.552754228
 20
160837.02986860558
 10
680315.8685085111
 20
160851.22965314146
 10
680299.2448425381
 20
160853.92730275897
 10
680297.0903173095
 20
160854.6454778352
 10
680244.2434896217
 20
160872.26108706451
 10
680192.5592439048
 20
160886.4608716004
 10
680175.9355779319
 20
160889.1585212179
 10
680173.7810527034
 20
160889.8766962941
 10
680120.9342250151
 20
160907.4923055235
 10
680069.2499792983
 20
160921.6920900594
 10
680052.6263133255
 20
160924.3897396769
 10
680050.471788097
 20
160925.10791475303
 10
679997.624960409
 20
160942.72352398242
 10
679945.9407146921
 20
160956.9233085183
 10
679929.3170487194
 20
160959.62095813578
 10
679927.162523491
 20
160960.33913321194
 10
679874.3156958023
 20
160977.95474244145
 10
679822.6314500856
 20
160992.1545269773
 10
679806.0077841133
 20
160994.8521765947
 10
679803.8532588849
 20
160995.57035167085
 10
679751.0064311958
 20
161013.18596090048
 10
679699.3221854791
 20
161027.38574543627
 10
679682.6985195068
 20
161030.08339505366
 10
679680.5439942785
 20
161030.80157012978
 10
679627.6971665897
 20
161048.41717935936
 10
679576.0129208729
 20
161062.6169638952
 10
679559.3892549004
 20
161065.31461351266
 10
679557.234729672
 20
161066.03278858878
 10
679504.3879019833
 20
161083.6483978183
 10
679452.7036562666
 20
161097.84818235415
 10
679436.0799902943
 20
161100.54583197154
 10
679433.9254650659
 20
161101.2640070477
 10
679381.0786373772
 20
161118.8796162772
 10
679329.3943916605
 20
161133.0794008131
 10
679312.7707256877
 20
161135.77705043057
 10
679257.7693727711
 20
161154.11083473612
 10
679206.0851270542
 20
161168.310619272
 10
679189.4614610813
 20
161171.0082688895
 10
679187.306935853
 20
161171.72644396563
 10
679134.4601081648
 20
161189.34205319505
 10
679082.7758624479
 20
161203.54183773094
 10
679066.1521964753
 20
161206.23948734842
 10
679063.9976712469
 20
161206.95766242454
 10
679011.1508435583
 20
161224.57327165405
 10
678959.4665978415
 20
161238.77305618994
 10
678942.8429318687
 20
161241.4707058074
 10
678887.8415789522
 20
161259.80449011296
 10
678836.1573332353
 20
161274.00427464885
 10
678819.5336672623
 20
161276.70192426635
 10
678817.379142034
 20
161277.42009934247
 10
678764.5323143458
 20
161295.0357085719
 10
678712.8480686289
 20
161309.2354931078
 10
678696.2244026563
 20
161311.93314272526
 10
678694.0698774279
 20
161312.65131780138
 10
678642.385631711
 20
161326.85110233727
 10
678625.7619657383
 20
161329.54875195475
 10
678623.6074405098
 20
161330.2669270309
 10
678570.7606128212
 20
161347.8825362604
 10
678519.0763671044
 20
161362.08232079627
 10
678502.4527011322
 20
161364.77997041366
 10
678500.2981759037
 20
161365.4981454898
 10
678447.4513482146
 20
161383.11375471944
 10
678395.767102498
 20
161397.31353925524
 10
678379.1434365257
 20
161400.01118887262
 10
678376.9889112974
 20
161400.72936394875
 10
678324.1420836085
 20
161418.34497317832
 10
678272.4578378918
 20
161432.54475771417
 10
678255.8341719193
 20
161435.24240733162
 10
678253.6796466908
 20
161435.96058240774
 10
678200.8328190027
 20
161453.57619163717
 10
678149.1485732858
 20
161467.77597617306
 10
678132.5249073132
 20
161470.47362579053
 10
678077.5235543963
 20
161488.80741009614
 10
678025.8393086795
 20
161503.00719463202
 10
678009.2156427065
 20
161505.70484424953
 10
678007.0611174782
 20
161506.42301932565
 10
677954.21428979
 20
161524.03862855508
 10
677902.5300440731
 20
161538.23841309096
 10
677885.9063781005
 20
161540.93606270844
 10
677883.7518528721
 20
161541.65423778456
 10
677830.9050251835
 20
161559.26984701407
 10
677779.2207794667
 20
161573.46963154996
 10
677762.597113494
 20
161576.16728116744
 10
677707.5957605774
 20
161594.50106547298
 10
677655.9115148605
 20
161608.70085000887
 10
677639.2878488875
 20
161611.39849962638
 10
677637.1333236592
 20
161612.1166747025
 10
677584.286495971
 20
161629.73228393192
 10
677532.6022502541
 20
161643.9320684678
 10
677515.9785842815
 20
161646.62971808529
 10
677513.8240590531
 20
161647.3478931614
 10
677460.9772313645
 20
161664.96350239092
 10
677409.2929856477
 20
161679.1632869268
 10
677392.669319675
 20
161681.86093654428
 10
677337.6679667584
 20
161700.19472084983
 10
677285.9837210415
 20
161714.39450538572
 10
677269.3600550685
 20
161717.09215500322
 10
677267.2055298398
 20
161717.81033007946
 10
677214.358702152
 20
161735.42593930877
 10
677162.6744564351
 20
161749.62572384466
 10
677146.0507904623
 20
161752.32337346216
 10
677143.8962652338
 20
161753.04154853834
 10
677091.0494375455
 20
161770.65715776777
 10
677039.3651918287
 20
161784.85694230365
 10
677022.7415258558
 20
161787.55459192116
 10
677020.5870006274
 20
161788.27276699728
 10
676968.9027549106
 20
161802.47255153314
 10
676952.2790889384
 20
161805.17020115053
 10
676950.12456371
 20
161805.88837622668
 10
676897.2777360209
 20
161823.5039854563
 10
676845.5934903042
 20
161837.7037699921
 10
676828.9698243319
 20
161840.4014196095
 10
676773.9684714152
 20
161858.7352039151
 10
676722.2842256983
 20
161872.934988451
 10
676705.6605597254
 20
161875.6326380685
 10
676703.506034497
 20
161876.3508131446
 10
676650.6592068089
 20
161893.96642237404
 10
676598.974961092
 20
161908.16620690993
 10
676582.3512951194
 20
161910.8638565274
 10
676580.196769891
 20
161911.58203160352
 10
676527.3499422023
 20
161929.19764083304
 10
676475.6656964856
 20
161943.39742536892
 10
676459.0420305128
 20
161946.0950749864
 10
676404.0406775962
 20
161964.42885929195
 10
676352.3564318793
 20
161978.62864382783
 10
676335.7327659064
 20
161981.32629344534
 10
676333.5782406781
 20
161982.04446852146
 10
676280.7314129899
 20
161999.6600777509
 10
676229.047167273
 20
162013.85986228677
 10
676212.4235013004
 20
162016.55751190425
 10
676210.268976072
 20
162017.27568698037
 10
676157.4221483833
 20
162034.89129620988
 10
676105.7379026666
 20
162049.09108074577
 10
676089.1142366937
 20
162051.78873036327
 10
676086.9597114653
 20
162052.5069054394
 10
676034.1128837772
 20
162070.1225146688
 10
675982.4286380603
 20
162084.32229920468
 10
675965.8049720874
 20
162087.01994882218
 10
675963.6504468587
 20
162087.73812389842
 10
675910.8036191709
 20
162105.35373312773
 10
675859.119373454
 20
162119.55351766362
 10
675842.4957074812
 20
162122.25116728112
 10
675840.3411822526
 20
162122.9693423573
 10
675787.4943545646
 20
162140.5849515867
 10
675735.8101088477
 20
162154.7847361226
 10
675719.1864428747
 20
162157.4823857401
 10
675717.0319176461
 20
162158.20056081633
 10
675664.1850899582
 20
162175.81617004564
 10
675612.5008442414
 20
162190.01595458153
 10
675595.877178269
 20
162192.71360419897
 10
675593.7226530404
 20
162193.43177927512
 10
675540.8758253513
 20
162211.04738850475
 10
675489.1915796347
 20
162225.24717304055
 10
675472.5679136624
 20
162227.94482265794
 10
675470.4133884341
 20
162228.66299773406
 10
675417.5665607452
 20
162246.27860696363
 10
675365.8823150285
 20
162260.4783914995
 10
675349.258649056
 20
162263.17604111694
 10
675347.1041238275
 20
162263.89421619306
 10
675295.4198781108
 20
162278.09400072895
 10
675278.796212138
 20
162280.79165034642
 10
675223.7948592214
 20
162299.12543465197
 10
675172.1106135045
 20
162313.32521918786
 10
675155.4869475316
 20
162316.02286880536
 10
675153.3324223033
 20
162316.74104388148
 10
675100.4855946151
 20
162334.3566531109
 10
675048.8013488982
 20
162348.5564376468
 10
675032.1776829256
 20
162351.25408726427
 10
675030.0231576972
 20
162351.9722623404
 10
674977.1763300085
 20
162369.5878715699
 10
674925.4920842918
 20
162383.7876561058
 10
674908.868418319
 20
162386.48530572327
 10
674896.2878254928
 20
162390.67883666535
 10
674896.2878254928
 20
164097.19737622899
 10
674893.8801888289
 20
164146.20594639378
 10
674886.6804656944
 20
164194.7425372371
 10
674874.7579933589
 20
164242.33971485627
 10
674858.2275917483
 20
164288.5390924116
 10
674837.248457667
 20
164332.89574464207
 10
674812.022631644
 20
164374.9824927389
 10
674782.793052174
 20
164414.3940183109
 10
674749.841216086
 20
164450.75076682237
 10
674644.147560709
 20
164556.44442219922
 10
674607.7908121976
 20
164589.39625828728
 10
674568.3792866255
 20
164618.62583775716
 10
674526.2925385288
 20
164643.85166378005
 10
674481.9358862983
 20
164664.8307978615
 10
674435.736508743
 20
164681.36119947195
 10
674388.1393311239
 20
164693.28367180747
 10
674339.6027402807
 20
164700.48339494193
 10
674290.5941701159
 20
164702.89103160583
 10
659570.7077958499
 20
164702.89103160583
 10
659570.7077958499
 20
182611.20267640683
 10
659568.300159186
 20
182660.21124657162
 10
659561.1004360515
 20
182708.74783741494
 10
659549.177963716
 20
182756.3450150341
 10
659532.6475621054
 20
182802.54439258945
 10
659511.668428024
 20
182846.9010448199
 10
659486.4426020011
 20
182888.98779291674
 10
659457.2130225311
 20
182928.39931848875
 10
659424.261186443
 20
182964.7560670002
 10
659318.5675310661
 20
183070.44972237706
 10
659282.2107825547
 20
183103.40155846512
 10
659242.7992569826
 20
183132.631137935
 10
659200.7125088859
 20
183157.8569639579
 10
659156.3558566554
 20
183178.83609803935
 10
659110.1564791001
 20
183195.3664996498
 10
659062.559301481
 20
183207.2889719853
 10
659014.0227106378
 20
183214.48869511977
 10
658965.014140473
 20
183216.89633178368
 10
658742.7741620645
 20
183216.89633178368
 10
658742.7741620645
 20
186427.02693762814
 10
659017.8609681614
 20
186427.02693762814
 10
659066.8695383262
 20
186429.43457429204
 10
659115.4061291694
 20
186436.6342974265
 10
659163.0033067885
 20
186448.556769762
 10
659209.2026843438
 20
186465.08717137246
 10
659253.5593365743
 20
186486.06630545392
 10
659295.646084671
 20
186511.2921314768
 10
659335.0576102431
 20
186540.5217109467
 10
659371.4143587545
 20
186573.47354703475
 10
659477.1080141314
 20
186679.1672024116
 10
659510.0598502195
 20
186715.52395092306
 10
659539.2894296895
 20
186754.93547649507
 10
659564.5152557124
 20
186797.0222245919
 10
659585.4943897938
 20
186841.37887682236
 10
659602.0247914044
 20
186887.5782543777
 10
659613.9472637399
 20
186935.17543199687
 10
659621.1469868744
 20
186983.7120228402
 10
659623.5546235383
 20
187032.72059300498
 10
659623.5546235383
 20
189727.9088051146
 10
659621.1469868744
 20
189776.9173752794
 10
659613.9472637399
 20
189825.4539661227
 10
659602.0247914044
 20
189873.05114374188
 10
659585.4943897938
 20
189919.25052129722
 10
659564.5152557124
 20
189963.60717352768
 10
659539.2894296895
 20
190005.6939216245
 10
659510.0598502195
 20
190045.10544719652
 10
659477.1080141314
 20
190081.46219570798
 10
659371.4143587545
 20
190187.15585108483
 10
659335.0576102431
 20
190220.1076871729
 10
659295.646084671
 20
190249.33726664277
 10
659253.5593365743
 20
190274.56309266566
 10
659209.2026843438
 20
190295.54222674711
 10
659163.0033067885
 20
190312.07262835756
 10
659115.4061291694
 20
190323.99510069308
 10
659106.0368762652
 20
190325.3848980751
 10
659105.5124142522
 20
190325.55971874614
 10
659053.8281685353
 20
190339.75950328202
 10
659000.9208780691
 20
190348.34517458474
 10
658976.1650090041
 20
190349.67398432584
 10
658948.1345131582
 20
190357.37511251154
 10
658895.2272226922
 20
190365.9607838142
 10
658892.3641994379
 20
190366.1144610363
 10
658860.056467011
 20
190374.99072174096
 10
658807.1491765449
 20
190383.57639304368
 10
658804.2861532905
 20
190383.7300702658
 10
658771.9784208636
 20
190392.60633097045
 10
658719.0711303975
 20
190401.19200227316
 10
658716.2081071431
 20
190401.3456794953
 10
658683.9003747161
 20
190410.22194019996
 10
658630.9930842501
 20
190418.80761150262
 10
658606.2372151852
 20
190420.13642124372
 10
658578.2067193391
 20
190427.83754942945
 10
658525.2994288731
 20
190436.4232207321
 10
658522.436405619
 20
190436.57689795422
 10
658490.128673192
 20
190445.45315865887
 10
658437.2213827259
 20
190454.0388299616
 10
658434.3583594714
 20
190454.19250718373
 10
658402.0506270445
 20
190463.06876788838
 10
658349.1433365785
 20
190471.65443919104
 10
658346.2803133242
 20
190471.80811641316
 10
658313.9725808973
 20
190480.6843771178
 10
658261.0652904311
 20
190489.27004842053
 10
658236.3094213662
 20
190490.59885816163
 10
658208.2789255201
 20
190498.29998634735
 10
658155.3716350541
 20
190506.88565765
 10
658152.5086117999
 20
190507.03933487213
 10
658120.2008793727
 20
190515.91559557684
 10
658067.2935889068
 20
190524.5012668795
 10
658064.4305656524
 20
190524.6549441016
 10
658032.1228332254
 20
190533.5312048063
 10
657979.2155427594
 20
190542.11687610895
 10
657976.3525195053
 20
190542.27055333107
 10
657944.0447870783
 20
190551.14681403572
 10
657891.1374966122
 20
190559.73248533843
 10
657866.3816275473
 20
190561.06129507953
 10
657838.3511317014
 20
190568.76242326523
 10
657785.4438412354
 20
190577.3480945679
 10
657782.580817981
 20
190577.50177179
 10
657750.2730855541
 20
190586.37803249466
 10
657697.365795088
 20
190594.96370379737
 10
657694.5027718336
 20
190595.11738101952
 10
657662.1950394064
 20
190603.9936417242
 10
657609.2877489404
 20
190612.57931302686
 10
657606.4247256862
 20
190612.73299024897
 10
657574.1169932589
 20
190621.60925095368
 10
657521.209702793
 20
190630.19492225634
 10
657518.3466795387
 20
190630.34859947846
 10
657486.0389471117
 20
190639.22486018314
 10
657433.1316566457
 20
190647.8105314858
 10
657408.3757875811
 20
190649.1393412269
 10
657380.3452917351
 20
190656.84046941256
 10
657327.438001269
 20
190665.42614071528
 10
657324.5749780146
 20
190665.57981793743
 10
657292.2672455877
 20
190674.45607864208
 10
657239.3599551216
 20
190683.04174994474
 10
657236.4969318673
 20
190683.19542716685
 10
657204.1891994404
 20
190692.0716878715
 10
657151.2819089743
 20
190700.65735917422
 10
657148.41888572
 20
190700.81103639634
 10
657116.111153293
 20
190709.687297101
 10
657063.2038628269
 20
190718.2729684037
 10
657038.4479937619
 20
190719.6017781448
 10
657010.417497916
 20
190727.3029063305
 10
656957.51020745
 20
190735.88857763316
 10
656954.6471841957
 20
190736.04225485527
 10
656922.3394517688
 20
190744.91851555993
 10
656869.4321613027
 20
190753.50418686264
 10
656866.5691380483
 20
190753.65786408476
 10
656834.2614056214
 20
190762.5341247894
 10
656781.3541151553
 20
190771.11979609213
 10
656778.491091901
 20
190771.27347331424
 10
656746.1833594741
 20
190780.1497340189
 10
656693.2760690079
 20
190788.7354053216
 10
656668.5201999429
 20
190790.0642150627
 10
656640.489704097
 20
190797.7653432484
 10
656587.582413631
 20
190806.35101455107
 10
656584.7193903767
 20
190806.50469177318
 10
656552.4116579498
 20
190815.38095247783
 10
656499.5043674837
 20
190823.96662378055
 10
656496.6413442292
 20
190824.1203010027
 10
656464.3336118023
 20
190832.99656170735
 10
656411.4263213363
 20
190841.58223301
 10
656408.563298082
 20
190841.73591023212
 10
656376.2555656551
 20
190850.61217093677
 10
656323.3482751889
 20
190859.1978422395
 10
656298.592406124
 20
190860.5266519806
 10
656270.5619102779
 20
190868.22778016631
 10
656217.6546198119
 20
190876.81345146897
 10
656214.7915965577
 20
190876.9671286911
 10
656182.4838641306
 20
190885.8433893958
 10
656129.5765736646
 20
190894.42906069846
 10
656076.0542268391
 20
190897.30195583464
 10
648402.4115443629
 20
190897.30195583464
 10
648402.4115443629
 20
198259.68473627375
 10
648405.405867319
 20
198265.226447649
 10
648423.157505879
 20
198306.59861275894
 10
648437.1158361566
 20
198349.39980121562
 10
648447.1676964769
 20
198393.2830192101
 10
648453.2315953339
 20
198437.89250080427
 10
648455.2583720513
 20
198482.86659216348
 10
648455.2583720513
 20
201152.37176960503
  0
ENDSEC
  0
SECTION
  2
OBJECTS
  0
DICTIONARY
  5
A
330
0
100
AcDbDictionary
281
1
  3
ACAD_COLOR
350
B
  3
ACAD_GROUP
350
C
  3
ACAD_LAYOUT
350
D
  3
ACAD_MATERIAL
350
E
  3
ACAD_MLEADERSTYLE
350
F
  3
ACAD_MLINESTYLE
350
10
  3
ACAD_PLOTSETTINGS
350
11
  3
ACAD_PLOTSTYLENAME
350
12
  3
ACAD_SCALELIST
350
14
  3
ACAD_TABLESTYLE
350
15
  3
ACAD_VISUALSTYLE
350
16
  3
EZDXF_META
350
2D
  0
DICTIONARY
  5
B
330
A
100
AcDbDictionary
281
1
  0
DICTIONARY
  5
C
330
A
100
AcDbDictionary
281
1
  0
DICTIONARY
  5
D
330
A
100
AcDbDictionary
281
1
  3
Model
350
1A
  3
Layout1
350
1E
  0
DICTIONARY
  5
E
330
A
100
AcDbDictionary
281
1
  3
ByBlock
350
1F
  3
ByLayer
350
20
  3
Global
350
21
  0
DICTIONARY
  5
F
330
A
100
AcDbDictionary
281
1
  3
Standard
350
2C
  0
DICTIONARY
  5
10
330
A
100
AcDbDictionary
281
1
  3
Standard
350
22
  0
DICTIONARY
  5
11
330
A
100
AcDbDictionary
281
1
  0
ACDBDICTIONARYWDFLT
  5
12
330
A
100
AcDbDictionary
281
1
  3
Normal
350
13
100
AcDbDictionaryWithDefault
340
13
  0
ACDBPLACEHOLDER
  5
13
330
12
  0
DICTIONARY
  5
14
330
A
100
AcDbDictionary
281
1
  0
DICTIONARY
  5
15
330
A
100
AcDbDictionary
281
1
  0
DICTIONARY
  5
16
330
A
100
AcDbDictionary
281
1
  0
LAYOUT
  5
1A
330
D
100
AcDbPlotSettings
  1

  4
A3
  6

 40
7.5
 41
20.0
 42
7.5
 43
20.0
 44
420.0
 45
297.0
 46
0.0
 47
0.0
 48
0.0
 49
0.0
140
0.0
141
0.0
142
1.0
143
1.0
 70
1024
 72
1
 73
0
 74
5
  7

 75
16
 76
0
 77
2
 78
300
147
1.0
148
0.0
149
0.0
100
AcDbLayout
  1
Model
 70
1
 71
0
 10
0.0
 20
0.0
 11
420.0
 21
297.0
 12
0.0
 22
0.0
 32
0.0
 14
1e+20
 24
1e+20
 34
1e+20
 15
-1e+20
 25
-1e+20
 35
-1e+20
146
0.0
 13
0.0
 23
0.0
 33
0.0
 16
1.0
 26
0.0
 36
0.0
 17
0.0
 27
1.0
 37
0.0
 76
1
330
17
  0
LAYOUT
  5
1E
330
D
100
AcDbPlotSettings
  1

  4
A3
  6

 40
7.5
 41
20.0
 42
7.5
 43
20.0
 44
420.0
 45
297.0
 46
0.0
 47
0.0
 48
0.0
 49
0.0
140
0.0
141
0.0
142
1.0
143
1.0
 70
0
 72
1
 73
0
 74
5
  7

 75
16
 76
0
 77
2
 78
300
147
1.0
148
0.0
149
0.0
100
AcDbLayout
  1
Layout1
 70
1
 71
1
 10
0.0
 20
0.0
 11
420.0
 21
297.0
 12
0.0
 22
0.0
 32
0.0
 14
1e+20
 24
1e+20
 34
1e+20
 15
-1e+20
 25
-1e+20
 35
-1e+20
146
0.0
 13
0.0
 23
0.0
 33
0.0
 16
1.0
 26
0.0
 36
0.0
 17
0.0
 27
1.0
 37
0.0
 76
1
330
1B
  0
MATERIAL
  5
1F
102
{ACAD_REACTORS
330
E
102
}
330
E
100
AcDbMaterial
  1
ByBlock
  2

 70
0
 40
1.0
 71
1
 41
1.0
 91
-1023410177
 42
1.0
 72
1
  3

 73
1
 74
1
 75
1
 44
0.5
 73
0
 45
1.0
 46
1.0
 77
1
  4

 78
1
 79
1
170
1
 48
1.0
171
1
  6

172
1
173
1
174
1
140
1.0
141
1.0
175
1
  7

176
1
177
1
178
1
143
1.0
179
1
  8

270
1
271
1
272
1
145
1.0
146
1.0
273
1
  9

274
1
275
1
276
1
 42
1.0
 72
1
  3

 73
1
 74
1
 75
1
 94
63
  0
MATERIAL
  5
20
102
{ACAD_REACTORS
330
E
102
}
330
E
100
AcDbMaterial
  1
ByLayer
  2

 70
0
 40
1.0
 71
1
 41
1.0
 91
-1023410177
 42
1.0
 72
1
  3

 73
1
 74
1
 75
1
 44
0.5
 73
0
 45
1.0
 46
1.0
 77
1
  4

 78
1
 79
1
170
1
 48
1.0
171
1
  6

172
1
173
1
174
1
140
1.0
141
1.0
175
1
  7

176
1
177
1
178
1
143
1.0
179
1
  8

270
1
271
1
272
1
145
1.0
146
1.0
273
1
  9

274
1
275
1
276
1
 42
1.0
 72
1
  3

 73
1
 74
1
 75
1
 94
63
  0
MATERIAL
  5
21
102
{ACAD_REACTORS
330
E
102
}
330
E
100
AcDbMaterial
  1
Global
  2

 70
0
 40
1.0
 71
1
 41
1.0
 91
-1023410177
 42
1.0
 72
1
  3

 73
1
 74
1
 75
1
 44
0.5
 73
0
 45
1.0
 46
1.0
 77
1
  4

 78
1
 79
1
170
1
 48
1.0
171
1
  6

172
1
173
1
174
1
140
1.0
141
1.0
175
1
  7

176
1
177
1
178
1
143
1.0
179
1
  8

270
1
271
1
272
1
145
1.0
146
1.0
273
1
  9

274
1
275
1
276
1
 42
1.0
 72
1
  3

 73
1
 74
1
 75
1
 94
63
  0
MLINESTYLE
  5
22
102
{ACAD_REACTORS
330
10
102
}
330
10
100
AcDbMlineStyle
  2
Standard
 70
0
  3

 62
256
 51
90.0
 52
90.0
 71
2
 49
0.5
 62
256
  6
BYLAYER
 49
-0.5
 62
256
  6
BYLAYER
  0
MLEADERSTYLE
  5
2C
102
{ACAD_REACTORS
330
F
102
}
330
F
100
AcDbMLeaderStyle
179
2
170
2
171
1
172
0
 90
2
 40
0.0
 41
0.0
173
1
 91
-1056964608
 92
-2
290
1
 42
2.0
291
1
 43
8.0
  3
Standard
 44
4.0
300

342
29
174
1
175
1
176
0
178
1
 93
-1056964608
 45
4.0
292
0
297
0
 46
4.0
 94
-1056964608
 47
1.0
 49
1.0
140
1.0
294
1
141
0.0
177
0
142
1.0
295
0
296
0
143
3.75
271
0
272
9
273
9
  0
DICTIONARY
  5
2D
330
A
100
AcDbDictionary
280
1
281
1
  3
CREATED_BY_EZDXF
350
2E
  3
WRITTEN_BY_EZDXF
350
33
  0
DICTIONARYVAR
  5
2E
330
2D
100
DictionaryVariables
280
0
  1
1.4.2 @ 2025-09-22T08:00:44.456544+00:00
  0
DICTIONARYVAR
  5
33
330
2D
100
DictionaryVariables
280
0
  1
1.4.2 @ 2025-09-22T16:35:32.142436+00:00
  0
ENDSEC
  0
EOF
